<?xml version="1.0" encoding="utf-8"?>
<!-- Generator: Adobe Illustrator 20.1.0, SVG Export Plug-In . SVG Version: 6.00 Build 0)  -->
<svg version="1.1" id="Layer_1" xmlns="http://www.w3.org/2000/svg" xmlns:xlink="http://www.w3.org/1999/xlink" x="0px" y="0px"
	 viewBox="0 0 703 558" style="enable-background:new 0 0 703 558;" xml:space="preserve">
<style type="text/css">
	.st0{clip-path:url(#SVGID_2_);}
	.st1{clip-path:url(#SVGID_4_);fill:#FFFFFF;}
	.st2{fill:#E6E7E8;}
	.st3{fill:#3B3B3C;}
	.st4{fill:#333132;}
</style>
<g>
	<defs>
		<polygon id="SVGID_1_" points="545,245 247.6,245 384.2,108.3 349.5,73.9 154,269.4 349.5,464.9 384,430.4 247.6,293.8 545,293.8 
					"/>
	</defs>
	<use xlink:href="#SVGID_1_"  style="overflow:visible;fill-rule:evenodd;clip-rule:evenodd;fill:#FFFFFF;"/>
	<clipPath id="SVGID_2_">
		<use xlink:href="#SVGID_1_"  style="overflow:visible;"/>
	</clipPath>
	<g class="st0">
		<defs>
			<rect id="SVGID_3_" x="-334.8" y="-1074.7" width="8797.5" height="19501.1"/>
		</defs>
		<use xlink:href="#SVGID_3_"  style="overflow:visible;fill:#FFFFFF;"/>
		<clipPath id="SVGID_4_">
			<use xlink:href="#SVGID_3_"  style="overflow:visible;"/>
		</clipPath>
		<rect x="31.8" y="-48.3" class="st1" width="635.4" height="635.4"/>
	</g>
</g>
<g>
	<circle class="st2" cx="350.4" cy="286" r="207.2"/>
	<path class="st3" d="M350.4,497.8c-116.8,0-211.8-95-211.8-211.8s95-211.8,211.8-211.8s211.8,95,211.8,211.8
		S467.2,497.8,350.4,497.8z M350.4,83.4c-111.7,0-202.6,90.9-202.6,202.6s90.9,202.6,202.6,202.6S553,397.7,553,286
		S462.1,83.4,350.4,83.4z"/>
</g>
<g>
	<path class="st4" d="M189.5,398.9c-2.7,0-4.5-1-5.5-2c-2.6-2.4-2.8-5.9-2.8-7.1l-4.5-46.4c-0.4-7.9,4.2-10.7,7.1-11.2
		c2.1-0.8,16.7-6.6,28-21.3c0.2-0.3,19.5-24.6,30-42.3l5-8.6c0.7-1.5,4.2-7.6,13.5-6.6c0.1,0,10.7,0.9,25.2-4.9
		c0.4-0.2,41.9-17,63.5-27.5c0.1-0.1,20.2-10.4,31.3-16.2c3.8-2.5,15.6-10.2,20.4-11.1c1.1-0.3,5.2-1.2,8.9,0.7
		c0.3-0.2,0.6-0.3,1-0.4c10.3-2.5,44.9-14.6,47.3-15.5c13.3-5.9,23.7,0.9,25,1.8c7.9,5,24.1,15.9,25.5,16.9
		c6.5,3.8,7.5,10.8,7.6,11.1l0,0.2l0,0.2c-0.4,38.6,0,103.9,0,104.5c0,5.2-2.1,7.7-3.9,8.8c-4.2,2.7-9.7,0.2-10.3-0.1
		c-17.8-8-42-1.9-44.1-1.3c-12.5,4.9-58,24-58.5,24.2c-4,1.6-10.9,3.3-11.2,3.4c-5.9,1.5-11.2,2.3-11.4,2.3l-0.4,0
		c-26.8,0.4-67.3,0.7-67.7,0.8l-0.2,0l-0.2,0c-5.6-0.5-8,2.9-8.1,3c-3.5,5.1-13.1,15.4-13.5,15.8c-11.3,11.7-34.6,14.5-35.6,14.6
		c-10.5,1.5-58.5,13.7-59,13.8l-0.3,0.1C190.8,398.8,190.1,398.9,189.5,398.9z M258.3,260.2c-4.3,0-5.4,2.7-5.5,2.8l-0.2,0.4
		l-5.1,8.7c-10.7,18.1-29.7,42-30.5,43c-13.4,17.5-30.7,23.4-31.5,23.7l-0.8,0.2c-0.3,0.1-1.6,0.6-1.4,4l4.5,46.7l0,0.3
		c0,0.6,0.2,1.6,0.6,2c0.3,0.2,0.9,0.3,1.7,0.2c3.5-0.9,48.9-12.5,59.7-14c0.3,0,21.9-2.6,31.5-12.5c0.1-0.1,9.6-10.4,12.8-15
		c0.1-0.2,4.5-6.8,14.2-6c2.9,0,41.4-0.4,67.3-0.7c1-0.2,5.5-0.9,10.5-2.1c0.1,0,6.8-1.7,10.3-3.1c0.4-0.2,46.4-19.4,58.7-24.3
		l0.3-0.1c1.1-0.3,28.1-7.7,49,1.7c1.1,0.5,3.1,1,3.8,0.5c0.4-0.2,0.8-1.2,0.8-3.1c0-0.6-0.4-65.6,0-104.3c-0.2-0.8-1-4.1-4.3-6
		l-0.2-0.1c-0.2-0.1-17.4-11.7-25.5-16.9l-0.2-0.1c-0.3-0.2-8.2-5.8-18.4-1.1l-0.3,0.1c-1.4,0.5-33.2,11.7-46,15.2
		c0.5,1.4,0.7,3,0.8,4.8l0,6c0,1.9-1.5,3.4-3.4,3.4s-3.4-1.5-3.4-3.4V205c0-1.5-0.3-3.5-1.5-4.3c-1.3-1-3.7-0.5-4.2-0.3l-0.6,0.1
		c-2.1,0.3-11,5.5-18,10.2l-0.3,0.2c-11.2,5.9-31.4,16.3-31.6,16.4c-21.9,10.7-63.6,27.6-64,27.8c-16.1,6.4-27.9,5.4-28.4,5.3
		C259.1,260.2,258.7,260.2,258.3,260.2z"/>
	<path class="st4" d="M259.8,260.3c-0.7,0-1.3-0.2-1.9-0.6c-1.5-1.1-1.9-3.2-0.9-4.7c0.2-0.3,4.9-7.1,12.6-10l79.8-24
		c1.8-0.5,3.7,0.5,4.2,2.3c0.5,1.8-0.5,3.7-2.3,4.2l-79.5,24c-5.4,2-9.1,7.4-9.2,7.4C262,259.7,260.9,260.3,259.8,260.3z"/>
	<path class="st4" d="M319.3,276.6c-10.5,0-14.1-7.2-14.6-11.3c-2.1-10.2,7.9-16.7,13.5-18.7l0.4-0.1c21.9-5.1,50.6-19,50.9-19.2
		c21.3-9.7,40.6-16,40.8-16c1.8-0.6,3.7,0.4,4.3,2.2c0.6,1.8-0.4,3.7-2.2,4.3c-0.2,0.1-19.2,6.2-40,15.7c-1.1,0.5-29.4,14.3-52,19.6
		c-1.3,0.5-10.4,4.3-9,11l0.1,0.4c0.1,0.9,1,5.6,8.1,5.4c0,0,18.2-1.7,43.5-8.4l0,0c0,0,0.1,0,0.1,0v0v0c0.4-0.1,0.8-0.2,1.1-0.3
		c1.1-0.3,3.1-0.8,6.6-1.7c1.8-0.5,3.7,0.6,4.1,2.4c0.5,1.8-0.6,3.7-2.4,4.1c-6.5,1.7-7.6,2-7.7,2l-0.3-0.9l0.2,0.9
		c-25.9,6.8-44.1,8.5-44.8,8.6C319.7,276.6,319.5,276.6,319.3,276.6z"/>
	<path class="st4" d="M325,316.4c-0.1,0-0.2,0-0.3,0l-12.4-1c-10.9-1-12.5-5.2-12.7-7l0-0.4c0-2.7,1-5,2.9-6.6
		c3.8-3.3,9.9-2.5,10.6-2.4c0.2,0,10.5,1.7,29.5-2.3l0.2,0c0.2,0,20.1-2.9,39.8-11.1c0.1,0,15.5-6.8,26.3-12.3
		c0.2-0.1,11.6-5.8,14.8-13.5c0.1-0.1,1.7-3.8,0.5-6.8c-0.6-1.5-1.7-2.6-3.6-3.4c-0.8-0.2-6-1.4-13.3,3.3
		c-0.5,0.3-12.3,7.6-36.2,13.4c-1.8,0.4-3.6-0.7-4.1-2.5c-0.4-1.8,0.7-3.6,2.5-4.1c22.7-5.5,34.1-12.5,34.2-12.6
		c10.7-6.9,18.9-4.1,19.3-4c3.8,1.6,6.4,4.1,7.6,7.3c2.2,5.6-0.3,11.3-0.6,11.9c-4.1,10-17.4,16.6-18,16.9
		c-10.9,5.6-26.5,12.4-26.7,12.5c-19.9,8.3-39.5,11.2-41.4,11.5c-20.4,4.3-31.4,2.4-31.9,2.3c-1.4-0.2-4.1-0.1-5.1,0.9
		c-0.1,0.1-0.2,0.2-0.4,0.5c0.7,0.4,2.5,1.2,6.4,1.5l12.4,1c1.9,0.2,3.2,1.8,3.1,3.7C328.2,315.1,326.8,316.4,325,316.4z"/>
	<path class="st4" d="M429.3,258.3c-1.3,0-2.5-0.7-3.1-2c-0.8-1.7,0-3.7,1.7-4.5c2.6-1.2,5.1-2.5,7.3-3.8c-5.1,1.8-8.7,2.4-9,2.5
		c-1.8,0.3-3.6-0.9-3.9-2.7c-0.3-1.8,0.9-3.6,2.7-3.9c0.1,0,12.1-2.3,22.6-9.4l0.4-0.3l0.4-0.1c1.5-0.5,6.2-2,8.1,1.2
		c1.8,3-1.3,5.9-2.4,7l-0.1-0.1c-3.5,4.4-14.5,11.7-23.3,15.7C430.3,258.2,429.8,258.3,429.3,258.3z"/>
	<path class="st4" d="M340.5,327.8c-11.9,0-15.7-7.6-16.3-8.9c-2.6-5.5-2.8-10.3-0.6-14.1c3.4-6,11.2-6.7,12.1-6.8
		c1.8-0.1,3.5,1.2,3.6,3.1c0.1,1.9-1.2,3.5-3.1,3.6l0,0c-1.4,0.1-5.4,1-6.8,3.5c-1,1.8-0.7,4.4,0.9,7.8l0.1,0.2
		c0.1,0.2,3,6.6,15.1,4.2c0.6-0.1,66.8-14.9,104-41.1c1.5-1.1,3.6-0.7,4.7,0.8c1.1,1.5,0.7,3.6-0.8,4.7
		c-38.3,27-103.7,41.5-106.5,42.1C344.6,327.6,342.5,327.8,340.5,327.8z"/>
	<path class="st4" d="M373.5,350.7c-1.9,0-3.4-1.5-3.4-3.3c0-1.9,1.5-3.4,3.3-3.4c13.2-0.2,23.1-7.1,23.2-7.1c3.8-3,3.8-8,3.8-8
		c0-1.7-0.4-2.9-1.3-3.8c-1.8-1.7-5.3-1.9-6.5-1.9l-28.7,0c-1.9,0-3.4-1.5-3.4-3.4c0-1.9,1.5-3.4,3.4-3.4h0l28.4,0
		c1.2-0.1,7.4-0.2,11.5,3.7c2.3,2.2,3.5,5.2,3.4,8.7c0,0.2,0.1,8.3-6.5,13.5C400.1,342.6,388.8,350.5,373.5,350.7
		C373.6,350.7,373.5,350.7,373.5,350.7z"/>
	<path class="st4" d="M251.7,378.1c0,0,7.1-19.2-14.7-38.3c0,0,20.5,8.2,22.8,38.3H251.7z"/>
	<path class="st4" d="M263.7,376.2c0,0,4.3-11.8-5.3-28.9c0,0,10.5,11.7,11.7,27.6L263.7,376.2z"/>
	<path class="st4" d="M278.7,330.6c0,0,8.3,15.6,42.3,13.9l-25.6,4.8C295.4,349.3,281.6,338.7,278.7,330.6z"/>
	<path class="st4" d="M383.4,320.6c0,0-3.9,8.7-1.9,14.6c0,0,1.1,3.9,5.6,3.4c0,0,3.6,0,9.8-3.5c0,0-7.1,3.2-11.8,1.2
		c0,0-2.5-0.8-2-5.9c0,0,0-5.6,5.8-11L383.4,320.6z"/>
	<path class="st4" d="M348.6,299.3c0,0,7.4,8.6,4.5,15.7c0,0-1.8,3.6-6.8,4.2c0,0-8.3,2-13.7-2.8c0,0,6.9,3.8,15.7,0.7
		c0,0,3.7-1.3,2.8-5.6c0,0-1.1-9.1-6.7-13.1L348.6,299.3z"/>
	<path class="st4" d="M257.1,279.5c0,0,2.7-6.6,13.2-7.6c0,0,18.9-1,37.5-1l14.8,5.5c0,0-26.4,0.7-46.7,0.4c0,0-15.5-1.4-22.9,10.8
		L257.1,279.5z"/>
	<path class="st4" d="M319.9,251.9l2-1.4c0,0,8.8,7.2,6.7,14.3c0,0-0.9,3.2-6,3.6c0,0-4.4,0.7-7-0.1c0,0,12.2,0.4,11.5-5.3
		C327.1,263,326.9,256.9,319.9,251.9z"/>
	<path class="st4" d="M397.8,255.1c0,0,3.9,6,10.4,5.6c0,0,8.7-0.3,12.8-7.7c0,0-3,7.2-11.6,9.2c0,0-7.3,2-14.1-5.7L397.8,255.1z"/>
	<path class="st4" d="M420.9,301.4c0,0,2.8,10.7,11.1,18.1c0,0-7.6-10.5-6.5-20.4L420.9,301.4z"/>
	<path class="st4" d="M426.5,299.1c0,0,7,5.4,11.2,16.4c0,0-2.1-10.4-8.1-20l-3.9,1.6L426.5,299.1z"/>
	<path class="st4" d="M509.3,227.9c0,0-18.8-9.8-30.3,6.6c0,0,14.3-14.9,31.2,2L509.3,227.9z"/>
	<path class="st4" d="M368.2,266c0,0,3.5,9.8,3.2,20.5c0,0-3.4-15.7-9-19.5L368.2,266z"/>
	<path class="st4" d="M356.9,268.6c0,0,1.7,7.1,7.1,13.6c0,0-5.3-11.5-2.9-16.7L356.9,268.6z"/>
	<path class="st4" d="M509.5,209c0,0-8.1-18.5-37.8-7.6c0,0,9.1-11.8,25.8-7.2l13.5,9.1L509.5,209z"/>
	<path class="st4" d="M386.1,207.7c0,0,1.7,4.4,6.4,4.9c0,0,8.8,0.6,13.7-5c0,0-6.8,5-13.5,3.3c0,0-2.6-0.2-4.9-5.5L386.1,207.7z"/>
	<path class="st4" d="M385.3,227.2c0,0,8.8,7.1,11.7,20.1c0,0-0.8-13.8-7.1-23.6L385.3,227.2z"/>
	<path class="st4" d="M391.1,224.2c0,0,10.7,5,14,19.5c0,0-0.7-14.3-8.9-22.4L391.1,224.2z"/>
	<path class="st4" d="M448.7,280.1c0,0,30.1-19.2,32.9-27.7c0,0-6.3,19.5-31.1,34.6L448.7,280.1z"/>
	<path class="st4" d="M412.7,217.6c0,0,23-11.2,43.2-15.7c0,0-21.2,2-48.1,10.3L412.7,217.6z"/>
</g>
</svg>
