<?xml version="1.0" encoding="utf-8"?>
<!-- Generator: Adobe Illustrator 20.1.0, SVG Export Plug-In . SVG Version: 6.00 Build 0)  -->
<svg version="1.1" id="Layer_1" xmlns="http://www.w3.org/2000/svg" xmlns:xlink="http://www.w3.org/1999/xlink" x="0px" y="0px"
	 viewBox="0 0 703 558" style="enable-background:new 0 0 703 558;" xml:space="preserve">
<style type="text/css">
	.st0{clip-path:url(#SVGID_2_);}
	.st1{clip-path:url(#SVGID_4_);fill:#FFFFFF;}
	.st2{fill:#E6E7E8;}
	.st3{fill:#3B3B3C;}
	.st4{fill:#333132;}
</style>
<g>
	<defs>
		<polygon id="SVGID_1_" points="545,245 247.6,245 384.2,108.3 349.5,73.9 154,269.4 349.5,464.9 384,430.4 247.6,293.8 545,293.8 
					"/>
	</defs>
	<use xlink:href="#SVGID_1_"  style="overflow:visible;fill-rule:evenodd;clip-rule:evenodd;fill:#FFFFFF;"/>
	<clipPath id="SVGID_2_">
		<use xlink:href="#SVGID_1_"  style="overflow:visible;"/>
	</clipPath>
	<g class="st0">
		<defs>
			<rect id="SVGID_3_" x="-334.8" y="-1074.7" width="8797.5" height="19501.1"/>
		</defs>
		<use xlink:href="#SVGID_3_"  style="overflow:visible;fill:#FFFFFF;"/>
		<clipPath id="SVGID_4_">
			<use xlink:href="#SVGID_3_"  style="overflow:visible;"/>
		</clipPath>
		<rect x="31.8" y="-48.3" class="st1" width="635.4" height="635.4"/>
	</g>
</g>
<g>
	<circle class="st2" cx="350.4" cy="286" r="207.2"/>
	<path class="st3" d="M350.4,497.8c-116.8,0-211.8-95-211.8-211.8s95-211.8,211.8-211.8s211.8,95,211.8,211.8
		S467.2,497.8,350.4,497.8z M350.4,83.4c-111.7,0-202.6,90.9-202.6,202.6s90.9,202.6,202.6,202.6S553,397.7,553,286
		S462.1,83.4,350.4,83.4z"/>
</g>
<g id="xh6fBF.tif">
	<g>
		<path class="st4" d="M237.5,379.6c0.7-1.5,1.3-3,2-4.6c4.6-11.1,9.1-22.1,13.8-33.2c1.8-4.2,3.9-8.3,5.9-12.5
			c11.1-23.1,22.2-46.1,32.8-69.3c5.8-12.6,10.4-25.7,14.3-38.9c0.6-1.9,1.1-3.7,1.6-5.6c0.1-0.3,0.3-0.6,0.5-0.7
			c7.2-3.7,13.4-8.7,19.1-14.4c4.3-4.2,7.9-9,11.6-13.7c5-6.3,10-12.6,15-18.9c0.2-0.2,0.4-0.5,0.7-0.5c2.7-0.9,5-2.3,7.1-4
			c3.7-2.9,7.3-5.9,11-8.9c0.5-0.4,0.9-0.6,1.5-0.6c1.6-0.1,3.1-0.2,4.7-0.3c0.3,0,0.5-0.1,0.8-0.1c2.5,0,4.9,0,7.4,0
			c0.3,0,0.6,0.1,0.9,0.1c4.4,0.1,8.7,0.6,13.1,1.3c11,1.8,21.3,5.6,31.1,10.8c10.5,5.6,20.1,12.5,28.9,20.5
			c0.2,0.1,0.3,0.3,0.4,0.5c0.7,2,1.3,4,1.4,6.1c0.1,2.5-0.6,4.5-3,5.7c-3.2,1.6-6.2,3.6-9,5.7c-1.8,1.3-3.5,2.7-5.4,3.8
			c-4.5,2.9-9.3,3.4-14.3,1.2c-2.5-1.1-4.8-2.4-7.2-3.6c-2.3-1.1-4.6-2.2-6.9-3.3c-1.3-0.6-2.6-0.5-3.9,0.1
			c-1.5,0.6-2.7,1.5-3.8,2.6c-0.3,0.3-0.6,0.4-1,0.4c-4.3,0-8.5,0-12.8,0c-0.9,0-1.4,0.3-2,1c-2.4,3.3-4.3,6.8-5.9,10.5
			c-2.1,4.9-4.1,10-6.2,14.9c-2.1,5-4.2,10.1-7.1,14.7c-0.5,0.7-0.5,1.4-0.4,2.2c0.8,5.4,2.7,10.5,5.4,15.2
			c3.5,6.2,7.5,12.1,11.5,18.1c1.2,1.7,2.6,2.7,4.5,3.2c0.4,0.1,0.8,0.2,1.1,0.3c2.9,0.8,5.8,0.6,8.4-0.9c2.2-1.2,4.3-2.5,6.4-3.8
			c2.9-1.8,5.8-3.8,8.7-5.6c2-1.2,4.2-2,6.5-2.2c0.7-0.1,1.1-0.3,1.6-0.7c4.6-3.4,9.1-6.8,13.7-10.1c2.3-1.6,4.6-3.3,7.2-4.3
			c5.4-2.1,11-2.5,16.7-1.4c1.3,0.2,2.6,0.4,3.7,1.1c2.8,1.7,5.5,3.6,8.2,5.5c1.7,1.2,3.1,2.8,3.9,4.8c0.3,0.8,0.5,1.6,0.7,2.4
			c0,0.5,0,0.9,0,1.4c-0.1,0.5-0.2,1.1-0.3,1.6c-0.7,3.2-2.6,5.7-4.8,7.9c-2.3,2.3-5,3.9-7.7,5.7c-3.1,2.1-6,4.4-9,6.6
			c-0.7,0.5-1.2,1.3-1.5,2.1c-2.4,5.9-6.4,10.6-11.4,14.4c-4.6,3.5-9.7,6-15.1,8.1c-6.2,2.3-12.3,4.7-18.5,6.9
			c-2.1,0.8-4.3,1.4-6.6,2c-2.8,0.8-5.1,2.4-7.2,4.2c-4.1,3.4-7.6,7.5-11,11.5c-3.7,4.5-7.7,8.8-12.3,12.4c-2.5,2-5.2,3.8-8.3,4.8
			c-1.7,0.6-3.6,0.8-5.4,1.2c-4.3,0.9-8.7,1.8-13,2.8c-3,0.7-5.6,2.2-8,4.1c-4,3.1-6.8,7.1-9.2,11.5c-4,7.3-7.9,14.6-12,21.9
			c-2,3.6-4.6,6.7-8,9c-2.1,1.5-4.5,2.3-7,3c-7.3,2-14.8,3.8-22.2,5.3c-4.2,0.8-8.3,1.5-12.6,1.3c-1.3-0.1-2.6-0.2-3.9-0.3
			c-0.3,0-0.7-0.3-1-0.5c-6.9-6.7-13-14.2-18.4-22.1c-3.7-5.4-7.1-10.9-10.2-16.6c-0.2-0.3-0.4-0.6-0.5-0.8
			C237.5,379.8,237.5,379.7,237.5,379.6z M378.8,198.2c0.6,0.4,1.2,0.8,1.8,1.1c4,2.3,8.5,3.1,13.1,3.3c5.4,0.1,10.7-0.7,16-1.3
			c1.4-0.1,2.5-0.6,3.5-1.4c1.3-1,2.5-2,3.7-3.2c2.3-2.3,2.6-4.8,1.1-7.7c-0.2-0.3-0.4-0.4-0.7-0.4c-0.9,0-1.7,0-2.6-0.1
			c-3.1-0.3-6.1-1.3-9-2.5c-3-1.2-6-2.4-9-3.5c-2.2-0.8-4.4-1.3-6.8-0.9c-1.1,0.2-2.3,0.5-3.4,0.7c-0.5,0.1-0.9,0.3-1.1,0.8
			c-0.7,1.2-1.6,2.2-2.7,2.9c-0.8,0.5-1.7,0.5-2.4-0.1c-0.4-0.4-0.8-0.4-1.3-0.3c-5.2,0.7-10.4,1.5-15.5,2.2c-2.5,0.3-5,0.8-7.4,1.9
			c-3.1,1.5-5.8,3.3-7.6,6.3c-0.7,1.1-1.5,2.1-2.3,3.2c-1.1,1.4-2.4,1.5-3.8,0.4c-0.2-0.1-0.3-0.3-0.5-0.5c-0.1,0.2-0.2,0.3-0.3,0.4
			c-4.4,7.5-9.6,14.5-15.3,21c-7.1,8-14.2,15.9-21.4,23.7c-2.4,2.6-4.8,5.2-5.8,8.7c-0.1,0.3-0.2,0.5-0.3,0.7
			c-9.1,21.3-18.2,42.5-27.8,63.5c-3.7,8.2-7.5,16.3-10.7,24.7c-1,2.6-2,5.2-2.4,7.9c-0.2,1.2-0.1,2.4-0.3,3.5
			c-0.5,3.5-2.4,5.8-5.9,6.8c-0.3,0.1-0.5,0.4-0.6,0.7c-2.9,6.6-5.7,13.2-8.5,19.9c-0.2,0.5-0.2,1.1-0.2,1.6
			c0.2,1.9,1.2,3.5,2.6,4.8c1,0.9,2,1.8,2.8,2.9c3.1,3.9,6.1,7.8,9.1,11.8c2.4,3.2,4.8,6.4,7.8,9c2,1.7,4.1,3.2,6.7,3.8
			c3.6,0.9,7,0,10.3-1.6c0.1-0.1,0.2-0.4,0.2-0.6c0.1-5.2,1-10.3,3-15.2c2.6-6.4,5.4-12.8,8.2-19.2c0.1-0.2,0.2-0.4,0.3-0.7
			c-3.9-0.5-7.8-0.9-11.6-1.4c-0.6-0.1-1-0.2-1.5-0.6c-0.6-0.6-1.4-1.2-2-1.8c-0.9-0.9-1.9-1.7-2.7-2.7c-0.8-0.9-0.8-2.1-0.1-3
			c4.6,3,9.5,5,15.1,3.9c-0.1-0.1-0.2-0.1-0.3-0.2c-2-0.6-4.1-1.1-6.1-1.7c-2.3-0.7-4-2.2-5.4-4.1c-0.6-0.8-0.6-1.7-0.1-2.6
			c0.5-0.9,0.6-0.9,1.4-0.4c0.1,0.1,0.2,0.1,0.3,0.1c4.1,2.2,8.6,3,13.2,3.2c3.8,0.2,7.7,0.1,11.6,0.2c0.2,0,0.5,0,0.7-0.1
			c2.1-0.3,4.2-0.6,6.2-0.9c0.2,0,0.4-0.1,0.6-0.2c9.3-6.4,16.5-14.5,21.2-24.8c3.7-8.1,5.9-16.8,7.2-25.6c0.7-4.4,1.1-8.8,1.4-13.2
			c0.3-4.7,0.4-9.4,0.3-14.1c-0.1-5.1-0.5-10.1-0.8-15.2c0-0.8,0-1.7,0-2.6c-0.4,0.1-0.7,0.2-0.9,0.3c-3.5,1.3-7.1,1.5-10.7,0.5
			c-3.3-0.9-6.2-2.5-9.2-4.2c0,0,0-0.1,0-0.1c3,0,5.9,0,8.9,0c3.3,0,6.5-0.1,9.7-0.6c2.7-0.5,5.2-1.2,7.6-2.6
			c0.3-0.2,0.6-0.5,0.7-0.9c3.6-9.8,7.1-19.6,10.6-29.4c0.1-0.2,0.1-0.4,0.2-0.7c-1.1,0.1-2.1,0.2-3.1,0.4c-0.3,0-0.5,0.2-0.8,0.4
			c-0.4,0.2-0.7,0.6-1.1,0.8c-1.4,0.6-2.9,1-4.5,1.1c-1.5,0.1-3,0.1-4.3-0.6c-0.6-0.3-1.1-0.8-1.7-1.2c1.4-0.2,2.7-0.3,4-0.5
			c3.2-0.4,6.3-1.3,8.6-3.8c2.2-2.3,3.7-5.1,4.5-8.2c0.4-1.3,0.4-2.7,0.1-4.1c-0.6-2.2-2.1-3.7-3.9-4.9c-0.3-0.2-0.6-0.4-1.1-0.7
			c0.3,0,0.5,0,0.6,0.1c2.7,0.4,5.5,0.9,8.2,1.3c0.2,0,0.5,0,0.7-0.1c3.5-2,7-3.9,10.4-5.9c1.9-1.1,2.9-2.9,3.3-5.1
			C378.7,200,378.7,199.1,378.8,198.2z M371.1,252.7c-0.2,0.2-0.4,0.3-0.6,0.5c-4.6,4-9.3,7.7-14.4,11c-3.1,2-6.4,3.8-9.6,5.8
			c-0.2,0.1-0.5,0.2-0.5,0.6c0.3,2.7,0.5,5.3,0.8,8c0.4,4.2,0.8,8.3,1.2,12.5c0.2,2.4,0.4,4.9,0.9,7.3c0.4,2,0.7,4.1,0.9,6.1
			c0.5,7.3-0.2,14.4-2.2,21.5c-2.9,10.4-7.2,20.1-13,29.2c-0.6,1-1.1,2.1-1.5,3.3c-0.4,1.3-0.4,2.6,0.3,3.9c0.1,0,0.2-0.1,0.3-0.1
			c13.1-4.1,26.3-8.2,39.4-12.3c0.3-0.1,0.5-0.3,0.7-0.5c8-7.8,15.9-15.6,23.8-23.4c0.2-0.2,0.3-0.5,0.3-0.7
			c-1.2-7.8-2.4-15.5-3.7-23.3c-0.5-3-1.3-5.9-2.7-8.6c-1.7-3.4-4.1-6.2-7.1-8.4c-0.2-0.1-0.4-0.5-0.4-0.7c0.4-2.5-0.5-4.5-2.5-6
			c-0.9-0.7-1.9-1.2-2.8-1.7c-1.9-1-3.7-2-5-3.8c-0.5-0.7-1.1-1.5-1.2-2.4c-0.4-3.5-0.7-7-1-10.5
			C371.4,257.6,371.3,255.2,371.1,252.7z M403.6,325.2c0.1-0.1,0.2-0.1,0.3-0.1c9.3-4.5,18.6-9.1,28-13.5c4.1-1.9,7.9-4.3,12.4-5.6
			c2.7-0.8,4.7-2.8,6.6-4.8c2.9-3.4,5.8-6.8,8.7-10.3c0.1-0.1,0.2-0.2,0.2-0.4c0.7-1.9,2-3.3,3.5-4.6c2.2-1.9,4.6-3.3,7.2-4.7
			c2.5-1.4,5-2.8,6.9-5c1.6-1.8,2.3-3.8,1.5-6.1c-0.5-1.4-1.2-2.8-1.8-4.1c-3.4-3.3-7.3-5.5-12-6.1c-5-0.7-9.8,0-14.4,1.8
			c-7.2,2.8-13.5,7.1-19.2,12.2c-0.2,0.1-0.3,0.5-0.2,0.7c0.2,2.3,0.5,4.6,0.8,6.9c0.9,6.4,2.2,12.7,4.3,18.8
			c0.2,0.7,0.5,1.4,0.7,2.1c-0.1-0.1-0.2-0.1-0.2-0.1c-0.1-0.1-0.2-0.2-0.3-0.4c-2.2-2.4-3.8-5.1-5-8.1c-1.9-4.8-3.2-9.8-4.6-14.8
			c-0.1-0.3-0.2-0.6-0.3-0.8c-2.2,0.4-4.2,1.2-6,2.4c-0.4,0.2-0.8,0.4-1.1,0.7c-2.3,1.3-4.6,2.5-6.9,3.8c-2,1.1-3.4,2.7-3.8,4.9
			c-0.2,1-0.1,2-0.2,2.9c-2.6-4.1-6.5-4.8-11-4.2c0,0.2,0,0.3,0,0.5c0,5.3,0.9,10.5,2.8,15.5c0.1,0.3,0.2,0.6,0.2,0.9
			c0.1,1.7,0,3.4,0.1,5.1c0.2,3.2,0.5,6.4,0.9,9.6C401.9,322,402.5,323.7,403.6,325.2z M420.7,200.6c1.7,0.8,3.5,1.7,5.2,2.5
			c2.5,1.2,5,2.5,7.7,3c3.4,0.6,6.7,0.9,9.8-0.9c1.7-1,3.4-2.1,5-3.2c1.5-1,2-2.5,1.9-4.2c0-0.6-0.2-0.8-0.8-0.8
			c-2.3-0.2-4.6-0.4-6.8-0.6c-1.5-0.1-2.9-0.7-3.8-1.9c-0.6-0.8-1.1-1.7-1.6-2.5c-0.4-0.7-0.6-1.5-1-2.2c-1.4-2.8-3.7-4.8-6.4-6.4
			c-4.1-2.3-8.2-4.6-12.3-6.9c-0.7-0.4-1.3-0.8-1.9-1.2c-1.6-1-3.3-0.8-4.9-0.2c-1.3,0.5-2.5,1.1-3.8,1.6c-1,0.4-2.1,0.7-3.2,1
			c0-0.1-0.1-0.1-0.1-0.2c0.5-1.9,1-3.9,1.5-5.9c-0.1,0-0.2,0-0.3,0c-3.3-0.2-6.6-0.2-9.9-0.5c-6.8-0.5-13.6-1.3-20.4-1.8
			c-4.5-0.3-8.9-0.5-13.4-0.7c-0.3,0-0.7,0.1-0.9,0.3c-2,1.9-4,3.7-5.9,5.7c-5.2,5.6-10,11.5-14.7,17.6
			c-5.5,7.1-10.9,14.4-16.8,21.2c-3.3,3.9-6.7,7.7-10.6,11c-0.2,0.2-0.3,0.4-0.4,0.6c-2.2,4.4-4.4,8.8-6.6,13.2
			c-0.1,0.1-0.1,0.3-0.2,0.4c0.4-0.5,0.8-1,1.1-1.6c0.8-1.8,2.2-3,3.7-4.2c5.5-4.3,10.1-9.5,14.3-15c7.2-9.6,14.4-19.2,21.6-28.8
			c0.2-0.3,0.6-0.5,0.9-0.6c9.5-2.9,19-5.8,28.4-8.6c2-0.6,3.9-1.3,6.1-1.1c4,0.4,8.1,0.6,12.2,0.8c4.8,0.3,9.6,0.6,14.4,1
			c2.8,0.2,5.6,0.4,8.4,0.6c0.4,0,0.6,0.2,0.8,0.5c1.2,2.3,2.3,4.6,3,7.1C421.1,192.5,421.6,196.5,420.7,200.6z M367.2,164.5
			c0.9,0.1,1.7,0.1,2.6,0.2c3.4,0.3,6.8,0.5,10.2,0.8c4,0.3,8,0.6,12,0.9c3.6,0.3,7.1,0.5,10.7,0.8c1,0.1,2.1,0,3,0.4
			c5.5,2.5,10.9,5,16.4,7.6c5.8,2.8,11.6,5.7,17.6,8.1c1,0.4,2,0.7,3.1,1.1c-0.5-1.2-1-2.3-1.5-3.4c-0.4-0.8-0.6-1.4,0.3-2
			c0.2-0.2,0.4-0.5,0.6-0.7c0.9-1.3,0.8-2.6-0.2-3.8c-0.5-0.6-1.1-1-1.7-1.4c-1.9-1.1-3.8-2.1-5.7-3.2c-0.4-0.2-0.8-0.5-1.2-0.6
			c-0.8-0.2-1.6-0.2-2.4-0.3c-1.7-0.2-3.3-0.4-5.1-0.6c0.3-0.9,0.7-1.7,1-2.6c-2.3-0.8-4.4-1.8-6.7-2.5c-3.5-1.1-7.2-2-10.7-3.2
			c-1.7-0.5-3.3-0.8-5-0.9c-0.6,0-1.2-0.1-1.8-0.2c-4.2-0.5-8.4-1-12.6-1.5c-3.2-0.3-6.4-0.3-9.5,0.2c-2.9,0.4-5.5,1.4-7.7,3.5
			c-0.6,0.6-1.1,1.3-1.8,1.6c-0.7,0.3-1.6,0.1-2.5,0.1C367.3,163,367,163.3,367.2,164.5z M312.5,374.8c-0.1,0-0.1-0.1-0.2-0.1
			c-3.4,0.3-6.8,0.6-10.2,0.9c-0.4,0-0.8,0.2-1,0.5c-4.2,3.7-7.2,8.1-9.4,13.2c-2.7,6.3-4.5,12.8-5.9,19.4c-0.3,1.3-0.5,2.6-0.8,3.9
			c0.1,0.1,0.1,0.1,0.1,0.1c0.2,0.1,0.5,0.1,0.7,0.2c2.3,0.4,4.6,0.8,6.9-0.1c2.2-0.9,4.4-1.9,6.5-2.9c0.2-0.1,0.3-0.4,0.3-0.6
			c0.2-1.3,0.2-2.6,0.5-3.9c0.7-4.1,2.1-8,3.8-11.8c2.7-6.1,5.6-12.1,8.4-18.2C312.3,375.3,312.4,375.1,312.5,374.8z M360.6,256.1
			c0.2-0.1,0.3-0.1,0.3-0.2c5.2-3.5,9.3-8,12-13.7c2.8-5.8,4.7-12,6-18.3c0.2-1.1,0.4-2.1,0.6-3.3c-2,0.3-3.5-0.5-4.9-1.6
			c-1.1-0.8-2.2-1.6-3.3-2.4c-0.4-0.2-0.8-0.4-1.3-0.6c-0.1,0.3-0.1,0.4-0.1,0.6c-0.4,3.1-0.9,6.2-1.3,9.3c0,0.3-0.2,0.7-0.3,1
			c-0.9,1.5-2,2.9-2.9,4.4c-2.1,3.7-3.4,7.7-4.8,11.7c-1.6,4.9-3.4,9.8-5.9,14.3c0,0.1,0,0.1,0,0.2c0,0,0.1,0.1,0.1,0.1
			c0.6-0.6,1.3-1.1,1.9-1.8c1.8-2,2.9-4.4,3.9-6.8c1-2.2,2-4.3,3.1-6.5c0.3-0.7,1-1.2,1.5-1.8c0.1,0,0.1,0.1,0.2,0.1
			c-0.1,0.2-0.2,0.5-0.3,0.7c-1.3,3.1-2.7,6.2-4,9.4C360.5,252.5,360.2,254.2,360.6,256.1z M373.7,214.1c2.5,1.1,4.8,2.2,7.5,2.5
			c1.1,0.2,2.1-0.1,2.8-0.8c0.7-0.7,1.5-1.4,1.9-2.2c1.3-2.4,2.5-4.9,3.8-7.4c-0.3-0.1-0.5-0.2-0.7-0.3c-2-0.7-4-0.4-5.8,0.5
			c-0.8,0.4-1.7,1-2.4,1.6C378.4,209.9,376.1,212,373.7,214.1z M321.3,371.2c-0.1,0-0.1-0.1-0.2-0.1c0,0.1-0.1,0.2-0.1,0.2
			c-4.8,5.3-8.8,11.1-12,17.4c-1.6,3.3-2.8,6.7-3.3,10.3c-0.1,0.8-0.1,1.7-0.2,2.5c0.1,0,0.1,0,0.2,0
			C310.9,391.4,316.1,381.3,321.3,371.2z M446.7,180.6c-1.7,2.3-1.2,4,0.2,5.2c0.5,0.4,0.9,0.9,1.4,1.3c1.8,1.5,3.6,2.9,6,3.4
			c1.5,0.3,2.5-0.1,3.2-1.5c0.1-0.3,0.2-0.5-0.1-0.8c-1.5-1.7-3.1-3.3-4.9-4.6C450.7,182.3,448.8,181.2,446.7,180.6z M312.6,404.2
			c0.1,0,0.1,0,0.2,0.1c5.2-12.8,12-24.7,20.8-35.5c-0.7-0.4-1.3-0.7-2-1c-0.1,0.2-0.2,0.3-0.3,0.5c-3.6,6-7.3,11.9-10.9,17.9
			c-2.6,4.3-5,8.7-6.5,13.5C313.4,401.1,313,402.7,312.6,404.2z M447.2,192c-2.9-1.5-5.7-3-8.5-4.5c-1.1,1-1.1,1.9,0,2.7
			c1.2,0.9,2.4,1.8,3.6,2.7c0.3,0.2,0.8,0.4,1.2,0.4C444.9,193.5,446,192.9,447.2,192z M459.3,192.6c-1.4,0-2.6,0.1-3.8,0.6
			c-1.1,0.5-1.6,1.3-1.6,2.6c0,1.3,0.1,1.3,1.4,1.3c0.2,0,0.4,0,0.6,0c0.2,0,0.4-0.1,0.5-0.2C457.3,195.5,458.2,194.1,459.3,192.6z
			 M378.7,272.2c0.1,0,0.1-0.1,0.2-0.1c-1.6-3.6-3.1-7.2-4.7-10.8c-0.1,0-0.1,0-0.2,0.1C374,265.7,376.3,269,378.7,272.2z
			 M365.1,226.6c0.6-2.3,1.3-4.4,1.9-6.6c-1,1.3-1.8,2.8-2.2,4.4C364.6,225.1,364.5,225.8,365.1,226.6z"/>
		<path class="st4" d="M369.6,287.7c-5.2,0.9-10.2,2.6-14.8,5.3C359.3,289.8,363.8,287,369.6,287.7z"/>
	</g>
</g>
</svg>
