<?xml version="1.0" encoding="utf-8"?>
<!-- Generator: Adobe Illustrator 20.1.0, SVG Export Plug-In . SVG Version: 6.00 Build 0)  -->
<svg version="1.1" id="Layer_1" xmlns="http://www.w3.org/2000/svg" xmlns:xlink="http://www.w3.org/1999/xlink" x="0px" y="0px"
	 viewBox="0 0 703 558" style="enable-background:new 0 0 703 558;" xml:space="preserve">
<style type="text/css">
	.st0{clip-path:url(#SVGID_2_);}
	.st1{clip-path:url(#SVGID_4_);fill:#FFFFFF;}
	.st2{fill:#E6E7E8;}
	.st3{fill:#3B3B3C;}
	.st4{fill:#333132;}
</style>
<g>
	<defs>
		<polygon id="SVGID_1_" points="545,245 247.6,245 384.2,108.3 349.5,73.9 154,269.4 349.5,464.9 384,430.4 247.6,293.8 545,293.8 
					"/>
	</defs>
	<use xlink:href="#SVGID_1_"  style="overflow:visible;fill-rule:evenodd;clip-rule:evenodd;fill:#FFFFFF;"/>
	<clipPath id="SVGID_2_">
		<use xlink:href="#SVGID_1_"  style="overflow:visible;"/>
	</clipPath>
	<g class="st0">
		<defs>
			<rect id="SVGID_3_" x="-334.8" y="-1074.7" width="8797.5" height="19501.1"/>
		</defs>
		<use xlink:href="#SVGID_3_"  style="overflow:visible;fill:#FFFFFF;"/>
		<clipPath id="SVGID_4_">
			<use xlink:href="#SVGID_3_"  style="overflow:visible;"/>
		</clipPath>
		<rect x="31.8" y="-48.3" class="st1" width="635.4" height="635.4"/>
	</g>
</g>
<g>
	<circle class="st2" cx="350.4" cy="286" r="207.2"/>
	<path class="st3" d="M350.4,497.8c-116.8,0-211.8-95-211.8-211.8s95-211.8,211.8-211.8s211.8,95,211.8,211.8
		S467.2,497.8,350.4,497.8z M350.4,83.4c-111.7,0-202.6,90.9-202.6,202.6s90.9,202.6,202.6,202.6S553,397.7,553,286
		S462.1,83.4,350.4,83.4z"/>
</g>
<g>
	<path class="st4" d="M416.1,400.6c-0.3,0-0.6,0-1,0c0,0,0,0,0,0c-5.2,0-15.5-4.2-16.1-20c-0.1-0.5-0.2-2.1,0-4.4
		c-10.8-1-18.4-16.1-19.3-17.9c-3-5.1-10-17.5-10-17.5c-10.5-18.8-29.4-46.6-29.6-46.9c-14.3-23.1-39.1-12.5-40.2-12
		c-14.1,5.3-32.3,25.6-32.5,25.8c-1.1,1.2-10.6,11.2-19.7,9.4c-4.6-0.9-8-4.5-10.1-10.5c-0.6-2-11.9-44.1-3.5-88.6
		c0.2-1.7,2.2-15.5,13.4-24.8c1-1,28.9-27.1,51.7-29.1c1.1-0.2,34.8-5.5,86,9.4c0.1,0,20.9,5.4,49.1,15.1c2.3,0.2,13,1.1,21.6,3.8
		c0.9,0.3,15.7,6.2,15,25.3l0,84.9c0,0.6-0.7,11.1-5.2,19.8c-0.3,0.5-19.5,34.5-28,51.6l0,0c0,0-3.6,8.2-6.3,15.1
		C430.1,393.1,425.3,400.6,416.1,400.6z M425.1,296.1c1.2,0,2.4,0.6,3,1.8c4.3,7.8,3.6,11.4,2.8,12.8c-9.7,16.9-12.5,34.1-12.5,34.2
		c-0.7,5.6-3.6,9.7-3.7,9.9c-10.3,13.2-9,25-8.9,25.1l0,0.3c0.4,13,8.6,13.5,9.6,13.6c7.2,0.3,9.5-6.8,9.6-7.1l0.1-0.3
		c2.8-7,6.5-15.4,6.5-15.5c8.7-17.4,28-51.6,28.2-52c3.8-7.3,4.3-16.7,4.4-16.8l0-84.8c0.5-14.2-10-18.5-10.5-18.7
		c-8.5-2.6-20.2-3.4-20.3-3.4l-0.9-0.2c-28.2-9.7-48.9-15-49.1-15.1c-49.7-14.5-83-9.3-83.4-9.2c-20.7,1.9-47.7,27.2-48,27.5
		c-9.7,8.1-11.2,20.5-11.2,20.6c-8.2,43.3,3.2,85.3,3.3,85.7c1.2,3.4,2.9,5.5,5,5.9c4.6,0.9,11.4-5.1,13.4-7.3
		c0.8-0.9,19.5-21.7,35-27.6c0.1-0.1,31-13.5,48.4,14.6c0.1,0.2,19.2,28.3,29.8,47.3c0,0,7,12.3,10.1,17.6
		c1.9,3.9,8.3,14.2,14.3,14.4c1.3-5.3,3.9-11.9,9.2-18.7l0,0c0,0,1.9-2.9,2.4-6.7c0.1-0.9,3-18.4,13.1-36.2c0-0.6-0.3-2.6-2.6-6.7
		c-0.9-1.6-0.3-3.7,1.3-4.6C424,296.3,424.6,296.1,425.1,296.1z M375.6,337.4L375.6,337.4L375.6,337.4z"/>
	<path class="st4" d="M424.4,416c-0.9,0-1.8-0.1-2.7-0.4c-0.4-0.1-4.7-1.5-7.2-6c-2-3.6-2.2-8-0.7-13.2c0.5-1.8,2.4-2.8,4.2-2.3
		c1.8,0.5,2.8,2.4,2.3,4.2c-1,3.3-1,6,0.1,8c1.1,2,3.1,2.7,3.2,2.7c3.5,1.1,7.8-5.6,9.1-8.8l0.1-0.3c3.6-6.7,11.2-19.9,11.3-20
		c18-28,31.5-56.2,31.6-56.5c3.4-8.7,2.8-20.1,2.8-20.2c0-5.2-1.3-12.7-1.4-12.8l0-0.4c-1.6-32.9-3.2-73.5-3.4-76.7
		c-0.6-3.6-1.8-5.9-3.7-7.1c-2.4-1.4-5.3-0.5-5.3-0.5c-1.8,0.6-3.7-0.3-4.3-2.1c-0.6-1.8,0.3-3.7,2.1-4.3c0.6-0.2,6-1.9,11.1,1.1
		c3.7,2.2,6,6.3,6.9,12l0,0.4c0,0.4,1.7,42.6,3.4,76.6c0.2,1.4,1.4,8.4,1.4,13.6c0,0.3,0.7,12.8-3.3,23.1
		c-0.2,0.5-13.9,29.1-32,57.3l0,0c0,0-7.4,12.9-11,19.6C436.6,408.3,431.3,416,424.4,416z"/>
	<path class="st4" d="M414.1,351.7c-0.2,0-0.3,0-0.5,0c-1.9-0.3-3.1-2-2.9-3.8c0-0.1,1.8-13.2-4-23.8v0c0,0-5.9-9-13.6-18.9
		c-0.7-0.8-7.3-9.1-4.8-16c0.8-2.4,3.1-5.5,8.9-6.7l1.6-0.3l1.3,1.1c0.1,0.1,8.1,6.5,22.5,6c1.9-0.2,3.4,1.4,3.5,3.3
		c0.1,1.9-1.4,3.4-3.3,3.5c-13.5,0.5-22.2-4.3-25.6-6.5c-1.1,0.4-2.2,1-2.5,1.9c-0.9,2.6,2.2,7.6,3.7,9.5
		c8,10.3,13.9,19.3,14.1,19.7c7,12.9,5,27.6,4.9,28.2C417.3,350.5,415.8,351.7,414.1,351.7z"/>
	<path class="st4" d="M401,406.7c-1.5,0-3-0.3-4.3-0.8c-7.2-3-8.2-12.9-8.3-13.3c-0.4-7.3,0-23.5,0-24.2c0-1.5,1.3-2.7,2.8-2.6
		c1.5,0,2.7,1.3,2.6,2.8c0,0.2-0.4,16.7,0,23.6c0.2,1.9,1.5,7.3,5,8.8c3.3,1.4,8.4-0.6,14.8-5.8c1.2-0.9,2.9-0.8,3.8,0.4
		c0.9,1.2,0.8,2.9-0.4,3.8C410.9,404.2,405.6,406.7,401,406.7z"/>
	<path class="st4" d="M412.5,325.5c-0.2,0-0.4,0-0.6-0.1c-1.5-0.4-2.4-1.8-2-3.3c3.5-14.6,2.7-29.6,2.7-29.8
		c-0.1-1.5,1.1-2.8,2.6-2.9c1.5-0.2,2.8,1.1,2.9,2.6c0,0.6,0.8,16-2.9,31.3C414.9,324.7,413.7,325.5,412.5,325.5z"/>
	<path class="st4" d="M310.8,272.8c0,0-1-13.6,6.5-23.1c0,0-4.3,14.9-1,23.1H310.8z"/>
	<path class="st4" d="M327.2,274.7c0,0-0.9-29.4,29.2-42.8c0,0-24.7,15.2-23.8,46L327.2,274.7z"/>
	<path class="st4" d="M378.4,343.3c0,0,10,0.2,15.4,8.8c0,0-7.9-4.5-12.7-2.9L378.4,343.3z"/>
	<path class="st4" d="M417.8,345.9c0,0,4.3,6,13.8,2.4c0,0-5.7,5.5-16.2,2.4L417.8,345.9z"/>
	<path class="st4" d="M429.8,304.7c0,0,4.3,3.6,16.8,5.5c0,0-9.3,2.5-19.3,0L429.8,304.7z"/>
	<path class="st4" d="M464.7,299.3c0,0-2.9,7.1-12.7,11c0,0,7.5,1.9,12.7-2.7V299.3z"/>
	<path class="st4" d="M420,291.1c0,0-14.3-41.5-2-64c0,0-15.3,20.8-4.6,62.6L420,291.1z"/>
	<path class="st4" d="M394.3,285.5c0,0-1.5-2.2-3.2-6.1c-3.7-8.8-8-26.2,2.6-47.4c-0.2-0.5-11.9,21.6,8,53.9L394.3,285.5z"/>
	<path class="st4" d="M438,193.9c0,0-6.3,2.6-8.8,10.3c0,0,7.4-6.8,19.9-8.2L438,193.9z"/>
	<path class="st4" d="M425.7,239.8c0,0-9.3,19-7.5,48.9c0,0-0.3,4.2,4,12.6l8,1.1c0,0-3.1-5.9-6-20.7
		C424.4,281.8,420.7,266.8,425.7,239.8z"/>
	<path class="st4" d="M390,300.5c0,0-3.9-12.1-19.5-33.5c0,0,6.6,6.3,14.7,16.1c0.1,0.2,0.2,0.3,0.4,0.5c4.2,5.2,8.8,11.3,13,18.1
		C409.5,318.8,390,300.5,390,300.5z"/>
	<path class="st4" d="M311,266.3c0,0-0.6,5.7-8.3,7.7l19.3-1c0,0-6.1-1.5-7-7.6L311,266.3z"/>
	<path class="st4" d="M327.9,267.5c0,0-1.2,6.3-5.9,5.5l19.1,10.8c0,0-8.5-8.5-7.9-16.1L327.9,267.5z"/>
	<path class="st4" d="M433.4,197.2c0,0,1.5-1.5-6.5-4.4l13.6,1.2l14.3,1.5l-1.4,3c0,0-8-2.6-15.8,0.7l-4.9-2.1"/>
	<path class="st4" d="M376,338.5c0,0,3,4.8,8.6,6.2l3.5,5c0,0-6.1-1.2-2.1,5.9l-1.6,0.8L376,338.5z"/>
	<path class="st4" d="M383,280.4c0,0,9,7.6,8.2-1l4.1,2.5l-0.8,6.2l-5.3,2.1L383,280.4z"/>
	<path class="st4" d="M412.1,284.1c0,0,0.9,4.8-2.9,3.6l3.3,2.5h6.6l-4.3-5.1L412.1,284.1z"/>
	<path class="st4" d="M416.2,276.9c0,0,1.1,5.3,1.9-0.5l3.4,3.4l1.2,9.4l-5.7-1.6L416.2,276.9z"/>
	<path class="st4" d="M430.3,302.5c0,0,0.5,2.8,4,4.7l-4.4,0.9l-2.1-3.3L430.3,302.5z"/>
	<path class="st4" d="M433.3,311.2c0,0-2.8-0.3-4.9,4l-2-2l1.5-4.1L433.3,311.2z"/>
	<path class="st4" d="M462.3,302.9c0,0,2-2.7,1.9-6.6l3.4,5.6l-5,9.8c0,0,0.9-2.9-0.6-2.4c-2.6,1,0-0.3,0-0.3L462.3,302.9z"/>
	<path class="st4" d="M420.4,348.1c0,0-2.3-1.4-1.9-4.2l-5.4,8.9l1.9,1.8c0,0,2-3,4.9-3L420.4,348.1z"/>
	<path class="st4" d="M293.3,405.4c-17.3,0-31.4-14.1-31.4-31.4c0-17.3,14.1-31.4,31.4-31.4c17.3,0,31.4,14.1,31.4,31.4
		C324.8,391.3,310.7,405.4,293.3,405.4z M293.3,348c-14.3,0-26,11.7-26,26c0,14.3,11.7,26,26,26c14.3,0,26-11.7,26-26
		C319.3,359.6,307.7,348,293.3,348z"/>
	<g>
		<path class="st4" d="M301.8,385.4h-16.1v-3.5l7.1-7.8c1-1.1,1.7-2,2.1-2.9c0.4-0.8,0.7-1.6,0.7-2.2c0-0.9-0.2-1.6-0.6-2.1
			c-0.4-0.5-1.1-0.8-1.9-0.8c-0.8,0-1.5,0.3-2,1c-0.5,0.7-0.7,1.6-0.7,2.6h-5.3l0-0.1c-0.1-2.1,0.7-4,2.1-5.5
			c1.5-1.5,3.4-2.2,5.8-2.2c2.5,0,4.5,0.6,5.9,1.9s2.1,3,2.1,5.2c0,1.5-0.4,2.8-1.1,3.9s-2.2,2.8-4.2,5l-2.8,3.4l0,0.1h9V385.4z"/>
	</g>
</g>
</svg>
