<?xml version="1.0" encoding="utf-8"?>
<!-- Generator: Adobe Illustrator 20.1.0, SVG Export Plug-In . SVG Version: 6.00 Build 0)  -->
<svg version="1.1" id="Layer_1" xmlns="http://www.w3.org/2000/svg" xmlns:xlink="http://www.w3.org/1999/xlink" x="0px" y="0px"
	 viewBox="0 0 703 558" style="enable-background:new 0 0 703 558;" xml:space="preserve">
<style type="text/css">
	.st0{clip-path:url(#SVGID_2_);}
	.st1{clip-path:url(#SVGID_4_);fill:#FFFFFF;}
	.st2{fill:#E6E7E8;}
	.st3{fill:#3B3B3C;}
	.st4{fill:#333132;}
</style>
<g>
	<defs>
		<polygon id="SVGID_1_" points="545,245 247.6,245 384.2,108.3 349.5,73.9 154,269.4 349.5,464.9 384,430.4 247.6,293.8 545,293.8 
					"/>
	</defs>
	<use xlink:href="#SVGID_1_"  style="overflow:visible;fill-rule:evenodd;clip-rule:evenodd;fill:#FFFFFF;"/>
	<clipPath id="SVGID_2_">
		<use xlink:href="#SVGID_1_"  style="overflow:visible;"/>
	</clipPath>
	<g class="st0">
		<defs>
			<rect id="SVGID_3_" x="-334.8" y="-1074.7" width="8797.5" height="19501.1"/>
		</defs>
		<use xlink:href="#SVGID_3_"  style="overflow:visible;fill:#FFFFFF;"/>
		<clipPath id="SVGID_4_">
			<use xlink:href="#SVGID_3_"  style="overflow:visible;"/>
		</clipPath>
		<rect x="31.8" y="-48.3" class="st1" width="635.4" height="635.4"/>
	</g>
</g>
<g>
	<circle class="st2" cx="350.4" cy="286" r="207.2"/>
	<path class="st3" d="M350.4,497.8c-116.8,0-211.8-95-211.8-211.8s95-211.8,211.8-211.8s211.8,95,211.8,211.8
		S467.2,497.8,350.4,497.8z M350.4,83.4c-111.7,0-202.6,90.9-202.6,202.6s90.9,202.6,202.6,202.6S553,397.7,553,286
		S462.1,83.4,350.4,83.4z"/>
</g>
<g>
	<path class="st4" d="M242.6,386.4c-0.4,0-0.7,0-0.9,0c-4.8,0.1-7.2-2-8.4-3.8c-3.9-5.7,0-15.3,0.9-17.1c3.8-7.3,14-26.2,14.9-27.9
		c5.4-12.6,7.2-21.9,7.5-23.5c-0.3-17.4,10.6-35.4,11-36.2c7.2-12.9,15.6-39.9,16.4-42.4c2.2-12.3,10-21,11.1-22.1
		c6.8-8.3,20.6-14.2,22.3-14.9c43.7-22.8,97.2-31.4,100.4-31.9c18.6-4.5,35.6,5.8,36.3,6.3l48.9,30.9c4.8,3,7.7,6.5,8.6,10.6
		c1.1,4.8-1.1,8.3-1.4,8.7l-46.5,68.8c-2.5,4-5.6,5-7.8,5.2c-5,0.3-8.9-3.5-9.9-4.6l-26-20.5c-1.4-1.1-1.6-3.1-0.5-4.5
		c1.1-1.4,3.1-1.6,4.5-0.5l26.6,21.1c0.7,0.7,2.9,2.9,4.9,2.7c1-0.1,2-0.9,2.9-2.3l46.6-68.9c0.5-0.8,2.7-5.4-5.3-10.4l-48.9-30.9
		c-0.1-0.1-15.5-9.4-31.6-5.5l-0.3,0.1c-0.5,0.1-54.7,8.4-98.7,31.3l-0.3,0.1c-0.1,0.1-14,5.7-20,13.1l-0.2,0.2
		c-0.1,0.1-7.6,8.1-9.5,19.1l-0.1,0.4c-0.4,1.2-9.2,29.7-17.1,43.9c-0.2,0.3-10.5,17.5-10.2,33.2l0,0.3l0,0.3
		c-0.1,0.4-1.7,10.7-8,25.4l-0.1,0.2c0,0-10.9,20.3-14.8,27.7c-1.3,3-2.7,8.7-1.3,10.8c0.2,0.3,0.7,1,3.1,1l0.2,0l0.2,0
		c0.4,0,9.6,0.7,17-10c0.3-0.4,19.6-26,32.6-53.1c0.3-0.5,15.7-27.5,18.3-33.8l0.1-0.3c0.4-0.7,9.1-16.5,24.4-15.2
		c1.7,0.1,3,1.7,2.9,3.4c-0.1,1.7-1.7,3.1-3.4,2.9c-10.6-0.9-17.5,10.5-18.2,11.8c-3,7-17.8,33.1-18.5,34.2
		c-13.2,27.5-32.9,53.6-33.1,53.9C256.3,385.4,246,386.4,242.6,386.4z"/>
	<path class="st4" d="M198.7,375.5c-6.3,0-9.7-2.8-10-3c-2.9-2.8-4.4-6.1-4.4-9.9c0-10.3,10.8-20.8,12-22
		c9.4-9.4,17.3-22.6,17.4-22.7l18.1-29.2c15.4-23.6,39.5-59.2,42-62.9c6.7-16.2,17.2-22.7,19-23.7c10-7,34.8-9.7,37.7-10
		c2-0.2,3.7,1.2,3.9,3.2c0.2,2-1.2,3.7-3.2,3.9c-7.2,0.7-27.3,3.7-34.4,8.8l-0.4,0.3c-0.1,0-9.9,5.5-16.1,20.6l-0.4,0.7
		c-0.3,0.4-26,38.3-42.1,63l-18,29.1c-0.3,0.5-8.4,14-18.5,24.1c-2.8,2.7-9.9,10.7-9.9,16.9c0,1.8,0.6,3.2,1.9,4.4
		c0.9,0.6,8.4,5,22.6-6.3c0.2-0.2,17.9-13.8,38.4-40c1.2-1.5,3.4-1.8,5-0.6c1.5,1.2,1.8,3.4,0.6,5c-21.1,26.9-38.9,40.6-39.6,41.2
		C211.3,373.5,204,375.5,198.7,375.5z"/>
	<path class="st4" d="M225.4,368.8c-5,0-7.9-2-8.1-2.1c-1.4-1-1.7-3-0.7-4.4c1-1.4,3-1.7,4.4-0.7c0.4,0.2,6.3,3.8,17.6-4.3l6.2-11.5
		c0.8-1.5,2.7-2.1,4.3-1.3c1.5,0.8,2.1,2.8,1.3,4.3l-6.9,12.8l-0.6,0.4C235.7,367.3,229.8,368.8,225.4,368.8z"/>
	<path class="st4" d="M315.7,356.1c-2.5,0-4.3-0.9-5.6-1.8c-4.4-3.1-5.4-9.3-5.6-11c-3.6-14.2-5.9-34.5-6-35.4
		c-0.2-2.1,1.3-4,3.4-4.2c2.1-0.2,4,1.3,4.2,3.4c0,0.2,2.3,20.9,5.9,34.6l0.1,0.6c0.1,1.4,0.9,4.7,2.5,5.8c0.2,0.2,0.8,0.6,2.2,0.2
		l0.5-0.1c1.7-0.7,5.3-5.2,5-19.4l0,0c0,0-1-15.5-3.1-25.5c-0.2-0.9-5.3-24.4,9.6-34.1c1.8-1.1,4.1-0.6,5.3,1.1
		c1.1,1.8,0.6,4.1-1.1,5.3c-10.5,6.8-6.4,25.9-6.3,26.1c2.1,10.6,3.2,26.1,3.2,26.8c0.6,23.7-9,26.9-11.4,27.3
		C317.5,356,316.6,356.1,315.7,356.1z"/>
	<path class="st4" d="M342.7,390.9c-2.8,0-5.3-0.7-7.6-2.2c-6.1-4.1-7.4-12.3-7.5-12.7c-10.1-49.3,16.5-77.8,19.3-80.7
		c2.3-3.5-4.5-11.2-8-14.3l-0.2-0.2c-5.4-5.8-11-2.3-11.3-2.1c-1.5,1-3.4,0.5-4.4-0.9c-1-1.5-0.5-3.4,0.9-4.4
		c3.5-2.3,12.1-4.6,19.2,3c2.1,1.9,15.4,14.1,8.7,23l-0.3,0.3c-0.1,0.1-7,6.9-12.6,19.6c-5.2,11.7-10.2,30.8-5.1,55.6
		c0,0.2,1,6,4.7,8.5c1.9,1.2,4.2,1.5,7.1,0.7l0.4-0.1c0,0,0,0,0,0c-0.1,0,5-1.6,6.9-16.2l0.1-0.3c0.1-0.5,2.9-11.8,9.6-24.6
		c1.3-3,18.1-41.7,43.3-65c1.8-2,13.5-14.5,22.1-7.7c1.4,1.1,1.6,3.1,0.5,4.5c-1.1,1.4-3.1,1.6-4.5,0.5c-3.3-2.6-10.6,3.7-13.5,7
		l-0.2,0.3c-24.7,22.7-41.8,62.6-42,63l-0.1,0.2c-6,11.3-8.7,21.7-9.1,23.1c-2.4,18.5-10,21.1-12.1,21.5
		C345.7,390.7,344.2,390.9,342.7,390.9z"/>
	<path class="st4" d="M236.6,293.8c0,0,1.3,7,9.1,11.3c0,0-7.3,0-15-7.7L236.6,293.8z"/>
	<path class="st4" d="M239.5,339.3c0,0-11.9,2.5-18.4-8.4c0,0,1.5,10,12.7,14.8L239.5,339.3z"/>
	<path class="st4" d="M263,307.6c0,0,6.4,5.1,17.6,0c0,0-9.7,8.4-21.1,9.1L263,307.6z"/>
	<path class="st4" d="M267.6,288.3c0,0,3.6,7.8,12.9,11.2c0,0-6.8,1.9-17.6-3.3L267.6,288.3z"/>
	<path class="st4" d="M239.5,290c0,0-2.9,4.5-0.2,9.5l-1.1,3.4c0,0-5-2.9-8.6,2.3L239.5,290z"/>
	<path class="st4" d="M233.4,339.3c0,0,5.4,0.5,9.6-4.6l-8.1,11l-7.7,5.5c0,0,3.5-5.6,0-9.7L233.4,339.3z"/>
	<path class="st4" d="M340.8,314.1c0,0,2.3,9.7,14.8,19.3c0,0-12-1.9-19.4-11.8C336.2,321.6,335.4,315.2,340.8,314.1z"/>
	<path class="st4" d="M332,267.8c0,0-2.7-12.5,2.3-24.8c0,0-1.7,22.1,8.2,32.9l-8.9-3.5L332,267.8z"/>
	<path class="st4" d="M347.9,281.2c0,0,6.4-9.4,17-12.4c0,0-11.6,10.5-12.5,19.5L347.9,281.2z"/>
	<path class="st4" d="M342.5,236.3c0,0,60-10.3,27,27.5C369.5,263.8,393.2,235.8,342.5,236.3z"/>
	<path class="st4" d="M410.6,274.8c0,0,7.8-20.8-17.8-46.8c0,0,27,14,27.3,42.4L410.6,274.8z"/>
	<path class="st4" d="M425.4,268.8c0,0,7.3-10.8,3.4-25.7c0,0,7.4,11.1,3.7,31.8L425.4,268.8z"/>
	<path class="st4" d="M270.4,292.4c0,0-1.8-2-0.4-5.4l0-3.3l-4.8,8.6H270.4z"/>
	<path class="st4" d="M268.5,298.4c0,0-2.5-0.7-3.8,2.8l-2.9-4.4l3.3-2.9L268.5,298.4z"/>
	<path class="st4" d="M266.9,309.3c0,0-3-0.1-3-4.7l-2.9,0.5l-0.6,7.2L266.9,309.3z"/>
	<path class="st4" d="M267.2,315.1c0,0-4.7,2.5-5.6,6l-2.2-1.5l1.7-7.2L267.2,315.1z"/>
	<path class="st4" d="M331.5,263.3c0,0,0.1,3.9-5,5.5l3.3,2.2l6.3-2.2L331.5,263.3z"/>
	<path class="st4" d="M344.3,277.2c0,0,3.5,2.5,8.3-1.2h1.4l-3.8,8.8l-5.6-4.4L344.3,277.2z"/>
	<path class="st4" d="M354.5,281.8c0,0-2.4,4.1-1,9.5l-1.5,0.3l-3.5-8.1L354.5,281.8z"/>
	<path class="st4" d="M342.6,318.5c0,0-1.5-3.7,0.3-7.1l-5.5,3.9l3.1,4L342.6,318.5z"/>
	<path class="st4" d="M339.6,325.4c0,0-2.3-1.6-3.5,1.5l-0.8-1.9l3.3-5.2L339.6,325.4z"/>
	<path class="st4" d="M411.7,267.8c0,0-0.5,5.6-5.8,10.2l6.1-1.5l3.7-4.1L411.7,267.8z"/>
	<path class="st4" d="M419.2,261.8c0,0,3.1,8.1,8.9,1.2l2.5,3.3l-2.7,9.1l-9.1-3.9L419.2,261.8z"/>
	<path class="st4" d="M433.4,268.6c0,0-0.9,5,2.8,8l-0.6,0.9l-6.4-3.4L433.4,268.6z"/>
	<path class="st4" d="M433.3,385.8c-16.2,0-29.4-13.2-29.4-29.4c0-16.2,13.2-29.4,29.4-29.4c16.2,0,29.4,13.2,29.4,29.4
		C462.7,372.6,449.5,385.8,433.3,385.8z M433.3,332.1c-13.4,0-24.3,10.9-24.3,24.3c0,13.4,10.9,24.3,24.3,24.3
		c13.4,0,24.3-10.9,24.3-24.3C457.6,343,446.7,332.1,433.3,332.1z"/>
	<g>
		<path class="st4" d="M437.1,367.1h-5v-17.4h-4.4v-3.8l9.4-0.8V367.1z"/>
	</g>
</g>
</svg>
