<?xml version="1.0" encoding="utf-8"?>
<!-- Generator: Adobe Illustrator 20.1.0, SVG Export Plug-In . SVG Version: 6.00 Build 0)  -->
<svg version="1.1" id="Layer_1" xmlns="http://www.w3.org/2000/svg" xmlns:xlink="http://www.w3.org/1999/xlink" x="0px" y="0px"
	 viewBox="0 0 703 558" style="enable-background:new 0 0 703 558;" xml:space="preserve">
<style type="text/css">
	.st0{clip-path:url(#SVGID_2_);}
	.st1{clip-path:url(#SVGID_4_);fill:#FFFFFF;}
	.st2{fill:#E6E7E8;}
	.st3{fill:#3B3B3C;}
	.st4{fill:#333132;}
</style>
<g>
	<defs>
		<polygon id="SVGID_1_" points="545,245 247.6,245 384.2,108.3 349.5,73.9 154,269.4 349.5,464.9 384,430.4 247.6,293.8 545,293.8 
					"/>
	</defs>
	<use xlink:href="#SVGID_1_"  style="overflow:visible;fill-rule:evenodd;clip-rule:evenodd;fill:#FFFFFF;"/>
	<clipPath id="SVGID_2_">
		<use xlink:href="#SVGID_1_"  style="overflow:visible;"/>
	</clipPath>
	<g class="st0">
		<defs>
			<rect id="SVGID_3_" x="-334.8" y="-1074.7" width="8797.5" height="19501.1"/>
		</defs>
		<use xlink:href="#SVGID_3_"  style="overflow:visible;fill:#FFFFFF;"/>
		<clipPath id="SVGID_4_">
			<use xlink:href="#SVGID_3_"  style="overflow:visible;"/>
		</clipPath>
		<rect x="31.8" y="-48.3" class="st1" width="635.4" height="635.4"/>
	</g>
</g>
<g>
	<circle class="st2" cx="350.4" cy="286" r="207.2"/>
	<path class="st3" d="M350.4,497.8c-116.8,0-211.8-95-211.8-211.8s95-211.8,211.8-211.8s211.8,95,211.8,211.8
		S467.2,497.8,350.4,497.8z M350.4,83.4c-111.7,0-202.6,90.9-202.6,202.6s90.9,202.6,202.6,202.6S553,397.7,553,286
		S462.1,83.4,350.4,83.4z"/>
</g>
<g>
	<path class="st4" d="M368.3,391.9c-3.5,0-43.4-0.1-61.6-3.4c-1.4-0.3-2.4-1.6-2.1-3c0.3-1.4,1.6-2.4,3-2.1
		c18.2,3.3,60.3,3.3,60.8,3.3c49.6-2.6,76.1-20,76.4-20.2c13.5-9.9,20.3-19.4,19.8-27.4c-0.6-7.9-8.2-12-8.2-12.1
		c-8.2-4.3-18.3-7.1-29.3-8.8c-4.4,11.2-13.5,22.2-31,29.5c-1.8,0.7-44.9,17.5-90-5.4c-1.1-0.6-10.8-5.8-10-12.8
		c0.6-5,6.2-8.7,17.2-11.4c3.3-0.6,63-12,110.4-5.8c0.7-2.4,1.2-5,1.6-7.6c1.7-13.3-2-24.4-2-24.5L423,280
		c-8.4-38-60-89.3-60.5-89.9c-1-1-1-2.7,0-3.7c1-1,2.7-1,3.7,0c2.2,2.1,53.1,52.8,61.9,92.3c0.6,1.8,5.3,17.5,0.6,34.4
		c11.2,1.8,21.6,4.8,30.1,9.2c0.4,0.2,10.2,5.6,11,16.3c0.7,10-6.7,20.8-22,32c-1.2,0.8-28.1,18.5-79.3,21.1
		C368.5,391.9,368.4,391.9,368.3,391.9z M392.4,315.9c-39.2,0-77.5,7.3-78.1,7.4c-11.8,2.8-13.1,6-13.2,6.9
		c-0.3,2.5,4.5,6.1,7.2,7.5c43,21.8,85.2,5.4,85.7,5.2c13.6-5.7,22.9-14.2,27.7-25.4C412.3,316.3,402.3,315.9,392.4,315.9z"/>
	<path class="st4" d="M346,193.2c-16.6,0-30.1-13.5-30.1-30.1c0-16.6,13.5-30.1,30.1-30.1c16.6,0,30.1,13.5,30.1,30.1
		C376.2,179.7,362.6,193.2,346,193.2z M346,138.2c-13.7,0-24.9,11.2-24.9,24.9c0,13.7,11.2,24.9,24.9,24.9
		c13.7,0,24.9-11.2,24.9-24.9C370.9,149.4,359.8,138.2,346,138.2z"/>
	<g>
		<path class="st4" d="M349.9,174.1h-5.2v-17.8h-4.5v-3.9l9.6-0.8V174.1z"/>
	</g>
	<path class="st4" d="M280.5,410.9c-16.6,0-30.1-13.5-30.1-30.1c0-16.6,13.5-30.1,30.1-30.1c16.6,0,30.1,13.5,30.1,30.1
		C310.7,397.4,297.1,410.9,280.5,410.9z M280.5,355.9c-13.7,0-24.9,11.2-24.9,24.9c0,13.7,11.2,24.9,24.9,24.9
		c13.7,0,24.9-11.2,24.9-24.9C305.4,367.1,294.3,355.9,280.5,355.9z"/>
	<g>
		<path class="st4" d="M288.6,391.8h-15.5v-3.4l6.8-7.5c0.9-1,1.6-2,2-2.8s0.6-1.5,0.6-2.1c0-0.9-0.2-1.5-0.6-2.1
			c-0.4-0.5-1-0.8-1.9-0.8c-0.8,0-1.4,0.3-1.9,1c-0.4,0.7-0.7,1.5-0.7,2.5h-5.1l0-0.1c-0.1-2.1,0.6-3.8,2-5.2
			c1.4-1.4,3.3-2.1,5.6-2.1c2.4,0,4.3,0.6,5.6,1.8s2,2.8,2,4.9c0,1.4-0.4,2.6-1.1,3.7c-0.7,1.1-2.1,2.7-4,4.8l-2.7,3.2l0,0.1h8.6
			V391.8z"/>
	</g>
</g>
</svg>
