<?xml version="1.0" encoding="utf-8"?>
<!-- Generator: Adobe Illustrator 20.1.0, SVG Export Plug-In . SVG Version: 6.00 Build 0)  -->
<svg version="1.1" id="Layer_1" xmlns="http://www.w3.org/2000/svg" xmlns:xlink="http://www.w3.org/1999/xlink" x="0px" y="0px"
	 viewBox="0 0 703 558" style="enable-background:new 0 0 703 558;" xml:space="preserve">
<style type="text/css">
	.st0{opacity:0.9;}
	.st1{fill:#FFFFFF;}
</style>
<g class="st0">
	<path class="st1" d="M242.3,145.5c43.5,0,85.8,0,128.1,0c47.2,0,94.3,0,141.5,0c18.9,0,24.6,6.9,21.1,25.3
		c-8.5,44-17.1,88-25.3,132.1c-2,10.6-7.6,15.5-18.2,16.7c-67.1,8-134.2,16.4-201.4,24.4c-5.9,0.7-8.8,2.5-9.4,8.5
		c-0.6,7,4.6,8.8,9.2,8.8c15.2-0.2,30.5-1.4,45.7-2.1c50.3-2.4,100.7-4.9,151-6.9c4.4-0.2,10.4,1.3,13.1,4.3c2.6,2.9,4,10,2.2,12.9
		c-2.4,3.9-8.4,7.5-13,7.7c-26.3,1.4-52.7,1.1-79,2.5c-32.5,1.8-64.8,4.9-97.3,6.9c-10,0.6-20.3,0.9-30-1.1
		C257.5,381,247,362.9,256,340c5.1-13.1,3.5-23.9-0.3-36.3c-17.4-57.5-34.4-115.1-51.3-172.8c-2.1-7.1-5.1-10-12.7-9.4
		c-8.7,0.8-17.6,0.4-26.3,0.1c-10.4-0.3-17.3-6.8-17.4-16c-0.1-9.1,6.6-16.1,17-16.4c15.9-0.4,31.9-0.3,47.8-0.1
		c8.9,0.1,14.4,5.1,16.9,13.6C233.8,116.9,238,130.9,242.3,145.5z M413.3,245.9c-22.5,0-44.1,0-65.3,0c0,19.7,0,38.6,0,58.2
		c22.3-2.7,43.7-5.3,65.3-8C413.3,278.9,413.3,262.7,413.3,245.9z M252.2,178.7c4.9,16.2,9.4,31.8,14.2,47.2c0.5,1.6,3,3.7,4.6,3.8
		c20,0.3,40,0.2,60.2,0.2c0-17.8,0-34.2,0-51.1C304.9,178.7,279.1,178.7,252.2,178.7z M413,179c-22.4,0-43.9,0-65.2,0
		c0,17.3,0,33.7,0,50.3c22,0,43.3,0,65.2,0C413,212.4,413,196,413,179z M429.5,229.8c18.7,0,36.5,0.1,54.3-0.2
		c1.9,0,5.1-2.1,5.5-3.7c3.3-15.5,6.1-31,9.2-47.2c-23.5,0-46,0-69,0C429.5,195.6,429.5,212,429.5,229.8z M331.1,306.2
		c0-20.9,0-40.5,0-60.6c-19.6,0-38.6,0-58.9,0c6.6,22.1,12.9,43.4,19.4,65.3C304.9,309.3,317.7,307.8,331.1,306.2z M429.6,245.6
		c0,16.7,0,32.2,0,48.5c15.1-1.8,29.6-3.3,44-5.3c1.7-0.2,4-2.5,4.4-4.1c2.8-12.9,5.2-25.8,7.7-39.1
		C466.4,245.6,448.3,245.6,429.6,245.6z"/>
	<path class="st1" d="M494.4,433.6c-0.6,17.9-15.7,32.1-33.2,31.3c-17.8-0.8-32-16-31.3-33.4c0.7-18,15.5-31.7,33.4-31.1
		C481.2,400.9,495,415.6,494.4,433.6z"/>
	<path class="st1" d="M310.4,432.9c-0.2,17.9-14.8,32.4-32.5,32.1c-17.6-0.3-32.3-15.3-32.1-32.8c0.2-17.7,14.9-32,32.8-31.8
		C296.6,400.5,310.5,414.8,310.4,432.9z"/>
</g>
</svg>
