<?xml version="1.0" encoding="utf-8"?>
<!-- Generator: Adobe Illustrator 20.1.0, SVG Export Plug-In . SVG Version: 6.00 Build 0)  -->
<svg version="1.1" id="Layer_1" xmlns="http://www.w3.org/2000/svg" xmlns:xlink="http://www.w3.org/1999/xlink" x="0px" y="0px"
	 viewBox="0 0 703 558" style="enable-background:new 0 0 703 558;" xml:space="preserve">
<style type="text/css">
	.st0{fill:#795AA6;}
	.st1{fill:#FFFFFF;}
</style>
<circle class="st0" cx="358" cy="281.2" r="234.5"/>
<g>
	<path class="st1" d="M367.9,262.5c-4.2-26.2-14.8-49-33-67.8c-12.7-13.1-27.6-22.7-46.5-24.2c-9.8-0.8-18.9,1.5-27,7
		c-11.4,7.6-17.7,18.7-21.2,31.6c-3.7,13.4-3.8,27-1.4,40.6c4.9,27.8,17.2,51.6,38.2,70.6c3.8,3.5,8.2,6.4,12.6,9.7
		c6.9-15.4,16-28.6,28.3-40.2c-4.5-5.4-8.8-10.6-13.2-15.7c-5.1-5.9-10.7-11.4-15.6-17.4c-7.6-9.3-13.8-19.6-16.5-31.5
		c-3.5-15-0.2-28.2,11.1-39.1c0.5-0.5,1.1-0.9,2.1-1.6c-0.3,1.7-0.5,2.8-0.8,4c-3.5,14.6-0.7,27.9,8.7,39.7
		c6.5,8.1,13.3,16.1,19.8,24.2c5.2,6.5,10.3,13.2,15.3,19.9c1.3,1.7,2.1,3.6,3.3,5.6C342.9,270.4,354.7,265.1,367.9,262.5z"/>
	<path class="st1" d="M333.4,423.6c-3.1-0.7-6.3-1.1-9.4-2.1c-19.2-6.1-29-19.9-31.8-39.2c-2.3-16.3,1.1-31.9,7.7-46.8
		c10.7-24.2,27.5-43.2,50.2-56.8c13.2-7.9,27.5-12.2,43.1-11.7c21.8,0.6,39.1,15.6,43.1,37.2c3.2,17.8,0,34.6-7.2,50.8
		c-10.4,23.5-26.6,42.2-48.5,55.7c-10.5,6.5-21.8,10.9-34.1,12.4c-0.5,0.1-0.9,0.3-1.4,0.5C341.2,423.6,337.3,423.6,333.4,423.6z
		 M313.1,395.4c0.7,0.4,1.1,0.6,1.4,0.8c13.1,5.4,26.5,2.4,36.5-7.9c8.5-8.8,13.7-19.5,18.3-30.5c4.6-11,9.3-22,14.1-32.9
		c6.2-14.2,17.1-22.8,32-26.4c1-0.2,2-0.6,3.5-1.1c-11-4.4-21.3-4.5-31.4,0.2c-10.1,4.6-17.3,12.3-23.2,21.4
		c-7.4,11.3-12.1,23.8-16.4,36.5c-2.2,6.4-5,12.8-8.4,18.7C333.7,384.4,325.7,392.4,313.1,395.4z"/>
	<path class="st1" d="M430.5,163.1c4.9,1.5,10.1,2.4,14.7,4.6c21.4,10.6,34.1,27.8,37.8,51.4c1.6,10.6,0.1,20.9-6.3,29.8
		c-7.8,10.9-18.8,15.1-31.8,13.4c-20-2.6-34-14.4-44.2-31c-6.9-11.3-10.4-23.7-8.8-37.1c1.8-16,12.4-28.5,28.1-30.8
		c0.3,0,0.6-0.3,0.9-0.4C424.1,163.1,427.3,163.1,430.5,163.1z M418.1,173c-5.1,6.5-7.1,13.3-5.6,21c1.3,6.9,5,12.7,10.3,17.1
		c5.8,5,12.2,9.3,18.6,13.6c9.4,6.3,17.6,13.4,17.8,26c6.4-5.9,7.3-16.1,2.4-24.3c-3.8-6.3-9.5-10.7-15.3-15
		c-6.1-4.4-12.3-8.8-18.2-13.4c-4.9-3.8-8.6-8.7-9.4-15.2C418.2,179.8,418.3,176.7,418.1,173z"/>
	<path class="st1" d="M367.9,262.5c-13.2,2.6-25,7.9-36,15.5c-1.1-2-2-3.9-3.3-5.6c-5-6.7-10.1-13.4-15.3-19.9
		c-6.5-8.1-13.3-16.1-19.8-24.2c-9.4-11.8-12.2-25.1-8.7-39.7c0.3-1.1,0.5-2.3,0.8-4c-0.9,0.7-1.6,1.1-2.1,1.6
		c-11.3,10.8-14.6,24.1-11.1,39.1c2.8,11.9,8.9,22.1,16.5,31.5c4.9,6,10.5,11.5,15.6,17.4c4.5,5.1,8.7,10.3,13.2,15.7
		c-12.3,11.7-21.4,24.8-28.3,40.2c-4.4-3.4-8.8-6.3-12.6-9.7c-21-19-33.3-42.8-38.2-70.6c-2.4-13.6-2.2-27.2,1.4-40.6
		c3.5-12.9,9.8-24,21.2-31.6c8.2-5.4,17.2-7.7,27-7c18.9,1.5,33.8,11,46.5,24.2C353.1,213.5,363.7,236.3,367.9,262.5z"/>
</g>
<path class="st1" d="M358.2,541.2c-1.9,0-3.5-1.6-3.5-3.5s1.6-3.5,3.5-3.5c1.6,0,3.3,0,4.9,0c0,0,0,0,0.1,0c1.9,0,3.5,1.5,3.5,3.4
	c0,1.9-1.5,3.5-3.4,3.6C361.5,541.2,359.9,541.2,358.2,541.2C358.2,541.2,358.2,541.2,358.2,541.2z M343.3,540.8c-0.1,0-0.1,0-0.2,0
	c-1.7-0.1-3.4-0.2-5-0.3c-1.9-0.1-3.4-1.8-3.2-3.8c0.1-1.9,1.8-3.4,3.8-3.2c1.6,0.1,3.3,0.2,4.9,0.3c1.9,0.1,3.4,1.8,3.3,3.7
	C346.6,539.4,345.1,540.8,343.3,540.8z M378,540.5c-1.8,0-3.3-1.4-3.5-3.2c-0.1-1.9,1.3-3.6,3.2-3.8c1.6-0.1,3.3-0.3,4.9-0.4
	c1.9-0.2,3.6,1.2,3.8,3.1c0.2,1.9-1.2,3.6-3.1,3.8c-1.7,0.2-3.3,0.3-5,0.4C378.2,540.5,378.1,540.5,378,540.5z M323.5,538.9
	c-0.2,0-0.3,0-0.5,0c-1.7-0.2-3.3-0.5-5-0.7c-1.9-0.3-3.2-2.1-2.9-4c0.3-1.9,2.1-3.2,4-2.9c1.6,0.2,3.2,0.5,4.9,0.7
	c1.9,0.3,3.3,2,3,3.9C326.7,537.7,325.2,538.9,323.5,538.9z M397.8,538.2c-1.7,0-3.2-1.2-3.5-3c-0.3-1.9,1-3.7,2.9-4
	c1.6-0.3,3.2-0.5,4.8-0.8c1.9-0.3,3.7,0.9,4.1,2.8c0.3,1.9-0.9,3.7-2.8,4.1c-1.7,0.3-3.3,0.6-5,0.8
	C398.2,538.2,398,538.2,397.8,538.2z M303.9,535.5c-0.2,0-0.5,0-0.7-0.1c-1.6-0.4-3.3-0.7-4.9-1.1c-1.9-0.4-3-2.3-2.6-4.2
	c0.4-1.9,2.3-3.1,4.2-2.6c1.6,0.4,3.2,0.7,4.8,1.1c1.9,0.4,3.1,2.3,2.7,4.2C306.9,534.4,305.5,535.5,303.9,535.5z M417.3,534.4
	c-1.6,0-3-1.1-3.4-2.7c-0.4-1.9,0.7-3.8,2.6-4.2c1.6-0.4,3.2-0.8,4.8-1.2c1.9-0.5,3.8,0.6,4.3,2.5s-0.6,3.8-2.5,4.3
	c-1.6,0.4-3.3,0.8-4.9,1.2C417.8,534.3,417.6,534.4,417.3,534.4z M284.6,530.6c-0.3,0-0.7,0-1-0.1c-1.6-0.5-3.2-1-4.8-1.5
	c-1.8-0.6-2.9-2.6-2.3-4.4c0.6-1.8,2.6-2.9,4.4-2.3c1.6,0.5,3.1,1,4.7,1.4c1.9,0.6,2.9,2.5,2.4,4.4
	C287.5,529.6,286.1,530.6,284.6,530.6z M436.5,529c-1.5,0-2.9-0.9-3.3-2.4c-0.6-1.8,0.4-3.8,2.3-4.4c1.6-0.5,3.1-1,4.7-1.5
	c1.8-0.6,3.8,0.3,4.4,2.2c0.6,1.8-0.3,3.8-2.2,4.4c-1.6,0.5-3.2,1.1-4.8,1.6C437.2,529,436.8,529,436.5,529z M265.8,524.1
	c-0.4,0-0.8-0.1-1.3-0.2c-1.6-0.6-3.1-1.2-4.7-1.9c-1.8-0.7-2.6-2.8-1.9-4.6c0.7-1.8,2.8-2.6,4.6-1.9c1.5,0.6,3,1.2,4.6,1.8
	c1.8,0.7,2.7,2.7,2,4.5C268.5,523.3,267.2,524.1,265.8,524.1z M455.2,522.2c-1.4,0-2.7-0.8-3.2-2.2c-0.7-1.8,0.1-3.8,1.9-4.6
	c1.5-0.6,3-1.2,4.5-1.9c1.8-0.8,3.8,0.1,4.6,1.8c0.8,1.8-0.1,3.8-1.8,4.6c-1.5,0.7-3.1,1.3-4.6,1.9
	C456,522.1,455.6,522.2,455.2,522.2z M247.5,516.3c-0.5,0-1-0.1-1.5-0.3c-1.5-0.7-3-1.5-4.5-2.2c-1.7-0.9-2.4-3-1.6-4.7
	c0.9-1.7,3-2.4,4.7-1.6c1.5,0.7,2.9,1.5,4.4,2.2c1.7,0.8,2.5,2.9,1.6,4.7C250,515.5,248.8,516.3,247.5,516.3z M473.2,514
	c-1.3,0-2.5-0.7-3.1-1.9c-0.9-1.7-0.2-3.8,1.6-4.7c1.5-0.7,2.9-1.5,4.3-2.2c1.7-0.9,3.8-0.2,4.7,1.5c0.9,1.7,0.2,3.8-1.5,4.7
	c-1.5,0.8-3,1.6-4.5,2.3C474.3,513.9,473.7,514,473.2,514z M229.8,507c-0.6,0-1.2-0.2-1.7-0.5c-1.5-0.8-2.9-1.7-4.3-2.6
	c-1.7-1-2.2-3.2-1.2-4.8c1-1.7,3.2-2.2,4.8-1.2c1.4,0.8,2.8,1.7,4.2,2.5c1.7,1,2.2,3.1,1.3,4.8C232.2,506.3,231.1,507,229.8,507z
	 M490.6,504.4c-1.2,0-2.3-0.6-3-1.7c-1-1.7-0.5-3.8,1.2-4.8c1.4-0.8,2.8-1.7,4.2-2.6c1.6-1,3.8-0.5,4.8,1.1c1,1.6,0.5,3.8-1.1,4.8
	c-1.4,0.9-2.8,1.8-4.3,2.6C491.8,504.2,491.2,504.4,490.6,504.4z M213,496.3c-0.7,0-1.4-0.2-2-0.6c-1.4-1-2.8-1.9-4.1-2.9
	c-1.6-1.1-1.9-3.3-0.8-4.9c1.1-1.6,3.3-1.9,4.9-0.8c1.3,1,2.7,1.9,4,2.8c1.6,1.1,2,3.3,0.9,4.9C215.2,495.8,214.1,496.3,213,496.3z
	 M507.2,493.5c-1.1,0-2.2-0.5-2.8-1.5c-1.1-1.6-0.8-3.8,0.8-4.9c1.3-1,2.6-1.9,4-2.9c1.5-1.2,3.7-0.8,4.9,0.7
	c1.2,1.5,0.8,3.7-0.7,4.9c-1.3,1-2.7,2-4.1,3C508.6,493.2,507.9,493.5,507.2,493.5z M197.1,484.4c-0.8,0-1.5-0.3-2.2-0.8
	c-1.3-1.1-2.6-2.1-3.9-3.2c-1.5-1.2-1.7-3.5-0.4-4.9c1.2-1.5,3.5-1.7,4.9-0.4c1.3,1.1,2.5,2.1,3.8,3.1c1.5,1.2,1.7,3.4,0.5,4.9
	C199.1,484,198.1,484.4,197.1,484.4z M522.9,481.3c-1,0-2-0.4-2.7-1.2c-1.2-1.5-1.1-3.7,0.4-4.9c1.3-1.1,2.5-2.1,3.7-3.2
	c1.5-1.3,3.7-1.1,4.9,0.3c1.3,1.5,1.1,3.7-0.3,4.9c-1.3,1.1-2.5,2.2-3.8,3.3C524.5,481,523.7,481.3,522.9,481.3z M182.1,471.4
	c-0.9,0-1.7-0.3-2.4-1c-1.2-1.2-2.4-2.3-3.6-3.5c-1.4-1.4-1.4-3.6,0-4.9c1.4-1.4,3.6-1.4,4.9,0c1.2,1.1,2.3,2.3,3.5,3.4
	c1.4,1.3,1.5,3.5,0.1,4.9C183.9,471,183,471.4,182.1,471.4z M537.6,467.9c-0.9,0-1.8-0.4-2.5-1c-1.4-1.4-1.3-3.6,0-4.9
	c1.2-1.1,2.3-2.3,3.5-3.5c1.4-1.4,3.6-1.4,4.9,0s1.4,3.6,0,4.9c-1.2,1.2-2.4,2.4-3.6,3.6C539.4,467.6,538.5,467.9,537.6,467.9z
	 M168.1,457.2c-1,0-1.9-0.4-2.6-1.1c-1.1-1.2-2.2-2.5-3.3-3.8c-1.3-1.5-1.1-3.7,0.3-4.9c1.5-1.3,3.7-1.1,4.9,0.3
	c1.1,1.2,2.2,2.5,3.3,3.7c1.3,1.4,1.2,3.6-0.2,4.9C169.8,456.9,169,457.2,168.1,457.2z M551.3,453.5c-0.8,0-1.6-0.3-2.3-0.9
	c-1.5-1.3-1.6-3.5-0.3-4.9c1.1-1.2,2.1-2.5,3.2-3.7c1.2-1.5,3.5-1.7,4.9-0.4c1.5,1.2,1.7,3.5,0.4,4.9c-1.1,1.3-2.2,2.6-3.3,3.8
	C553.2,453,552.2,453.5,551.3,453.5z M155.4,441.9c-1,0-2.1-0.5-2.8-1.4c-1-1.3-2-2.7-3.1-4c-1.2-1.5-0.8-3.7,0.7-4.9
	c1.5-1.2,3.7-0.8,4.9,0.7c1,1.3,2,2.6,3,3.9c1.2,1.5,0.9,3.7-0.6,4.9C156.9,441.7,156.1,441.9,155.4,441.9z M563.8,438
	c-0.7,0-1.5-0.2-2.1-0.7c-1.5-1.2-1.9-3.3-0.7-4.9c1-1.3,1.9-2.6,2.9-4c1.1-1.6,3.3-1.9,4.9-0.8c1.6,1.1,1.9,3.3,0.8,4.9
	c-1,1.4-2,2.7-3,4.1C565.9,437.5,564.8,438,563.8,438z M143.8,425.8c-1.1,0-2.3-0.6-2.9-1.6c-0.9-1.4-1.8-2.8-2.7-4.2
	c-1-1.6-0.5-3.8,1.1-4.8c1.6-1,3.8-0.5,4.8,1.1c0.9,1.4,1.8,2.8,2.7,4.1c1.1,1.6,0.6,3.8-1,4.8C145.1,425.6,144.4,425.8,143.8,425.8
	z M575,421.6c-0.6,0-1.3-0.2-1.9-0.5c-1.6-1-2.1-3.2-1.1-4.8c0.9-1.4,1.7-2.8,2.6-4.2c1-1.7,3.2-2.2,4.8-1.2c1.7,1,2.2,3.2,1.2,4.8
	c-0.9,1.4-1.8,2.9-2.7,4.3C577.3,421,576.2,421.6,575,421.6z M133.5,408.8c-1.2,0-2.4-0.7-3.1-1.8c-0.8-1.5-1.6-2.9-2.4-4.4
	c-0.9-1.7-0.3-3.8,1.5-4.7c1.7-0.9,3.8-0.3,4.7,1.5c0.8,1.4,1.5,2.9,2.3,4.3c0.9,1.7,0.3,3.8-1.4,4.8
	C134.6,408.7,134.1,408.8,133.5,408.8z M585,404.3c-0.6,0-1.1-0.1-1.6-0.4c-1.7-0.9-2.4-3-1.5-4.7c0.8-1.4,1.5-2.9,2.3-4.4
	c0.9-1.7,3-2.4,4.7-1.6c1.7,0.9,2.4,3,1.6,4.7c-0.8,1.5-1.5,3-2.3,4.5C587.5,403.7,586.3,404.3,585,404.3z M124.6,391.1
	c-1.3,0-2.6-0.8-3.2-2c-0.7-1.5-1.4-3.1-2-4.6c-0.8-1.8,0-3.8,1.8-4.6c1.8-0.8,3.8,0,4.6,1.8c0.6,1.5,1.3,3,2,4.5
	c0.8,1.8,0,3.8-1.7,4.6C125.5,391,125,391.1,124.6,391.1z M593.6,386.4c-0.5,0-0.9-0.1-1.4-0.3c-1.8-0.8-2.6-2.8-1.8-4.6
	c0.7-1.5,1.3-3,1.9-4.5c0.7-1.8,2.8-2.6,4.6-1.9c1.8,0.7,2.6,2.8,1.9,4.6c-0.6,1.6-1.3,3.1-2,4.7C596.3,385.6,595,386.4,593.6,386.4
	z M117,372.7c-1.4,0-2.8-0.9-3.3-2.3c-0.6-1.6-1.1-3.2-1.7-4.8c-0.6-1.8,0.3-3.8,2.2-4.4c1.8-0.6,3.8,0.3,4.4,2.2
	c0.5,1.5,1.1,3.1,1.6,4.6c0.7,1.8-0.3,3.8-2.1,4.5C117.8,372.6,117.4,372.7,117,372.7z M600.8,367.8c-0.4,0-0.8-0.1-1.1-0.2
	c-1.8-0.6-2.8-2.6-2.2-4.4c0.5-1.6,1-3.1,1.5-4.7c0.6-1.8,2.6-2.9,4.4-2.3c1.8,0.6,2.9,2.6,2.3,4.4c-0.5,1.6-1,3.2-1.6,4.8
	C603.6,366.9,602.3,367.8,600.8,367.8z M110.9,353.8c-1.5,0-2.9-1-3.4-2.6c-0.5-1.6-0.9-3.2-1.3-4.9c-0.5-1.9,0.6-3.8,2.5-4.3
	c1.9-0.5,3.8,0.6,4.3,2.5c0.4,1.6,0.8,3.2,1.3,4.7c0.5,1.9-0.6,3.8-2.4,4.3C111.6,353.7,111.3,353.8,110.9,353.8z M606.5,348.7
	c-0.3,0-0.6,0-0.9-0.1c-1.9-0.5-3-2.4-2.5-4.3c0.4-1.6,0.8-3.2,1.2-4.8c0.4-1.9,2.3-3.1,4.2-2.6c1.9,0.4,3,2.3,2.6,4.2
	c-0.4,1.6-0.8,3.3-1.2,4.9C609.5,347.7,608.1,348.7,606.5,348.7z M106.4,334.4c-1.6,0-3.1-1.2-3.4-2.8c-0.3-1.6-0.6-3.3-0.9-5
	c-0.3-1.9,0.9-3.7,2.8-4.1c1.9-0.3,3.7,0.9,4.1,2.8c0.3,1.6,0.6,3.2,0.9,4.8c0.4,1.9-0.9,3.7-2.8,4.1
	C106.8,334.4,106.6,334.4,106.4,334.4z M610.7,329.3c-0.2,0-0.4,0-0.6-0.1c-1.9-0.3-3.2-2.1-2.8-4.1c0.3-1.6,0.5-3.2,0.8-4.8
	c0.3-1.9,2.1-3.2,4-2.9c1.9,0.3,3.2,2.1,2.9,4c-0.3,1.7-0.5,3.3-0.8,5C613.8,328.1,612.4,329.3,610.7,329.3z M103.3,314.8
	c-1.8,0-3.3-1.3-3.5-3.1c-0.2-1.7-0.4-3.3-0.5-5c-0.2-1.9,1.2-3.6,3.1-3.8c1.9-0.2,3.6,1.2,3.8,3.1c0.2,1.6,0.3,3.3,0.5,4.9
	c0.2,1.9-1.2,3.7-3.1,3.9C103.6,314.8,103.4,314.8,103.3,314.8z M613.4,309.6c-0.1,0-0.2,0-0.3,0c-1.9-0.2-3.3-1.9-3.1-3.8
	c0.2-1.6,0.3-3.3,0.4-4.9c0.1-1.9,1.8-3.4,3.8-3.2c1.9,0.1,3.4,1.8,3.2,3.8c-0.1,1.7-0.3,3.4-0.4,5
	C616.7,308.2,615.1,309.6,613.4,309.6z M101.7,295c-1.9,0-3.4-1.5-3.5-3.4c-0.1-1.7-0.1-3.3-0.1-5c0-1.9,1.5-3.5,3.4-3.6
	c0,0,0,0,0.1,0c1.9,0,3.5,1.5,3.5,3.4c0,1.6,0.1,3.3,0.1,4.9c0.1,1.9-1.4,3.6-3.4,3.6C101.8,295,101.8,295,101.7,295z M614.5,289.7
	C614.5,289.7,614.5,289.7,614.5,289.7c-2,0-3.5-1.6-3.5-3.6c0-1.6,0-3.3,0-4.9l0-0.5c0-1.9,1.6-3.5,3.5-3.5s3.5,1.6,3.5,3.5l0,0.5
	c0,1.7,0,3.4,0,5.1C618,288.2,616.4,289.7,614.5,289.7z M101.7,275.1c0,0-0.1,0-0.1,0c-1.9-0.1-3.4-1.7-3.4-3.6
	c0.1-1.7,0.1-3.4,0.2-5c0.1-1.9,1.8-3.4,3.7-3.3c1.9,0.1,3.4,1.8,3.3,3.7c-0.1,1.6-0.2,3.3-0.2,4.9
	C105.2,273.6,103.6,275.1,101.7,275.1z M614.1,269.3c-1.8,0-3.4-1.4-3.5-3.3c-0.1-1.6-0.2-3.3-0.3-4.9c-0.2-1.9,1.3-3.6,3.2-3.8
	c1.9-0.2,3.6,1.3,3.8,3.2c0.1,1.7,0.2,3.3,0.3,5c0.1,1.9-1.4,3.6-3.3,3.7C614.2,269.3,614.2,269.3,614.1,269.3z M103.2,255.2
	c-0.1,0-0.3,0-0.4,0c-1.9-0.2-3.3-2-3.1-3.9c0.2-1.7,0.4-3.3,0.6-5c0.3-1.9,2-3.3,3.9-3c1.9,0.3,3.3,2,3,3.9
	c-0.2,1.6-0.4,3.2-0.6,4.9C106.5,253.9,105,255.2,103.2,255.2z M612.1,249.5c-1.7,0-3.2-1.3-3.5-3c-0.2-1.6-0.5-3.2-0.7-4.9
	c-0.3-1.9,1-3.7,2.9-4c1.9-0.3,3.7,1,4,2.9c0.3,1.7,0.5,3.3,0.7,5c0.3,1.9-1.1,3.7-3,3.9C612.5,249.5,612.3,249.5,612.1,249.5z
	 M106.3,235.6c-0.2,0-0.4,0-0.7-0.1c-1.9-0.4-3.1-2.2-2.8-4.1c0.3-1.7,0.7-3.3,1-4.9c0.4-1.9,2.3-3.1,4.2-2.7
	c1.9,0.4,3.1,2.3,2.7,4.2c-0.3,1.6-0.7,3.2-1,4.8C109.4,234.4,107.9,235.6,106.3,235.6z M608.7,229.9c-1.6,0-3.1-1.1-3.4-2.8
	c-0.3-1.6-0.7-3.2-1.1-4.8c-0.4-1.9,0.7-3.8,2.6-4.2c1.9-0.4,3.8,0.7,4.2,2.6c0.4,1.6,0.8,3.3,1.1,4.9c0.4,1.9-0.8,3.8-2.7,4.2
	C609.2,229.9,608.9,229.9,608.7,229.9z M110.8,216.2c-0.3,0-0.6,0-0.9-0.1c-1.9-0.5-3-2.4-2.4-4.3c0.4-1.6,0.9-3.2,1.4-4.8
	c0.6-1.9,2.5-2.9,4.4-2.4c1.9,0.6,2.9,2.5,2.4,4.4c-0.5,1.6-0.9,3.1-1.4,4.7C113.7,215.2,112.3,216.2,110.8,216.2z M603.7,210.7
	c-1.5,0-2.9-1-3.4-2.5c-0.5-1.6-1-3.1-1.5-4.7c-0.6-1.8,0.4-3.8,2.3-4.4c1.8-0.6,3.8,0.4,4.4,2.3c0.5,1.6,1,3.2,1.5,4.8
	c0.6,1.9-0.5,3.8-2.3,4.4C604.4,210.6,604,210.7,603.7,210.7z M116.8,197.3c-0.4,0-0.8-0.1-1.2-0.2c-1.8-0.7-2.8-2.7-2.1-4.5
	c0.6-1.6,1.2-3.2,1.8-4.7c0.7-1.8,2.7-2.7,4.5-2c1.8,0.7,2.7,2.7,2,4.5c-0.6,1.5-1.2,3.1-1.7,4.6
	C119.6,196.4,118.3,197.3,116.8,197.3z M597.2,191.9c-1.4,0-2.7-0.8-3.3-2.2c-0.6-1.5-1.2-3-1.8-4.6c-0.7-1.8,0.1-3.8,1.9-4.6
	c1.8-0.7,3.8,0.1,4.6,1.9c0.6,1.6,1.3,3.1,1.9,4.7c0.7,1.8-0.2,3.8-2,4.5C598.1,191.8,597.6,191.9,597.2,191.9z M124.4,178.8
	c-0.5,0-1-0.1-1.4-0.3c-1.8-0.8-2.5-2.9-1.7-4.6c0.7-1.5,1.4-3.1,2.1-4.6c0.8-1.7,2.9-2.5,4.7-1.6c1.7,0.8,2.5,2.9,1.6,4.7
	c-0.7,1.5-1.4,3-2.1,4.5C127,178.1,125.7,178.8,124.4,178.8z M589.3,173.6c-1.3,0-2.6-0.7-3.2-2c-0.7-1.5-1.4-2.9-2.2-4.4
	c-0.9-1.7-0.2-3.8,1.5-4.7c1.7-0.9,3.8-0.2,4.7,1.5c0.8,1.5,1.5,3,2.2,4.5c0.8,1.7,0.1,3.8-1.6,4.7
	C590.3,173.5,589.8,173.6,589.3,173.6z M133.3,161c-0.6,0-1.2-0.1-1.7-0.4c-1.7-0.9-2.3-3.1-1.4-4.8c0.8-1.5,1.6-2.9,2.5-4.4
	c1-1.7,3.1-2.2,4.8-1.3c1.7,1,2.2,3.1,1.3,4.8c-0.8,1.4-1.6,2.8-2.4,4.3C135.7,160.4,134.5,161,133.3,161z M580,156.1
	c-1.2,0-2.4-0.6-3-1.7c-0.8-1.4-1.7-2.8-2.5-4.2c-1-1.7-0.5-3.8,1.2-4.8c1.6-1,3.8-0.5,4.8,1.2c0.9,1.4,1.7,2.9,2.6,4.3
	c1,1.7,0.4,3.8-1.3,4.8C581.2,156,580.6,156.1,580,156.1z M143.6,144c-0.7,0-1.3-0.2-1.9-0.6c-1.6-1.1-2.1-3.2-1-4.8
	c0.9-1.4,1.9-2.8,2.8-4.2c1.1-1.6,3.3-2,4.9-0.9c1.6,1.1,2,3.3,0.9,4.9c-0.9,1.4-1.8,2.7-2.7,4.1C145.8,143.4,144.7,144,143.6,144z
	 M569.4,139.3c-1.1,0-2.2-0.5-2.9-1.5c-0.9-1.3-1.9-2.7-2.8-4c-1.1-1.6-0.8-3.8,0.8-4.9c1.6-1.1,3.8-0.8,4.9,0.8
	c1,1.4,1.9,2.7,2.9,4.1c1.1,1.6,0.7,3.8-0.9,4.9C570.8,139.1,570.1,139.3,569.4,139.3z M155.2,127.8c-0.7,0-1.5-0.2-2.1-0.7
	c-1.5-1.2-1.8-3.4-0.6-4.9c1-1.3,2.1-2.6,3.1-4c1.2-1.5,3.4-1.7,4.9-0.5c1.5,1.2,1.7,3.4,0.5,4.9c-1,1.3-2,2.6-3,3.9
	C157.2,127.3,156.2,127.8,155.2,127.8z M557.5,123.4c-1,0-2-0.4-2.7-1.3c-1-1.3-2.1-2.5-3.1-3.8c-1.2-1.5-1.1-3.7,0.4-4.9
	c1.5-1.2,3.7-1.1,4.9,0.4c1.1,1.3,2.2,2.6,3.2,3.9c1.2,1.5,1,3.7-0.5,4.9C559,123.2,558.2,123.4,557.5,123.4z M167.9,112.5
	c-0.8,0-1.7-0.3-2.3-0.9c-1.4-1.3-1.5-3.5-0.2-4.9c1.1-1.2,2.3-2.5,3.4-3.7c1.3-1.4,3.5-1.5,4.9-0.1c1.4,1.3,1.5,3.5,0.1,4.9
	c-1.1,1.2-2.2,2.4-3.3,3.6C169.8,112.2,168.9,112.5,167.9,112.5z M544.4,108.5c-0.9,0-1.9-0.4-2.5-1.1c-1.1-1.2-2.3-2.4-3.4-3.5
	c-1.4-1.4-1.3-3.6,0-4.9c1.4-1.4,3.6-1.3,4.9,0c1.2,1.2,2.3,2.4,3.5,3.6c1.3,1.4,1.3,3.6-0.1,4.9
	C546.1,108.1,545.2,108.5,544.4,108.5z M181.9,98.3c-0.9,0-1.9-0.4-2.5-1.1c-1.3-1.4-1.3-3.6,0.1-4.9c1.2-1.2,2.5-2.3,3.7-3.4
	c1.4-1.3,3.6-1.2,4.9,0.2c1.3,1.4,1.2,3.6-0.2,4.9c-1.2,1.1-2.4,2.2-3.6,3.3C183.6,98,182.7,98.3,181.9,98.3z M530.2,94.6
	c-0.8,0-1.7-0.3-2.3-0.9c-1.2-1.1-2.4-2.2-3.7-3.3c-1.5-1.3-1.6-3.5-0.3-4.9c1.3-1.5,3.5-1.6,4.9-0.3c1.3,1.1,2.5,2.2,3.8,3.3
	c1.4,1.3,1.5,3.5,0.2,4.9C532.1,94.2,531.1,94.6,530.2,94.6z M196.8,85.2c-1,0-2-0.4-2.7-1.3c-1.2-1.5-1-3.7,0.5-4.9
	c1.3-1.1,2.6-2.1,3.9-3.1c1.5-1.2,3.7-0.9,4.9,0.6c1.2,1.5,0.9,3.7-0.6,4.9c-1.3,1-2.6,2-3.8,3C198.4,85,197.6,85.2,196.8,85.2z
	 M514.9,81.8c-0.7,0-1.5-0.2-2.1-0.7c-1.3-1-2.6-2-3.9-3c-1.6-1.2-1.9-3.3-0.7-4.9c1.2-1.6,3.3-1.9,4.9-0.7c1.4,1,2.7,2,4,3.1
	c1.5,1.2,1.8,3.4,0.6,4.9C517,81.3,515.9,81.8,514.9,81.8z M212.7,73.3c-1.1,0-2.2-0.5-2.9-1.5c-1.1-1.6-0.7-3.8,0.9-4.9
	c1.4-1,2.8-1.9,4.2-2.8c1.6-1.1,3.8-0.6,4.8,1c1.1,1.6,0.6,3.8-1,4.8c-1.4,0.9-2.7,1.8-4.1,2.7C214.1,73.1,213.4,73.3,212.7,73.3z
	 M498.7,70.2c-0.7,0-1.3-0.2-1.9-0.6c-1.4-0.9-2.7-1.8-4.1-2.7c-1.6-1-2.1-3.2-1.1-4.8c1-1.6,3.2-2.1,4.8-1.1
	c1.4,0.9,2.8,1.8,4.2,2.7c1.6,1.1,2.1,3.2,1,4.8C501,69.7,499.8,70.2,498.7,70.2z M229.5,62.7c-1.2,0-2.4-0.6-3-1.7
	c-1-1.7-0.4-3.8,1.3-4.8c1.4-0.8,2.9-1.7,4.4-2.5c1.7-0.9,3.8-0.3,4.8,1.4s0.3,3.8-1.4,4.8c-1.4,0.8-2.8,1.6-4.3,2.4
	C230.7,62.6,230.1,62.7,229.5,62.7z M481.6,59.9c-0.6,0-1.2-0.1-1.7-0.4c-1.4-0.8-2.9-1.6-4.3-2.3c-1.7-0.9-2.4-3-1.5-4.7
	c0.9-1.7,3-2.4,4.7-1.5c1.5,0.8,3,1.6,4.5,2.4c1.7,0.9,2.3,3.1,1.4,4.8C484.1,59.3,482.9,59.9,481.6,59.9z M247.1,53.4
	c-1.3,0-2.6-0.7-3.2-2c-0.8-1.7-0.1-3.8,1.6-4.7c1.5-0.7,3-1.4,4.6-2.1c1.8-0.8,3.8,0,4.6,1.7c0.8,1.8,0,3.8-1.7,4.6
	c-1.5,0.7-3,1.4-4.4,2.1C248.1,53.3,247.6,53.4,247.1,53.4z M463.8,51c-0.5,0-1-0.1-1.4-0.3c-1.5-0.7-3-1.3-4.5-2
	c-1.8-0.8-2.6-2.8-1.8-4.6c0.8-1.8,2.8-2.6,4.6-1.8c1.5,0.7,3.1,1.3,4.6,2c1.8,0.8,2.5,2.9,1.7,4.6C466.4,50.2,465.2,51,463.8,51z
	 M265.3,45.5c-1.4,0-2.7-0.8-3.3-2.2c-0.7-1.8,0.2-3.8,2-4.5c1.6-0.6,3.1-1.2,4.7-1.8c1.8-0.7,3.8,0.3,4.5,2.1
	c0.7,1.8-0.3,3.8-2.1,4.5c-1.5,0.6-3.1,1.1-4.6,1.7C266.1,45.5,265.7,45.5,265.3,45.5z M445.4,43.5c-0.4,0-0.8-0.1-1.2-0.2
	c-1.5-0.6-3.1-1.1-4.6-1.6c-1.8-0.6-2.8-2.6-2.2-4.4c0.6-1.8,2.6-2.8,4.4-2.2c1.6,0.5,3.2,1.1,4.8,1.7c1.8,0.7,2.8,2.7,2.1,4.5
	C448.2,42.6,446.8,43.5,445.4,43.5z M284.1,39.1c-1.5,0-2.9-1-3.4-2.5c-0.6-1.9,0.5-3.8,2.3-4.4c1.6-0.5,3.2-1,4.8-1.4
	c1.9-0.5,3.8,0.6,4.3,2.4c0.5,1.9-0.6,3.8-2.4,4.3c-1.6,0.4-3.1,0.9-4.7,1.4C284.8,39,284.4,39.1,284.1,39.1z M426.4,37.5
	c-0.3,0-0.6,0-0.9-0.1c-1.6-0.4-3.2-0.9-4.7-1.3c-1.9-0.5-3-2.4-2.5-4.3c0.5-1.9,2.4-3,4.3-2.5c1.6,0.4,3.3,0.8,4.9,1.3
	c1.9,0.5,3,2.4,2.4,4.3C429.4,36.4,428,37.5,426.4,37.5z M303.3,34.1c-1.6,0-3.1-1.1-3.4-2.8c-0.4-1.9,0.8-3.8,2.7-4.2
	c1.6-0.4,3.3-0.7,4.9-1c1.9-0.4,3.7,0.9,4.1,2.8c0.4,1.9-0.9,3.7-2.8,4.1c-1.6,0.3-3.2,0.6-4.8,1C303.8,34.1,303.6,34.1,303.3,34.1z
	 M407.1,32.9c-0.2,0-0.4,0-0.7-0.1c-1.6-0.3-3.2-0.6-4.8-0.9c-1.9-0.3-3.2-2.1-2.9-4c0.3-1.9,2.1-3.2,4-2.9c1.7,0.3,3.3,0.6,5,0.9
	c1.9,0.4,3.1,2.2,2.8,4.1C410.2,31.8,408.7,32.9,407.1,32.9z M322.9,30.6c-1.7,0-3.2-1.3-3.5-3c-0.3-1.9,1.1-3.7,3-3.9
	c1.7-0.2,3.3-0.4,5-0.6c1.9-0.2,3.7,1.1,3.9,3.1c0.2,1.9-1.1,3.7-3.1,3.9c-1.6,0.2-3.2,0.4-4.9,0.6
	C323.2,30.6,323.1,30.6,322.9,30.6z M387.4,29.9c-0.1,0-0.3,0-0.4,0c-1.6-0.2-3.2-0.4-4.9-0.5c-1.9-0.2-3.3-1.9-3.2-3.8
	c0.2-1.9,1.9-3.3,3.8-3.2c1.7,0.2,3.3,0.3,5,0.5c1.9,0.2,3.3,2,3.1,3.9C390.7,28.6,389.2,29.9,387.4,29.9z M342.7,28.7
	c-1.8,0-3.4-1.4-3.5-3.3c-0.1-1.9,1.4-3.6,3.3-3.7c1.7-0.1,3.4-0.2,5-0.2c1.9-0.1,3.6,1.4,3.6,3.4c0.1,1.9-1.4,3.6-3.4,3.6
	c-1.6,0.1-3.3,0.1-4.9,0.2C342.9,28.7,342.8,28.7,342.7,28.7z M367.6,28.4c0,0-0.1,0-0.1,0c-1.6-0.1-3.3-0.1-4.9-0.1
	c-1.9,0-3.5-1.6-3.4-3.6c0-1.9,1.7-3.5,3.6-3.4c1.7,0,3.4,0.1,5,0.1c1.9,0.1,3.4,1.7,3.4,3.6C371,26.9,369.5,28.4,367.6,28.4z"/>
</svg>
