<?xml version="1.0" encoding="utf-8"?>
<!-- Generator: Adobe Illustrator 20.1.0, SVG Export Plug-In . SVG Version: 6.00 Build 0)  -->
<svg version="1.1" id="Layer_1" xmlns="http://www.w3.org/2000/svg" xmlns:xlink="http://www.w3.org/1999/xlink" x="0px" y="0px"
	 viewBox="0 0 703 558" style="enable-background:new 0 0 703 558;" xml:space="preserve">
<style type="text/css">
	.st0{opacity:0.6;}
	.st1{fill:#FFFFFF;}
</style>
<g class="st0">
	<path class="st1" d="M491.7,476.8c0-53,0-105.6,0-158.4c-26.6,0-52.7,0-79.3,0c0,52.6,0,105.2,0,158.4c-1.9,0-3.4,0-4.8,0
		c-66.3,0-132.6,0-199,0c-12.3,0-18.5-6.2-18.5-18.6c0-62.4,0-124.9,0-187.3c0-1.6,0-3.1,0-5.6c-5.9,5.8-12.1,6.3-18.6,3.4
		c-6.2-2.8-9.5-10.8-7.3-17.3c7.4-21.1,14.6-42.3,22.2-63.3c2.6-7.2,4.3-14.3,3.7-22c-1.2-15.8,5.8-22.6,22.5-22.6
		c102,0.3,204.1,0.2,306.1,0.2c2.5,0,5.1,0,7.6,0.5c6.4,1.2,10.4,5.2,12.2,11.4c0.4,1.3,0.8,2.7,0.6,4c-2.3,15.8,4.4,29.7,9.3,43.9
		c5.4,15.6,10.9,31.1,16.3,46.7c2.5,7.2,1.1,14.1-3.6,17.6c-5.1,3.8-14,3.4-19.6-0.8c-0.5-0.4-1-0.8-2.2-1.7c0,2.4,0,4.1,0,5.8
		c0,62.4,0,124.9,0,187.3c0,9.8-4.5,16.3-12.7,18.1c-2.2,0.5-4.5,0.4-6.8,0.4C510.6,476.8,501.4,476.8,491.7,476.8z M364.7,318.3
		c-42.4,0-84.3,0-126.6,0c0,37,0,73.9,0,110.8c42.3,0,84.3,0,126.6,0C364.7,392.1,364.7,355.4,364.7,318.3z M478.2,191.6
		c0.1,1.3,0.1,2.4,0.4,3.4c2.5,11.2,5,22.5,7.5,33.7c1.9,8.8,4.6,17.5,5.3,26.4c1.1,14.6,10.7,24.2,25.1,22.9
		c14.9-1.4,22.3-17,19-27.7c-5.8-18.4-11.1-36.9-16.5-55.4c-0.8-2.6-1.8-3.6-4.7-3.6c-10.7,0.2-21.5,0.1-32.2,0.1
		C480.8,191.4,479.6,191.5,478.2,191.6z M411.5,191.4c0,1.5-0.1,2.5,0,3.4c1.3,15.1,2.7,30.2,4.1,45.2c0.6,6.8,0.7,13.7,1.9,20.4
		c2.3,12.1,13.6,19.5,25.8,17.6c11.6-1.8,20-12.9,18.1-25.4c-2.9-19.6-6.4-39.1-9.8-58.6c-0.2-1-1.6-2.4-2.4-2.4
		C436.8,191.3,424.4,191.4,411.5,191.4z M344.8,191.7c-0.8,21.2-1.8,41.9-2.4,62.7c-0.4,13.8,9.6,23.9,22.8,23.8
		c12.9-0.2,22.5-10.4,22.1-24c-0.6-19.8-1.6-39.7-2.2-59.5c-0.1-2.8-1.2-3.3-3.7-3.3c-11.1,0.1-22.3,0-33.4,0.1
		C347,191.4,346.1,191.6,344.8,191.7z M318.3,191.4c-13,0-25.3,0-37.7,0c-2.6,0-2.6,1.7-2.9,3.5c-1.8,10.8-3.8,21.6-5.5,32.5
		c-1.6,9.9-3.6,19.8-4.1,29.8c-0.6,11.6,9.8,21,21.8,21.1c11.9,0.1,21.8-9.2,22.6-20.6c1-14.2,2.3-28.3,3.6-42.4
		C316.8,207.4,317.5,199.7,318.3,191.4z M251.7,191.4c-13.3,0-25.7-0.1-38.2,0.1c-0.9,0-2.3,1.9-2.7,3.2
		c-5.8,19.1-11.4,38.2-17.1,57.4c-0.4,1.3-0.7,2.6-0.7,3.9c-0.1,11.8,9.6,21.7,21.6,22.1c12.4,0.4,22.4-8.7,23.1-20.9
		c0.1-1.9,0.3-3.7,0.7-5.6c2.2-10.2,4.5-20.4,6.7-30.6C247.4,211.4,249.5,201.8,251.7,191.4z"/>
	<path class="st1" d="M365.2,80.4c51.5,0,103.1,0,154.6,0c2.5,0,5.2,0,7.6,0.5c7.1,1.7,11.6,7.7,11.9,15.8c0.2,4.8,0.2,9.7,0,14.5
		c-0.4,10.3-6.9,16.7-17.3,16.7c-104.8,0-209.6,0-314.5,0c-9.7,0-16.2-5.4-17-14.7c-0.5-6.4-0.5-12.9,0.2-19.3
		c0.8-7.9,6.8-12.9,14.6-13.5c1.7-0.1,3.5-0.1,5.2-0.1C262.1,80.4,313.7,80.4,365.2,80.4z"/>
</g>
</svg>
