<?xml version="1.0" encoding="utf-8"?>
<!-- Generator: Adobe Illustrator 20.1.0, SVG Export Plug-In . SVG Version: 6.00 Build 0)  -->
<svg version="1.1" id="Layer_1" xmlns="http://www.w3.org/2000/svg" xmlns:xlink="http://www.w3.org/1999/xlink" x="0px" y="0px"
	 viewBox="0 0 703 558" style="enable-background:new 0 0 703 558;" xml:space="preserve">
<style type="text/css">
	.st0{fill:#795AA6;}
	.st1{fill:#FFFFFF;}
</style>
<circle class="st0" cx="358.6" cy="277.1" r="234.5"/>
<g>
	<path class="st1" d="M367.9,262.5c-4.2-26.2-14.8-49-33-67.8c-12.7-13.1-27.6-22.7-46.5-24.2c-9.8-0.8-18.9,1.5-27,7
		c-11.4,7.6-17.7,18.7-21.2,31.6c-3.7,13.4-3.8,27-1.4,40.6c4.9,27.8,17.2,51.6,38.2,70.6c3.8,3.5,8.2,6.4,12.6,9.7
		c6.9-15.4,16-28.6,28.3-40.2c-4.5-5.4-8.8-10.6-13.2-15.7c-5.1-5.9-10.7-11.4-15.6-17.4c-7.6-9.3-13.8-19.6-16.5-31.5
		c-3.5-15-0.2-28.2,11.1-39.1c0.5-0.5,1.1-0.9,2.1-1.6c-0.3,1.7-0.5,2.8-0.8,4c-3.5,14.6-0.7,27.9,8.7,39.7
		c6.5,8.1,13.3,16.1,19.8,24.2c5.2,6.5,10.3,13.2,15.3,19.9c1.3,1.7,2.1,3.6,3.3,5.6C342.9,270.4,354.7,265.1,367.9,262.5z"/>
	<path class="st1" d="M333.4,423.6c-3.1-0.7-6.3-1.1-9.4-2.1c-19.2-6.1-29-19.9-31.8-39.2c-2.3-16.3,1.1-31.9,7.7-46.8
		c10.7-24.2,27.5-43.2,50.2-56.8c13.2-7.9,27.5-12.2,43.1-11.7c21.8,0.6,39.1,15.6,43.1,37.2c3.2,17.8,0,34.6-7.2,50.8
		c-10.4,23.5-26.6,42.2-48.5,55.7c-10.5,6.5-21.8,10.9-34.1,12.4c-0.5,0.1-0.9,0.3-1.4,0.5C341.2,423.6,337.3,423.6,333.4,423.6z
		 M313.1,395.4c0.7,0.4,1.1,0.6,1.4,0.8c13.1,5.4,26.5,2.4,36.5-7.9c8.5-8.8,13.7-19.5,18.3-30.5c4.6-11,9.3-22,14.1-32.9
		c6.2-14.2,17.1-22.8,32-26.4c1-0.2,2-0.6,3.5-1.1c-11-4.4-21.3-4.5-31.4,0.2c-10.1,4.6-17.3,12.3-23.2,21.4
		c-7.4,11.3-12.1,23.8-16.4,36.5c-2.2,6.4-5,12.8-8.4,18.7C333.7,384.4,325.7,392.4,313.1,395.4z"/>
	<path class="st1" d="M430.5,163.1c4.9,1.5,10.1,2.4,14.7,4.6c21.4,10.6,34.1,27.8,37.8,51.4c1.6,10.6,0.1,20.9-6.3,29.8
		c-7.8,10.9-18.8,15.1-31.8,13.4c-20-2.6-34-14.4-44.2-31c-6.9-11.3-10.4-23.7-8.8-37.1c1.8-16,12.4-28.5,28.1-30.8
		c0.3,0,0.6-0.3,0.9-0.4C424.1,163.1,427.3,163.1,430.5,163.1z M418.1,173c-5.1,6.5-7.1,13.3-5.6,21c1.3,6.9,5,12.7,10.3,17.1
		c5.8,5,12.2,9.3,18.6,13.6c9.4,6.3,17.6,13.4,17.8,26c6.4-5.9,7.3-16.1,2.4-24.3c-3.8-6.3-9.5-10.7-15.3-15
		c-6.1-4.4-12.3-8.8-18.2-13.4c-4.9-3.8-8.6-8.7-9.4-15.2C418.2,179.8,418.3,176.7,418.1,173z"/>
	<path class="st1" d="M367.9,262.5c-13.2,2.6-25,7.9-36,15.5c-1.1-2-2-3.9-3.3-5.6c-5-6.7-10.1-13.4-15.3-19.9
		c-6.5-8.1-13.3-16.1-19.8-24.2c-9.4-11.8-12.2-25.1-8.7-39.7c0.3-1.1,0.5-2.3,0.8-4c-0.9,0.7-1.6,1.1-2.1,1.6
		c-11.3,10.8-14.6,24.1-11.1,39.1c2.8,11.9,8.9,22.1,16.5,31.5c4.9,6,10.5,11.5,15.6,17.4c4.5,5.1,8.7,10.3,13.2,15.7
		c-12.3,11.7-21.4,24.8-28.3,40.2c-4.4-3.4-8.8-6.3-12.6-9.7c-21-19-33.3-42.8-38.2-70.6c-2.4-13.6-2.2-27.2,1.4-40.6
		c3.5-12.9,9.8-24,21.2-31.6c8.2-5.4,17.2-7.7,27-7c18.9,1.5,33.8,11,46.5,24.2C353.1,213.5,363.7,236.3,367.9,262.5z"/>
</g>
</svg>
