<?xml version="1.0" encoding="utf-8"?>
<!-- Generator: Adobe Illustrator 20.1.0, SVG Export Plug-In . SVG Version: 6.00 Build 0)  -->
<svg version="1.1" id="Layer_1" xmlns="http://www.w3.org/2000/svg" xmlns:xlink="http://www.w3.org/1999/xlink" x="0px" y="0px"
	 viewBox="0 0 703 558" style="enable-background:new 0 0 703 558;" xml:space="preserve">
<style type="text/css">
	.st0{clip-path:url(#SVGID_2_);}
	.st1{clip-path:url(#SVGID_4_);fill:#FFFFFF;}
	.st2{fill:#E6E7E8;}
	.st3{fill:#3B3B3C;}
	.st4{fill:#333132;}
</style>
<g>
	<defs>
		<polygon id="SVGID_1_" points="545,245 247.6,245 384.2,108.3 349.5,73.9 154,269.4 349.5,464.9 384,430.4 247.6,293.8 545,293.8 
					"/>
	</defs>
	<use xlink:href="#SVGID_1_"  style="overflow:visible;fill-rule:evenodd;clip-rule:evenodd;fill:#FFFFFF;"/>
	<clipPath id="SVGID_2_">
		<use xlink:href="#SVGID_1_"  style="overflow:visible;"/>
	</clipPath>
	<g class="st0">
		<defs>
			<rect id="SVGID_3_" x="-334.8" y="-1074.7" width="8797.5" height="19501.1"/>
		</defs>
		<use xlink:href="#SVGID_3_"  style="overflow:visible;fill:#FFFFFF;"/>
		<clipPath id="SVGID_4_">
			<use xlink:href="#SVGID_3_"  style="overflow:visible;"/>
		</clipPath>
		<rect x="31.8" y="-48.3" class="st1" width="635.4" height="635.4"/>
	</g>
</g>
<g>
	<circle class="st2" cx="350.4" cy="286" r="207.2"/>
	<path class="st3" d="M350.4,497.8c-116.8,0-211.8-95-211.8-211.8s95-211.8,211.8-211.8s211.8,95,211.8,211.8
		S467.2,497.8,350.4,497.8z M350.4,83.4c-111.7,0-202.6,90.9-202.6,202.6s90.9,202.6,202.6,202.6S553,397.7,553,286
		S462.1,83.4,350.4,83.4z"/>
</g>
<g>
	<path class="st4" d="M473.3,360.4c-3.5,0-6.8-1.6-8.8-3.1l-7.2-4.1c-0.1-0.1-7.2-3.5-18.9-0.5c-1.6,0.4-39.3,10-71.5,1.1l-15.2-4.2
		c-0.1,0-17.3-4.4-38.3-4.4c-1.2,0-12.9,0.2-16.6-7.7c-2.7-5.8-0.1-13.5,8.1-23.4c-5.5,0.7-10.5,0.9-10.8,0.9
		c-45.4,4.2-89.6-9.7-91.5-10.3l-0.2-0.1c-5.8-2.3-9.4-5.9-10.8-10.5c-1.3-4.4-0.2-8.8,1-11.7c-8.1-4.4-8.4-10.7-8.4-12.4
		c-0.2-4.6,1.3-8.5,4.3-11.7c4-4.1,9.9-5.9,14.2-6.6c-1.3-4.8,0.5-9.4,2.1-11.8c6.1-10.4,26.9-13.1,29.3-13.4
		c23.1-2.8,56.3-2.3,56.6-2.3h53.3c25.1,1.2,57.7,16.3,59,17l0.2,0.1c7.2,4,12.3,5.6,12.4,5.7c42,10.8,63.7,32.4,64.6,33.3
		c6.1,6.9,10.9,8.8,10.9,8.8l22.2,7.3c4.4,1.6,7,3.8,7.8,6.7c0.7,2.6-0.4,5-1.5,6.3l-38.3,47C478.8,359.4,476,360.4,473.3,360.4z
		 M447.7,344.7c8,0,12.7,2.4,13,2.5l7.8,4.6c0.5,0.4,4.9,3.5,7.5,0.5l38.3-47.1c0.1-0.1,0.1-0.2,0.1-0.3l0,0c0,0-0.5-1-3.4-2
		l-22.2-7.3c-0.7-0.3-6.5-2.5-13.6-10.6c-0.1-0.1-21.3-21.1-61.5-31.4c-0.4-0.1-5.9-1.9-13.7-6.2c-2-0.9-33.3-15.2-56.2-16.3
		l-53.2,0c-0.4,0-33.1-0.5-55.8,2.2c-7.7,0.9-21,4.5-24.3,10.2l-0.2,0.3c-0.3,0.5-3.2,4.9,0.2,8.6l5.1,5.7H208
		c-2.8,0-10.8,0.9-14.7,5c-1.7,1.8-2.5,4-2.4,6.8l0,0.3l0,0.3c0,0.1-0.1,4.3,7.4,7.1l4,1.5l-2.4,3.6c0,0-3.3,5-1.9,9.4
		c0.8,2.5,3.1,4.6,6.8,6.1c2.5,0.8,45.8,14,88.9,10c0.3,0,13.2-0.5,19.5-2.6l15.8-5.3l-12.5,11c-0.2,0.2-5.5,5.1-4.8,12.4
		c0.4,1.4,3.2,9.4,12.6,13.5c1.5,0.3,9.3,1.6,14.7-2.2c1.5-1.1,3.6-0.7,4.7,0.9s0.7,3.6-0.9,4.7c-0.1,0.1-0.2,0.1-0.3,0.2
		c6.6,1.1,10.7,2.1,11.1,2.2l15.3,4.3c30.3,8.4,67.6-1,68-1.1C440.9,345.1,444.5,344.7,447.7,344.7z M305.1,325.6
		c-3,5.3-2.6,8-2.1,9c1.5,3.3,8.1,3.9,10.4,3.8c0.1,0,0.1,0,0.2,0C307.6,333.2,305.5,327,305.1,325.6z"/>
	<path class="st4" d="M346.3,291.7c-1,0-1.9-0.4-2.6-1.2c-2.1-2.5-14.9-11.2-22.4-16.1c-6.4-4.7-15.8-7.8-17.4-8.3
		c-23.3-3.5-34.6-4.6-35.9-4.7c-40.7-1-57.7-3-58.4-3.1c-1.9-0.2-3.2-1.9-2.9-3.8c0.2-1.9,1.9-3.2,3.8-2.9c0.2,0,17.5,2.1,57.8,3.1
		l0.2,0c0.5,0,11.6,1.1,36.6,4.8l0.5,0.1c0.5,0.1,11.7,3.6,19.5,9.3c3.2,2.1,20.4,13.3,23.8,17.3c1.2,1.4,1,3.6-0.4,4.8
		C347.9,291.4,347.1,291.7,346.3,291.7z"/>
	<path class="st4" d="M237.1,256.8c-0.5,0-1.1-0.3-1.3-0.8c-7-14.6,4.1-27.5,4.2-27.6c0.5-0.6,1.5-0.7,2.1-0.1
		c0.6,0.5,0.7,1.5,0.1,2.1c-0.4,0.5-10,11.5-3.8,24.4c0.4,0.7,0,1.6-0.7,2C237.6,256.7,237.4,256.8,237.1,256.8z"/>
	<path class="st4" d="M220.2,281.4c-0.6,0-1.1-0.3-1.3-0.9c-5.9-13.1,1-25.9,1.3-26.5c0.4-0.7,1.3-1,2-0.6c0.7,0.4,1,1.3,0.6,2
		c-0.1,0.1-6.5,12.1-1.2,23.9c0.3,0.7,0,1.6-0.7,1.9C220.6,281.3,220.4,281.4,220.2,281.4z"/>
	<path class="st4" d="M230.5,309.3c-0.5,0-1.1-0.3-1.3-0.8s-6.2-12.7,1.1-26.7c0.4-0.7,1.3-1,2-0.6c0.7,0.4,1,1.3,0.6,2
		c-6.6,12.7-1.1,23.9-1,24c0.4,0.7,0.1,1.6-0.6,2C230.9,309.3,230.7,309.3,230.5,309.3z"/>
	<path class="st4" d="M346.9,348.5c-1.6,0-3-1.2-3.3-2.8c-0.3-1.8,0.9-3.6,2.8-3.9c4.7-0.8,17.9-4.6,22.1-12
		c1.7-3.1,1.8-6.6,0.1-10.7c-0.7-1.7,0.1-3.7,1.9-4.4c1.7-0.7,3.7,0.1,4.4,1.9c2.5,6,2.3,11.6-0.4,16.6c-6.6,11.8-26,15.3-26.8,15.4
		C347.3,348.4,347.1,348.5,346.9,348.5z"/>
	<path class="st4" d="M379.6,318.4c0,0,7.9,14.5,51.7,13c0,0-40.1,5.2-57-10.5L379.6,318.4z"/>
	<path class="st4" d="M492.4,332.2c0,0-10.6-1.9-34.9-12.6c0,0,13.3,8.4,34.9,17.9V332.2z"/>
	<path class="st4" d="M485.1,341.9c0,0-15.7-4.1-37.8-12.6c0,0,14.1,8.3,37.3,17.8L485.1,341.9z"/>
	<path class="st4" d="M489,331.4c0,0,2.9,0.8,6.2-2.8v2.9l-3.1,2.2L489,331.4z"/>
	<path class="st4" d="M480,331.8c0,0,8.3,3.9,5.8,8.6h1.1l6.5-7.7L480,331.8z"/>
	<path class="st4" d="M480.4,340.6c0,0,4.5,2.3,5.8-1.5l0.5-1.6l0.7,3.8l-2.6,2.8L480.4,340.6z"/>
	<path class="st4" d="M477.5,344.2c0,0,3.6,2.2,0.8,5.5h2.2l3.5-5.5l-7-1.8L477.5,344.2z"/>
	<path class="st4" d="M419,297.6c0,0-6.5,7.8-30.3,13.3c0,0-11.1,2.5-18.6,3.7c0,0-14.4,2.4-26,14.4c0,0-7,7.9-10,11.6l4.8,3.1
		l3.3-0.5c0,0,7.2-15.9,27.1-21.3c0,0,10.3-1.9,21.5-5.5C390.7,316.4,408.9,311.2,419,297.6z"/>
	<path class="st4" d="M374.3,263.2c0,0-10.7,17.6-27.9,29.2c0,0-12.3,7.5-20.3,11.9c0,0-13.7,7-14.4,16.4c0,0-1.3,4.1,4.5,10.7
		c0,0,6.8,8.7,19.2,5.3c0,0,4.1-1.2,6.6-5.3l0.2,3.6l-4.1,6.2l-6.6,1.5l-17.7-4.1c0,0-11.5-10.2-7.9-19.5l6.5-13.4
		c0,0,9.1-7.3,21.8-13.4C334.1,292.4,353.7,284.9,374.3,263.2z"/>
	<path class="st4" d="M351.7,282.5c0,0-10.2-25.1-9.5-41.7c0,0-2.4,19.4,3.8,36.5c0,0-6.8-8.3-10.8-29c0,0,0.6,23.8,10.8,41.2
		L351.7,282.5z"/>
	<path class="st4" d="M307.6,250.4c0,0,4.2-13.6,14.5-19.3h-6.8C315.2,231,309,238.8,307.6,250.4z"/>
	<path class="st4" d="M318.3,233.6c0,0,2.4-2.4,8.8-2.6l-1.1-2.3l-7.7,1.9V233.6z"/>
	<path class="st4" d="M313.1,234.2c0,0,1.3-2.9-3.4-3s-1.6-0.1-1.6-0.1l2-1.7l7.5,1.1l-2.2,3.3L313.1,234.2z"/>
	<path class="st4" d="M280.4,231c0,0-2.9,6.1-1.5,19.3c0,0-3.7-10.9-3-19.3l2.3-1.7L280.4,231z"/>
	<path class="st4" d="M279.4,234.5c0,0,1-3.4,5.7-3.4l-2.3-2.5h-4.6l-0.1,4.7L279.4,234.5z"/>
	<path class="st4" d="M275.9,234.2c0,0,0-2.8-4.3-3l1-1.4h5.7l-0.8,3.3L275.9,234.2z"/>
	<path class="st4" d="M267.6,236.3c0,0-2.8,14.2,0,21.6l-4.7-1.1C262.9,256.8,262.4,249.1,267.6,236.3z"/>
	<path class="st4" d="M266.9,261.1c0,0-3.3,7.1-3,21.8c0,0-2.9-8.9-1.5-22.4l2.5-1.5L266.9,261.1z"/>
	<path class="st4" d="M266.4,251.5c0,0-0.1,2.8,4.8,3.4l-6.8,1.6l-6.8-2.1c0,0,5-0.8,5.9-4.7L266.4,251.5z"/>
	<path class="st4" d="M265.5,265.3c0,0,1.1-3.8,5.7-3.7L269,259l-10.3,1.8c0,0,2.8,2.3,3.3,6.4L265.5,265.3z"/>
	<path class="st4" d="M254.8,260.8c0,0,0.4,12.7,1.3,23.8c0,0-0.4-17.8,3.6-24.5L254.8,260.8z"/>
	<path class="st4" d="M249.6,260.7c0,0,5.2-0.2,5.4,5.5l2.7-0.6c0,0,1-3.5,2.9-1.5c0,0,1.8,1.5,1.8,5.4l2.1-10.8L249.6,260.7z"/>
	<path class="st4" d="M294.3,264.5c0,0-0.4,11.5,2.2,21.7c0,0-0.2-16.2,2.5-22.1L294.3,264.5z"/>
	<path class="st4" d="M297.8,268.6c0,0,0.9-3.4,5.7-2.8l-1.3-2.7l-13.9,0.5c0,0,5.8,1.2,6.1,6.4L297.8,268.6z"/>
	<path class="st4" d="M261.6,308.8c0,0-0.6-13.5,3.4-23.7c0,0-2.7,16.3,1.4,23.7H261.6z"/>
	<path class="st4" d="M270.1,309.1c0,0,0.1-13.3,3.2-20c0,0-1.7,14.5,1.6,22L270.1,309.1z"/>
	<path class="st4" d="M258.2,308.3c0,0,3.1,0.2,3.4-4.2h3.2c0,0,0.7,3,3,3c0,0,2.1,0.5,2.5-3.7l2.9,1.6c0,0,1.3,4.1,5,4.2l1.6,2.6
		l-15.8-0.6L258.2,308.3z"/>
	<path class="st4" d="M197.3,277.4c0,0,31.7,3.4,63.4,5.4c0,0,19.8,2.2,44.5,4c0,0-35,0.9-64-0.7c0,0-29.8-2.2-42-2L197.3,277.4z"/>
</g>
</svg>
