<?xml version="1.0" encoding="utf-8"?>
<!-- Generator: Adobe Illustrator 20.1.0, SVG Export Plug-In . SVG Version: 6.00 Build 0)  -->
<svg version="1.1" id="Layer_1" xmlns="http://www.w3.org/2000/svg" xmlns:xlink="http://www.w3.org/1999/xlink" x="0px" y="0px"
	 viewBox="0 0 703 558" style="enable-background:new 0 0 703 558;" xml:space="preserve">
<style type="text/css">
	.st0{clip-path:url(#SVGID_2_);}
	.st1{clip-path:url(#SVGID_4_);fill:#FFFFFF;}
	.st2{fill:#E6E7E8;}
	.st3{fill:#3B3B3C;}
	.st4{fill:#333132;}
</style>
<g>
	<defs>
		<polygon id="SVGID_1_" points="545,245 247.6,245 384.2,108.3 349.5,73.9 154,269.4 349.5,464.9 384,430.4 247.6,293.8 545,293.8 
					"/>
	</defs>
	<use xlink:href="#SVGID_1_"  style="overflow:visible;fill-rule:evenodd;clip-rule:evenodd;fill:#FFFFFF;"/>
	<clipPath id="SVGID_2_">
		<use xlink:href="#SVGID_1_"  style="overflow:visible;"/>
	</clipPath>
	<g class="st0">
		<defs>
			<rect id="SVGID_3_" x="-334.8" y="-1074.7" width="8797.5" height="19501.1"/>
		</defs>
		<use xlink:href="#SVGID_3_"  style="overflow:visible;fill:#FFFFFF;"/>
		<clipPath id="SVGID_4_">
			<use xlink:href="#SVGID_3_"  style="overflow:visible;"/>
		</clipPath>
		<rect x="31.8" y="-48.3" class="st1" width="635.4" height="635.4"/>
	</g>
</g>
<g>
	<circle class="st2" cx="350.4" cy="286" r="207.2"/>
	<path class="st3" d="M350.4,497.8c-116.8,0-211.8-95-211.8-211.8s95-211.8,211.8-211.8s211.8,95,211.8,211.8
		S467.2,497.8,350.4,497.8z M350.4,83.4c-111.7,0-202.6,90.9-202.6,202.6s90.9,202.6,202.6,202.6S553,397.7,553,286
		S462.1,83.4,350.4,83.4z"/>
</g>
<g>
	<path class="st4" d="M332.6,211.2c0,0-3.1,9.2,4.1,16.4C336.7,227.6,332.7,218.6,332.6,211.2z"/>
	<path class="st4" d="M336.7,234.8c0,0-4.8,7,1,17.4c0,0,2.3,3.6,2.3,6.9c0,0-0.2,3.2,0,7c0.2,4.3,1,9.2,3.3,11.3c0,0,3.6,2.6,6.9,0
		c0,0-6.8-4.9-7.2-10.8c-0.4-5.9,0.3-8.4,3.9-10.1c0,0,5.2-1.7,9.5-1.3c0,0-8.5,0-12.8-3c0,0-6.4-4.1-6.9-8.9
		C336.7,243.3,336.4,238.8,336.7,234.8z"/>
	<path class="st4" d="M344.3,292.5c0,0,0.3-5.2,0-8.9C344.3,283.7,347.9,287.3,344.3,292.5z"/>
	<path class="st4" d="M466.5,327.6c0,0-2.3-10.2-8.2-15.1c0,0-4.6-3.9-14.8-3.9c0,0-14.8,0.3-20,0.7c0,0-14.4-0.3-18.7-5.2l-5.6-6.2
		c0,0-4.3-3-2-6.2c0,0,3.3-4.9,3.9-9.5c0,0,1.3-5.2,6.2-7.5c0,0,6.9-3.6,6.6-12.5c0,0-2.4-13.4,2.6-13.8c0,0,8.2,2,12.5,0
		c0,0,8.9-2.3,8.9-13.8c0,0-3.6-13.2-7.2-23.9c0,0-2.6-14.8-12.8-18.7c0,0-2.6-6.2-13.4-7.2h-11.8c0,0-9.2-5.6-20-2l-11.1,4.6
		c0,0-8.9-2-13.1,1c0,0-22.9,12.8-39.3,25.6c0,0-9.2,3.9-13.4,3.6l-15.4-1.3h-2.6c0,0-2.7,0.2-7.2,2.3c0,0-11.1,4.3-18.7,12.1
		c0,0-3.9,4.8-5.6,12.7c0,0-5.1,17.9-1.3,32.5c0,0,2.3,7.9,6.9,12.5c0,0,5.8,6.2,10.3,10.5c0,0,9,5.9,18.2,0c0,0,14.4-8.2,20.7-7.2
		l8.5,1.3c0,0-7.5,6.9-11.5,11.8c0,0-5.9,5.2-5.2,13.1c0,0,0.7,10.5-1.3,14.8c0,0-2.6,9.8,6.6,12.5c0,0,9.5,1,16.1,0
		c0,0,6.6,6.9,6.2,14.1c0,0-2.6,9.5,4.6,14.1c0,0,2.6,2.6,5.6,4.3c0,0-2.4,6.2,2.1,9.8c0,0,3.8,3.6,6.4,5.2c0,0,5.6,3,9.5,2.6
		c0,0,10.8-1.9,18.7,1.4c0,0,5.6,1.2,11.5,0.6c0,0,6.6,0.9,10.8,0.4c0,0,5.4-1.1,10.8-6.7c0,0,6.2-6.9,10.5-9.8
		c0,0,4.9-4.3,12.1-3.9c0,0,16.7-0.7,25.6,0.3c0,0,4.9,0.7,7.9-3.6c0,0,6.2-7.2,9.2-12.8c0,0,3.3-7.5,3.3-14.4
		C468.8,346.6,468.8,335.8,466.5,327.6z M419.6,219.4c-1.3-2.6,0-5.6,0-5.6c3-3.9,1.3-12.5,1.3-12.5c9.3,8.8,9.8,25.5,9.8,25.5
		c0.3,2.2,1.2,5.5,1.2,5.5c0.4,4.9-2.2,7.4-2.2,7.4c-3.6,4.3-10.7,1.6-10.7,1.6c1.7-2.6,2.3-6.6,2.3-6.6
		C422.9,228,419.6,219.4,419.6,219.4z M385.2,187c0,0-7.2,3-15.1,0C370.2,187,379.3,184.4,385.2,187z M307.9,285
		c0,0-13.4-0.7-16.4-8.2c0,0-2.3-7.4-4.6,0.7c0,0-6.5,9.5-16,14.1c0,0-3.9,3.3-7.5-2c0,0-8.5-9.2-10.8-13.1c0,0-4.3-6.9-3.9-17
		c0,0,1.6-11.3,2.3-16.1c0,0,1.3-6.8,6.9-10.8c0,0,6.2-5.6,7.5-6.6c0,0,3.9-3.3,8.2-3.3c0,0,12.8-0.7,17,1.3c0,0-3.9,2.3-3.6,7.2
		l0,3c0,0,24.9-17.4,38.4-25.6l19.3-12.8c0,0,6.9-5.6,15.1-2.6c0,0,11.5,2.6,18,1.3l25.9-3.9c0,0,8.9-1.3,11.8,7.2
		c0,0,3.3,15.7-7.5,16.7l-30.2,1.6c0,0-3.9-0.3-3.3,3.6c0,0,0.3,1.6,3.9,1.6l28.2-1c0,0,5.6,0.7,7.9,3.3c0,0,3.9,6.6,1.5,14.8
		c0,0-6.4,8.2-11.6,8.2c0,0-18-1.3-27.5,0c0,0-4.3,1.3-3.6,4.9c0,0,1.3,2.3,6.2,2c0,0,18.7-1.6,24.3-1.6c0,0,5.6-0.7,5.9,5.9
		c0,0,1.6,7.9-5.2,12.5c0,0-3.9,3-14.8,3h-15.1c0,0-9.8,0.7-8.5,6.6c0,0,1.3,2.1,8.2,0c0,0,7.9-2,16.7-1c0,0,6.4-0.1,4.9,4.3
		c0,0-0.3,4.6-5.6,5.9c0,0-18.7,4.6-29.8,6.6c0,0-12.8,2.6-23.3-3C337,292.5,323.6,287.3,307.9,285z M310.5,338.1
		c-3,1.3-9.2,0-9.2,0c-7.2-1.3-5.6-7.5-5.6-7.5c0.7-3.6,0.8-11.5,0.8-11.5c-0.3-6.2,6.4-12.6,6.4-12.6c3.6-3.9,12.1-10.4,12.1-10.4
		c7.5-5.3,14.8,1.7,14.8,1.7c-17.7,6.2-9.8,20.7-9.8,20.7c1.3,3.9-0.7,6.9-0.7,6.9c-2.5,3-3.9,7.2-3.9,7.2
		C313.8,338.4,310.5,338.1,310.5,338.1z M456.7,362c-2,3.6-6.6,3.6-6.6,3.6h-19.9c-8.1-0.3,3.5-2.6,3.5-2.6c10.8-1-7.5-3.3-7.5-3.3
		c-4.6-0.7-4.9-8.9-4.9-8.9c-1.6-7.9-9.2-4.6-9.2-4.6c-2.6,5.2-4.6,23.9-4.6,23.9c-0.7,7.2-6.2,8.9-6.2,8.9c-4.3,1-5.2,5.9-5.2,5.9
		c-1.3,3.3-5.9,5.6-5.9,5.6c-4.6,0.7-17,0-17,0c-7.5-3-22-3.6-22-3.6c-5.9,0-10.2-4.6-10.2-4.6c-6.2-3.9-5.1-6.5-5.1-6.5
		c7.8,0,24.1-0.1,24.1-0.1c4.9,0.7,6.9-3.6,6.9-3.6c0-3.3-6.2-3.3-6.2-3.3c-11.5,0.7-26.3,0-26.3,0c-8.6-0.7-7.4-9.2-7.4-9.2
		c-0.3-5.6,3-5.9,3-5.9c10.2-0.4,26.5-1.3,26.5-1.3c6.9-0.2,7.2-3.6,7.2-3.6c-0.3-4.3-5.6-3.3-5.6-3.3c-6.6,0-31.1,1.6-31.1,1.6
		c-7.2,0-8.9-8.6-8.9-8.6c-2.3-7.9,6-10.1,6-10.1c9.6-0.3,32.3-3.3,32.3-3.3c6.5-0.3,6.6-3,6.6-3c-0.3-3-3.5-3-3.5-3
		c-22.2,3.6-30.9,0-30.9,0c-7.9-4.3-3-12.5-3-12.5c6.6-9,20.5-4.9,20.5-4.9c15.3,1.6,38.5-4.3,38.5-4.3c7.5-0.7,10.2,5.9,10.2,5.9
		c7.2,12.1,9.5,16.4,9.5,16.4c5.9-3.6,28.2-5.2,28.2-5.2c12.1-2,22,3,22,3c8.8,6.4,8.5,20.9,8.5,20.9
		C464.9,353.4,456.7,362,456.7,362z"/>
	<path class="st4" d="M404.2,327.6c0,0,2,5.1,0,11.1C404.2,338.7,404.2,335.2,404.2,327.6z"/>
	<path class="st4" d="M398.3,354.2c0,0-1.1-9.9,2.6-3c0,0,6.2,8.9,3.3,18.4c0,0-5.4,5.9-4.8,10.3l-2.8,3.4c0,0-1.9-9.1,2.1-13.7
		c0,0,4.2-4.9,1.9-10.2L398.3,354.2z"/>
	<path class="st4" d="M240,306.6l0.9-3.7c0,0,0.9-3.4,5,0l6,4.7c0,0,5.7,4.2-0.6,6.3l-10.2,3.1c0,0-3.8,1.6-3.3-2.8l0.6-2.5
		c0,0-33.4-5.3-53.8-19.9c0,0-13.5-9-9.2-23c0,0,5.8-20.5,43-23.1c0,0,2.2-0.5,2.5,1.7c0,0-0.2,1.8-3.1,2.1c0,0-16,1.2-27.8,9.3
		c0,0-12.3,7.4-10.8,16.1c0,0-0.2,10.6,15,17.7C194.2,292.6,213.7,303.7,240,306.6z"/>
	<path class="st4" d="M461.8,256.5l-0.9,3.7c0,0-0.9,3.4-5,0l-6-4.7c0,0-5.7-4.2,0.6-6.3l10.2-3.1c0,0,3.8-1.6,3.3,2.8l-0.6,2.5
		c0,0,33.4,5.3,53.8,19.9c0,0,13.5,9,9.2,23c0,0-5.8,20.5-43,23.1c0,0-2.2,0.5-2.5-1.7c0,0,0.2-1.8,3.1-2.1c0,0,16-1.2,27.8-9.3
		c0,0,12.3-7.4,10.8-16.1c0,0,0.2-10.6-15-17.7C507.6,270.5,488.1,259.5,461.8,256.5z"/>
</g>
</svg>
