<?xml version="1.0" encoding="utf-8"?>
<!-- Generator: Adobe Illustrator 20.1.0, SVG Export Plug-In . SVG Version: 6.00 Build 0)  -->
<svg version="1.1" id="Layer_1" xmlns="http://www.w3.org/2000/svg" xmlns:xlink="http://www.w3.org/1999/xlink" x="0px" y="0px"
	 viewBox="0 0 703 558" style="enable-background:new 0 0 703 558;" xml:space="preserve">
<style type="text/css">
	.st0{fill-rule:evenodd;clip-rule:evenodd;fill:#80CFF3;}
	.st1{fill-rule:evenodd;clip-rule:evenodd;fill:#FFFFFF;}
</style>
<circle class="st0" cx="364.1" cy="272.1" r="234.5"/>
<path class="st1" d="M355.1,324.7c0.9,11.8,11.3,21.1,23.1,21.6c15.1,0.7,26.2-10.4,26.3-26.7c0.1-18.2,0-36.5,0-54.7
	c0-1.7-0.1-3.5,0.4-5.2c0.2-0.9,1.6-2,2.4-2c0.8,0,1.8,1.3,2.2,2.2c0.4,0.9,0.2,2.1,0.2,3.1c0,19.3-0.1,38.6,0,58
	c0.1,14.2,11.4,25.4,25.2,25.3c13.9-0.1,24.8-11.1,24.8-25.5c0.1-16,0-32,0-48c0-8,0-16,0-24c0-8,0-16,0-24
	c-0.1-19.4-18.9-31.1-36.4-22.7c-11,5.3-17.3,4.4-26.1-3.8c-9.3-8.7-21.7-9.9-32.1-2.6c-10.4,7.3-21.2,9-33.2,4.9
	c-9.4-3.2-18.3-1.1-25.1,5.9c-8.3,8.5-17.4,9.7-28.1,5.8c-18.2-6.6-34.7,5.1-34.8,24.4c0,24.4,0,48.7,0,73.1
	c0,14.4,10.7,25.3,24.9,25.3c14.3,0,25-10.7,25.1-25.1c0-13.2,0-26.5,0-39.7c0-3.3-0.2-6.6,0.2-9.9c0.1-1,1.6-1.9,2.4-2.8
	c0.9,0.9,2.2,1.7,2.6,2.7c0.5,1.4,0.2,3.1,0.2,4.7c0,18.1-0.1,36.2,0,54.3c0.1,10.3,6.5,19.2,16.2,22.8c16.6,6.1,33.6-6.1,33.8-24.5
	c0.2-18.6,0-37.2,0.1-55.7c0-1.4,1.6-2.8,2.5-4.2c0.8,1.2,2.2,2.3,2.2,3.5c0.3,12.1,0.4,24.1,0.5,36.2
	C354.9,306.4,354.4,315.6,355.1,324.7"/>
<path class="st1" d="M476.4,317.7c-0.1-8.5-4.1-14.9-11.3-20.3c0,8.7,0.2,16.7,0,24.7c-0.4,13.1-9.3,24.5-21.9,28.1
	c-12.7,3.7-25.9-1.2-33.5-12.2c-0.8-1.2-1.7-2.4-2.6-3.8c-8.6,16.1-30.2,25.2-50.3,7.5c-6.3,14.4,1.8,33.7,20.7,34.6
	c25.3,1.1,50.7,0.6,76,0c13.1-0.3,22.9-11.5,23-24.6C476.5,340.4,476.5,329.1,476.4,317.7"/>
</svg>
