<?xml version="1.0" encoding="utf-8"?>
<!-- Generator: Adobe Illustrator 20.1.0, SVG Export Plug-In . SVG Version: 6.00 Build 0)  -->
<svg version="1.1" id="Layer_1" xmlns="http://www.w3.org/2000/svg" xmlns:xlink="http://www.w3.org/1999/xlink" x="0px" y="0px"
	 viewBox="0 0 703 558" style="enable-background:new 0 0 703 558;" xml:space="preserve">
<style type="text/css">
	.st0{opacity:0.6;}
	.st1{fill:#FFFFFF;}
</style>
<g class="st0">
	<circle class="st1" cx="223.8" cy="189.8" r="33.7"/>
	<circle class="st1" cx="223.8" cy="286.8" r="33.7"/>
	<circle class="st1" cx="223.8" cy="384" r="33.7"/>
	<path class="st1" d="M509.3,224.2H294c-8.2,0-15-6.8-15-15v-38.7c0-8.2,6.8-15,15-15h215.3c8.2,0,15,6.8,15,15v38.7
		C524.3,217.4,517.6,224.2,509.3,224.2z"/>
	<path class="st1" d="M509.3,321.2H294c-8.2,0-15-6.8-15-15v-38.7c0-8.2,6.8-15,15-15h215.3c8.2,0,15,6.8,15,15v38.7
		C524.3,314.4,517.6,321.2,509.3,321.2z"/>
	<path class="st1" d="M509.3,417.2H294c-8.2,0-15-6.8-15-15v-38.7c0-8.2,6.8-15,15-15h215.3c8.2,0,15,6.8,15,15v38.7
		C524.3,410.4,517.6,417.2,509.3,417.2z"/>
</g>
</svg>
