<?xml version="1.0" encoding="utf-8"?>
<!-- Generator: Adobe Illustrator 20.1.0, SVG Export Plug-In . SVG Version: 6.00 Build 0)  -->
<svg version="1.1" id="Layer_1" xmlns="http://www.w3.org/2000/svg" xmlns:xlink="http://www.w3.org/1999/xlink" x="0px" y="0px"
	 viewBox="0 0 703 558" style="enable-background:new 0 0 703 558;" xml:space="preserve">
<style type="text/css">
	.st0{fill:#80CFF3;}
</style>
<g>
	<g>
		<defs>
			<polyline id="SVGID_1_" points="1511,-1213.3 -3532.4,-1213.3 -3532.4,7752.7 1511,7752.7 			"/>
		</defs>
		<clipPath id="SVGID_2_">
			<use xlink:href="#SVGID_1_"  style="overflow:visible;"/>
		</clipPath>
	</g>
</g>
<g>
	<g>
		<defs>
			<polyline id="SVGID_3_" points="1511,-1213.3 -3532.4,-1213.3 -3532.4,7752.7 1511,7752.7 			"/>
		</defs>
		<clipPath id="SVGID_4_">
			<use xlink:href="#SVGID_3_"  style="overflow:visible;"/>
		</clipPath>
	</g>
</g>
<g>
	<g>
		<defs>
			<polyline id="SVGID_5_" points="1511,-1213.3 -3532.4,-1213.3 -3532.4,7752.7 1511,7752.7 			"/>
		</defs>
		<clipPath id="SVGID_6_">
			<use xlink:href="#SVGID_5_"  style="overflow:visible;"/>
		</clipPath>
	</g>
</g>
<g>
	<path class="st0" d="M440,198.5c51.5,3.9,58,11.1,58,61.2c0,54.8,0.1,109.5,0,164.3c-0.1,33.3-13.3,46.2-47.1,46.2
		c-71.7,0.1-143.4,0.1-215,0c-33.8-0.1-46.8-12.9-46.9-46.4c-0.1-54.8,0-109.5,0-164.3c0-50,6.4-57,58-61.1c0-13.2-0.2-26.6,0-40.1
		c1.1-52.8,43.3-93.8,96.5-93.8c53.1,0,95.3,41,96.5,93.9C440.3,171.2,440,184,440,198.5z M401.4,198.6c1.3-33.7,7.2-67-26.7-87.6
		c-21.9-13.3-44.4-12.7-65.4,1.8c-31.3,21.5-24.9,53.7-23.7,85.8C324.3,198.6,361.6,198.6,401.4,198.6z M344.4,373.6
		c20-0.6,38.2-19.7,37.6-39.5c-0.6-20-19.7-38.2-39.5-37.6c-20.1,0.6-38.2,19.6-37.6,39.5C305.5,356,324.6,374.2,344.4,373.6z"/>
</g>
</svg>
