<?xml version="1.0" encoding="utf-8"?>
<!-- Generator: Adobe Illustrator 20.1.0, SVG Export Plug-In . SVG Version: 6.00 Build 0)  -->
<svg version="1.1" id="Layer_1" xmlns="http://www.w3.org/2000/svg" xmlns:xlink="http://www.w3.org/1999/xlink" x="0px" y="0px"
	 viewBox="0 0 703 558" style="enable-background:new 0 0 703 558;" xml:space="preserve">
<style type="text/css">
	.st0{fill:#7FCFF4;}
	.st1{fill:#FFFFFF;}
</style>
<circle class="st0" cx="345" cy="273.9" r="250"/>
<g>
	<path class="st1" d="M347.4,423.7c-1.1,0-2.2,0-3.3,0c-0.9-0.6-1.6-1.4-2.6-1.6c-23.9-6.7-47.9-13.3-71.8-19.9
		c-9.5-2.6-19-5.3-28.7-7.9c0-1.3,0-2.5,0-3.7c0-61.7,0-123.5,0-185.2c0-21.3,0-42.6,0-63.9c0.4,0,0.7,0,1.1,0
		c0.6,0.3,1.3,0.7,1.9,0.9c33.3,9.2,66.6,18.4,100,27.5c1.2,0.3,2.6,0.2,3.7-0.1c27.9-7.7,55.9-15.3,83.8-23.1
		c6-1.7,11.9-3.5,17.8-5.2c0.4,0,0.7,0,1.1,0c0,0.6,0,1.3,0,1.9c0,82.8,0,165.5,0,248.3c0,0.8,0,1.6,0,2.6c-1,0.3-1.9,0.6-2.7,0.8
		c-32.6,9-65.2,18-97.8,27C349,422.3,348.2,423.1,347.4,423.7z M358.5,404.2c1.1-0.2,1.8-0.3,2.4-0.5c24.1-6.7,48.3-13.3,72.4-19.9
		c2-0.6,2.5-1.5,2.5-3.4c0-72.2,0-144.4,0-216.6c0-0.9,0-1.8,0-2.9c-1.3,0.3-2.1,0.5-3,0.7c-23.7,6.5-47.4,13.1-71.1,19.5
		c-2.5,0.7-3.2,1.7-3.2,4.3c0.1,71.8,0.1,143.7,0.1,215.5C358.5,401.9,358.5,402.9,358.5,404.2z M282.8,267.4
		c-0.1,0.9-0.2,1.3-0.2,1.8c0,17.1,0,34.2-0.1,51.2c0,1.8,0.8,2.3,2.3,2.7c9.9,2.6,19.8,5.3,29.8,7.9c7.6,2,15.2,4,22.9,6.1
		c0.1-0.7,0.2-1.2,0.2-1.6c0-17.2,0-34.3,0.1-51.5c0-1.9-1-2.2-2.4-2.6c-10.3-2.7-20.5-5.5-30.8-8.2
		C297.4,271.3,290.3,269.4,282.8,267.4z M308.2,239.1c0-18.6,0-36.8,0-55.1c-18.3-4.9-36.5-9.7-54.9-14.6c0,18.7,0,36.9,0,55.1
		C271.6,229.4,289.8,234.2,308.2,239.1z"/>
	<path class="st1" d="M429.6,171.3c0,1.1,0,2,0,2.9c0,19.8,0,39.5,0.1,59.3c0,2.2-0.5,3.2-2.8,3.8c-19.9,5.2-39.7,10.5-59.6,15.8
		c-0.7,0.2-1.4,0.3-2.4,0.5c-0.1-1-0.2-1.7-0.2-2.5c0-20,0-40.1,0-60.1c0-1.7,0.4-2.6,2.2-3.1c20.2-5.3,40.4-10.7,60.6-16.1
		C428.1,171.5,428.8,171.4,429.6,171.3z M419.7,228.9c0-15.1,0-30,0-45c-14.4,3.9-28.6,7.7-42.8,11.4c-1.9,0.5-2.4,1.3-2.4,3.2
		c0.1,13.2,0,26.4,0,39.7c0,0.8,0.1,1.6,0.1,2.8C389.8,236.9,404.8,232.9,419.7,228.9z"/>
</g>
</svg>
