<?xml version="1.0" encoding="utf-8"?>
<!-- Generator: Adobe Illustrator 20.1.0, SVG Export Plug-In . SVG Version: 6.00 Build 0)  -->
<svg version="1.1" id="Layer_1" xmlns="http://www.w3.org/2000/svg" xmlns:xlink="http://www.w3.org/1999/xlink" x="0px" y="0px"
	 viewBox="0 0 703 558" style="enable-background:new 0 0 703 558;" xml:space="preserve">
<style type="text/css">
	.st0{opacity:0.6;fill-rule:evenodd;clip-rule:evenodd;fill:#FFFFFF;}
</style>
<g>
	<g>
		<defs>
			<polyline id="SVGID_1_" points="1511,-1213.3 -3532.4,-1213.3 -3532.4,7752.7 1511,7752.7 			"/>
		</defs>
		<clipPath id="SVGID_2_">
			<use xlink:href="#SVGID_1_"  style="overflow:visible;"/>
		</clipPath>
	</g>
</g>
<g>
	<g>
		<defs>
			<polyline id="SVGID_3_" points="1511,-1213.3 -3532.4,-1213.3 -3532.4,7752.7 1511,7752.7 			"/>
		</defs>
		<clipPath id="SVGID_4_">
			<use xlink:href="#SVGID_3_"  style="overflow:visible;"/>
		</clipPath>
	</g>
</g>
<g>
	<g>
		<defs>
			<polyline id="SVGID_5_" points="1511,-1213.3 -3532.4,-1213.3 -3532.4,7752.7 1511,7752.7 			"/>
		</defs>
		<clipPath id="SVGID_6_">
			<use xlink:href="#SVGID_5_"  style="overflow:visible;"/>
		</clipPath>
	</g>
</g>
<path class="st0" d="M299.2,281c-16.6,14.4-33.3,28.8-49.9,43.2c-13.3,11.5-26.5,23-39.8,34.6V196.2"/>
<path class="st0" d="M209.5,196.2c10.2,8.8,20.4,17.6,30.5,26.4c13.2,11.5,26.4,22.9,39.6,34.4c7.7,6.7,15.5,13.5,23.5,20.4
	c-1.4,1.3-2.7,2.5-4,3.6"/>
<path class="st0" d="M503.7,358.8c-10.3-9-20.7-17.9-31-26.9c-15.1-13.1-30.2-26.2-45.3-39.3c-5.3-4.6-10.7-9.3-16-13.9
	c-0.4-0.4-0.9-0.6-1.7-1c4.3-3.8,8.2-7.1,12-10.5c13.3-11.6,26.6-23.2,40-34.7c14-12.1,28-24.2,42-36.3V358.8z"/>
<path class="st0" d="M356.6,302.6c-44.4-38.6-88.8-77.1-133.6-116h267.1C445.3,225.5,401,264,356.6,302.6"/>
<path class="st0" d="M489.6,368.3H222.9c31.1-27,61.8-53.6,92.5-80.4c13.7,11.9,27.4,23.7,41.2,35.7c13.7-11.9,27.3-23.7,41.2-35.7
	c30.7,26.7,61.3,53.2,92,79.8C489.7,368,489.6,368.2,489.6,368.3"/>
</svg>
