<?xml version="1.0" encoding="utf-8"?>
<!-- Generator: Adobe Illustrator 20.1.0, SVG Export Plug-In . SVG Version: 6.00 Build 0)  -->
<svg version="1.1" id="Layer_1" xmlns="http://www.w3.org/2000/svg" xmlns:xlink="http://www.w3.org/1999/xlink" x="0px" y="0px"
	 viewBox="0 0 703 558" style="enable-background:new 0 0 703 558;" xml:space="preserve">
<style type="text/css">
	.st0{clip-path:url(#SVGID_2_);}
	.st1{clip-path:url(#SVGID_4_);fill:#FFFFFF;}
	.st2{fill:#E6E7E8;}
	.st3{fill:#3B3B3C;}
	.st4{fill:#333132;}
</style>
<g>
	<defs>
		<polygon id="SVGID_1_" points="545,245 247.6,245 384.2,108.3 349.5,73.9 154,269.4 349.5,464.9 384,430.4 247.6,293.8 545,293.8 
					"/>
	</defs>
	<use xlink:href="#SVGID_1_"  style="overflow:visible;fill-rule:evenodd;clip-rule:evenodd;fill:#FFFFFF;"/>
	<clipPath id="SVGID_2_">
		<use xlink:href="#SVGID_1_"  style="overflow:visible;"/>
	</clipPath>
	<g class="st0">
		<defs>
			<rect id="SVGID_3_" x="-334.8" y="-1074.7" width="8797.5" height="19501.1"/>
		</defs>
		<use xlink:href="#SVGID_3_"  style="overflow:visible;fill:#FFFFFF;"/>
		<clipPath id="SVGID_4_">
			<use xlink:href="#SVGID_3_"  style="overflow:visible;"/>
		</clipPath>
		<rect x="31.8" y="-48.3" class="st1" width="635.4" height="635.4"/>
	</g>
</g>
<g>
	<circle class="st2" cx="350.4" cy="286" r="207.2"/>
	<path class="st3" d="M350.4,497.8c-116.8,0-211.8-95-211.8-211.8s95-211.8,211.8-211.8s211.8,95,211.8,211.8
		S467.2,497.8,350.4,497.8z M350.4,83.4c-111.7,0-202.6,90.9-202.6,202.6s90.9,202.6,202.6,202.6S553,397.7,553,286
		S462.1,83.4,350.4,83.4z"/>
</g>
<g>
	<path class="st4" d="M422.5,200.3c0,0,15.3,2.7,22.4,7.8c0,0,10.2,5.8,10.9,10.7c0,0,2.2,13.7-0.6,24.3l-4.4-2.4
		c0,0,1.9-12.1-0.7-20.1c0,0-4.8-3.9-8.5-5.8c0,0-13.1-10.2-22.6-9.9L422.5,200.3z"/>
	<path class="st4" d="M416.1,214.9c0,0,4-14.6,5.2-21c0,0,2.3-11.9,3.1-15.8c0,0-0.6-3.9-6.4-5c0,0-6.9-1.3-13.3-1.2l5.5-5.2
		l10.9,2.3c0,0,5,0.7,6.1,4.1c0,0,3,5.3,1.7,11.6c0,0-2.3,16.7-6.5,25.7L416.1,214.9z"/>
	<path class="st4" d="M454.5,242l-2.5-9.5c-3.4,14.7-6.7,29.3-10.4,43.9c-5.1,19.8-14.8,37.3-27.8,52.9c-4.5,5.4-9.7,9.9-15.9,13.1
		c-2.5,1.3-5.7,1.1-8.6,1.5c-6.4,0.8-12.9,1.2-19.3-0.2c-7.2-1.6-13.2-4.7-16.5-12c-3.6-8-8.5-15.5-10.2-24.4
		c-1.7-9.2-0.7-18,4.4-26.1c1.2-1.9,2.7-2.8,4.9-3c4-0.3,7.9-0.6,11.8-1.1c5.5-0.7,9.7-3.4,11.6-8.9c0.9-2.7,3-3.7,5.6-3.8
		c2.9-0.1,5.9,0.1,8.8,0.3c4.2,0.4,8-0.2,11.5-3c0.6-0.5,2.3-0.6,2.8-0.1c2.6,2.4,5.4,4.8,7.4,7.7c5,7.4,9.5,15.1,14.3,22.7
		c-0.1-8.9-6.6-15.2-9.3-23.2c4.1,5.1,8.2,10.2,12.3,15.2c0.3-0.1,0.5-0.3,0.8-0.4c-0.2-0.8-0.2-1.7-0.6-2.4
		c-2.3-3.9-4.3-8.2-7.2-11.7c-4.1-5.1-8.9-9.6-13.5-14.3c-1-1-1.2-1.8-0.5-3.1c1.8-3.3,3.6-6.6,5.4-10.1c1.2,0.6,2.1,1.1,3.4,1.8
		c-0.5-3.3-1.1-6.3-1.2-9.3c-0.1-3.5,0-7.2,0.8-10.6c0.6-2.8,1.6-5.4,2.7-8.1l0,0c0,0,0,0,0,0c0.5-1.1,0.9-2.2,1.4-3.3
		c0.2-0.4,0.6-0.8,1-1.1c1.5-3.8,1.3-6.9,1.1-8.1l-3.6,2.2c-0.1,0.9-0.2,1.9-0.5,2.8c-1,3.5-3.2,6.7-4.9,10
		c-0.6,1.3-1.5,2.6-1.6,3.9c-0.4,7.8-2,15.3-5.3,22.5c-2.3,5-5.4,8.8-8.7,10.8c-0.8-3.8-1.5-7.5-2.4-11c-0.3-1.4-0.8-2.9-1.3-4.2
		c-2.3-5.4-3.2-5.9-9.1-5.5c-1.8,0.2-3.7,0.2-6,0.3c0-4.7-0.7-9.3,0.1-13.6c2.4-11.9,5.4-23.7,8.1-35.5c0.6-2.7,1.6-5.3,2.2-8
		c0.7-3.6,3.2-5.7,6.4-6c4.1-0.3,8.3-0.2,12.6-0.2l3.6-4.8c-1.5-0.3-2.6-0.4-2.6-0.4c-5.1-0.7-10.3-0.9-15.5,0
		c-4.6,0.9-8.1,3.3-10.6,7.7c-1.4-1.6-2.9-2.8-3.8-4.3c-2.5-4.5-6.8-5.7-11.3-6.3c-3.5-0.5-7-0.8-10.5-1c-3.9-0.3-7.2,1.3-10,3.9
		c-3.9,3.7-7.8,7.3-12,11.2c-2.5-3.1-6.3-4.9-10.8-5.6c-7-1-12.8,0.7-16.6,7.1c-1.3,2.2-2.7,4.4-4.2,6.5c-3.3,4.6-7.2,6.5-13.3,5.4
		c-7.6-1.3-16.8,2.1-21.1,11.8c-3.6,8.1-7,16.2-10.7,24.3c-1.9,4.1-3.1,8.3-2.9,12.8c0,1.1-0.3,2.2-0.4,3.3c0,5.2,0,10.3,0,15.5
		c0.6,6.6,0.9,13.2,1.7,19.8c3.1,25.5,9,50.1,23.1,72.1c1.8,2.9,3.7,5.8,5.9,8.3c2.1,2.4,2.9,4.9,3,8c0.7,16.3,1.6,32.6,2.3,48.9
		c0.1,1.9,0.7,2.9,2.5,3.7c16.8,7.5,34.6,10.3,52.9,9.8c7.7-0.2,15.4-1.1,23.2-1.8c1.2-0.1,2.5-0.6,3.6-1.2
		c9.4-5.6,18.8-11.4,28.2-17c1.6-0.9,2-1.9,2-3.7c-0.3-17.5-0.5-35.1-0.6-52.6c0-1,0.5-2.2,1.2-2.9c8.1-7.8,14.5-16.9,20.1-26.6
		c3.8-6.6,7.5-13.3,11.7-19.8c9.4-14.7,13.9-31,16.1-48.1c0.5-4.3,1.1-8.6,1.8-12.8L454.5,242z M359.7,266.5
		c-2.5,0.7-5.8-0.8-8.5-1.8c-0.8-0.3-1.5-2.4-1.4-3.6c0.2-2.1,0.9-4.2,1.8-6c0.4-0.9,2-1.7,3-1.6c2.9,0.3,5.8,0.9,8.7,1.7
		c1.2,0.4,2.1,1.7,2.6,2.1C365.6,262.4,363.2,265.6,359.7,266.5z M384.3,242.4c2,0.6,4,1.2,6.1,1.8c2.4,0.7,3.8,2,3.8,4.7
		c-0.1,3.2-1.1,4.6-4.1,5.3c-1.2,0.3-2.5,0.3-3.3,0.4c-1.3-0.1-2-0.1-2.7-0.1c-5.5-0.5-7.4-3.3-5.9-8.7
		C379,242.4,381,241.4,384.3,242.4z M358.6,168.1c1.7-0.2,3.3-0.3,5-0.5c10.5-0.9,19.2,8.3,17.4,18.7c-1.5,8.4-3.7,16.8-4.9,25.2
		c-1.4,9.7-2.1,19.4-2.8,29.2c-0.6,8.1-1,16.2-1.2,24.3c-0.1,2.8-2.1,2.8-4,3.7c2.5-6.4-0.9-11.8-2.9-17.3c-0.2-0.6-0.6-1.2-1-1.6
		c-3.7-4-14-2.2-16,2.9c-0.9,2.5-1.4,5.1-2.8,8.1c-0.4-0.8-1.2-1.6-1.3-2.4c-0.2-3.2-0.2-6.5-0.2-9.7c-0.4-20.9-0.9-41.9-1.2-62.8
		C342.5,177.3,350,169,358.6,168.1z M342.4,266.6c0.4,2.4,1.9,5.1-0.7,7.2c-0.9,0.7-2,1.5-3.1,1.7c-3.1,0.4-6.2,0.6-9.3,0.7
		c-3.3,0.1-4.9-1.9-4.4-5.1c0.5-3,1.1-5.9,1.7-8.7c3.9,0,7.5-0.1,11,0C340.2,262.5,341.9,264,342.4,266.6z M304.8,196.3
		c1.8-3.6,3.8-7.2,5.8-10.7c5.3-9.1,14.5-8.9,22.5-5.2c2.6,1.2,4,3.6,4.2,6.7c0.6,13.5,1.2,27.1,2,40.6c0.1,1.8-0.5,2.8-2.3,3.1
		c-2,0.3-4,0.7-6,1c-1.4,0.3-3.1,0.3-4.3,1c-1.1,0.6-1.8,2.1-2.7,3.1c1.2,0.8,2.3,2,3.6,2.4c1,0.3,2.3-0.3,3.4-0.7
		c2.6-0.8,5.2-1.6,8.3-2.5c0,6.3,0,12.1,0,18.4c-1.5,0-3.2-0.1-4.9,0c-1.9,0.1-3.9,0.2-5.8,0.5c-3.5,0.6-5.1,2.3-5.6,5.8
		c-0.6,4.3-1.2,8.5-1.9,12.8c-0.3,0.1-0.6,0.2-0.9,0.3c-0.4-1.2-1.1-2.3-1.2-3.5c-0.8-10.7-1.1-21.4-2.2-32
		c-1.3-13.4-5.2-26.1-12.1-37.9C304.4,198.7,304.3,197.2,304.8,196.3z M274.2,210.3c0.7-13.1,13.7-15.8,21.9-12.7
		c0.7,0.3,1.3,1,1.8,1.6c6.2,8.7,10,18.4,12.4,28.7c0.3,1.1-0.9,3.5-2,3.9c-2.6,1.2-5.5,1.6-8.4,2.2c-0.8,0.2-1.7-0.2-2.5,0
		c-0.7,0.2-1.8,0.8-1.9,1.4c-0.1,0.7,0.7,1.9,1.2,2c1.8,0.3,3.8,0.6,5.6,0.2c2.7-0.5,5.3-1.6,8.5-2.5c0.9,4.9,1.7,9.5,2.6,14.2
		c-2,0.2-3.9,0.2-5.6,0.6c-3.8,0.8-6.1,3.5-6.2,7.4c-0.1,2.4,0,4.8,0,7.3c-3-0.2-4.4-2.1-5.6-4.2c-5.6-10.2-11.1-20.4-16.6-30.6
		C276.3,223.9,273.8,217.6,274.2,210.3z M313.4,260.2c-1.7,1.7-3.1,4-6.6,3.3c0-1.5,0-2.9,0-4.8c2.2,0.2,4.3,0.4,6.5,0.6
		C313.2,259.7,313.3,259.9,313.4,260.2z M272.1,217.2c1.4,5.2,2.7,10,4.2,15.4c-4-2-7.4-3.7-11.2-5.5
		C267,223.4,267,218.8,272.1,217.2z M264.9,233.3c3.3,3.5,7.7,4.5,12.1,5.7c5,1.4,7.2,3.8,7.3,8c-6.7,0.6-13.3,1.3-19.9,1.9
		c-0.6,0.1-1.2,0-1.9,0C261.8,243.4,260.3,238,264.9,233.3z M337,421.9c-11.2-1.9-22.3-4.2-33.4-6.3c-0.7-0.1-1.8-0.5-2-1.1
		c-1.4-3.2-3.4-6.2-3.3-10.1c0.2-10.8,0.1-21.6,0.1-32.4c0-1.6,0-2.9,2.1-3.1c1.9-0.2,3.4,0.1,4.1,2.2c1.6,4.6,1.9,4.8,6.8,4.5
		c8.9-0.5,17-2.9,24-8.7c0.5-0.4,1-0.8,1.4-1.3c0.2-0.2,0.2-0.5,0.4-0.8c-8.4,1.1-16,5.4-23.9,5.1c4.4-1.3,9.4-2.5,14.2-4.4
		c4.9-1.9,9.5-4.5,14.6-7c0.1,21.2-0.3,42,4.3,63.2C342.9,421.9,339.8,422.4,337,421.9z M355.3,421.8c-0.6,0.1-1.3,0.2-2.7,0.4
		c-0.5-4.3-1.4-8.5-1.5-12.8c-0.1-7.6,0.3-15.1,0.5-22.7c0.1-5.1-0.2-10.1-2.1-15.4c-2.1,8.6-0.2,17.1-2.2,25.2c-0.4,0-0.9,0-1.3,0
		c-0.2-3.7-0.5-7.4-0.4-11.1c0.2-7.5,0.8-15.1,0.7-22.6c0-4.2-1.9-8-4.6-10.7c-5.5,2.3-10.5,4.9-15.8,6.6c-7,2.3-14.4,2.2-21.6,0.8
		c-5.1-1-9.3-3.4-13.1-7.2c-11.4-11.5-17.4-25.6-20.7-41.2c-2.9-13.8-5.6-27.6-8.5-41.4c-0.6-2.8-1.7-5.4-2.3-8.2
		c-1-4.4,0.6-7.6,5.1-8.2c4.8-0.7,9.7-0.3,14.6-0.5c5.4-0.3,8.8,2.2,11.1,7.1c1.2,2.7,3,5.1,4.8,7.4c2.8,3.4,6.1,5.7,11,4.7
		c3.1-0.7,5.9,0.7,8.1,2.8c1.8,1.7,3.4,3.6,5,5.5c3.4,4.1,7.3,7.3,13.5,6.8c-1.8,7.2-3.6,14.1-5.3,21c0.1,0.1,0.3,0.1,0.4,0.2
		c0.5-1,1.1-2.1,1.6-3.1c2.6-5.4,5.2-10.8,8-16.1c0.5-1,1.8-1.6,2.8-2.4c0.3,0.2,0.6,0.4,0.9,0.7c-0.7,5-1.5,9.9-2.2,14.9
		c-0.4,2.9-1.1,5.8-1.3,8.7c-0.1,2.1,0.1,4.4,0.8,6.4c3.1,8.2,6.3,16.3,9.7,24.4c1,2.5,1.3,4.9,0.9,7.5c-0.6,3.7-1.2,7.5-1.4,11.2
		c-0.1,2.7,0.5,5.5,0.8,8.3c0.4,0,0.8,0,1.1,0.1c1.3-5.3,2.7-10.6,4-16c0.4,22.8-3.6,45.8,3.3,68.4
		C356.4,421.5,355.8,421.7,355.3,421.8z M385.6,379.5c-1.1,10.3-2.9,20.5-1.5,30.8c0.1,0.6-0.2,1.6-0.7,1.9
		c-5.4,2.8-10.7,5.8-16.3,8c-3.9,1.5-4.3,0.9-5.6-3.1c-3-9.3-3.7-19-3.5-28.7c0.3-13.5,0.8-27.1,1.2-41c6.5,2.3,12.6,4.4,18.7,6.6
		c0,0.3-0.1,0.6-0.1,0.8c-1.8-0.4-3.6-0.6-5.4-1.1c-1.4-0.4-2.7-1.2-4.2-1.3c-0.9-0.1-1.9,0.7-2.9,1.1c0.5,0.9,0.8,2,1.5,2.5
		c4.1,2.7,8.8,3.1,13.5,3.4c1.7,0.1,3.5,0,5.3,0C387,366.6,386.2,373.1,385.6,379.5z M387.8,406.3c-1.6-6.2-0.5-12.3,0.3-18.4
		c0.4-2.7,0.8-5.3,1.2-8c0.2,0,0.4,0,0.7,0c0.4,9.3,0.9,18.6,1.3,27.9C389.2,408.8,388.4,408.4,387.8,406.3z"/>
	<path class="st4" d="M414.2,235.3c0,0,13.1,8.9,17.7,15.7c0,0,1.1,1,0,2.5c0,0-1.1,0.5-2.6-1.5c0,0-9-9.8-16.1-14.4L414.2,235.3z"
		/>
	<path class="st4" d="M413.9,242.2c0,0,7.2,6.8,8.9,10.7c0,0,0.6,1.1,1.8,0.6c0,0,1-0.5,0-1.6c0,0-5.8-10.7-9.7-14.4l-4,0.8
		L413.9,242.2z"/>
</g>
</svg>
