<?xml version="1.0" encoding="utf-8"?>
<!-- Generator: Adobe Illustrator 20.1.0, SVG Export Plug-In . SVG Version: 6.00 Build 0)  -->
<svg version="1.1" id="Layer_1" xmlns="http://www.w3.org/2000/svg" xmlns:xlink="http://www.w3.org/1999/xlink" x="0px" y="0px"
	 viewBox="0 0 703 558" style="enable-background:new 0 0 703 558;" xml:space="preserve">
<style type="text/css">
	.st0{clip-path:url(#SVGID_2_);}
	.st1{clip-path:url(#SVGID_4_);fill:#FFFFFF;}
	.st2{fill:#E6E7E8;}
	.st3{fill:#3B3B3C;}
	.st4{fill:#333132;}
</style>
<g>
	<defs>
		<polygon id="SVGID_1_" points="545,245 247.6,245 384.2,108.3 349.5,73.9 154,269.4 349.5,464.9 384,430.4 247.6,293.8 545,293.8 
					"/>
	</defs>
	<use xlink:href="#SVGID_1_"  style="overflow:visible;fill-rule:evenodd;clip-rule:evenodd;fill:#FFFFFF;"/>
	<clipPath id="SVGID_2_">
		<use xlink:href="#SVGID_1_"  style="overflow:visible;"/>
	</clipPath>
	<g class="st0">
		<defs>
			<rect id="SVGID_3_" x="-334.8" y="-1074.7" width="8797.5" height="19501.1"/>
		</defs>
		<use xlink:href="#SVGID_3_"  style="overflow:visible;fill:#FFFFFF;"/>
		<clipPath id="SVGID_4_">
			<use xlink:href="#SVGID_3_"  style="overflow:visible;"/>
		</clipPath>
		<rect x="31.8" y="-48.3" class="st1" width="635.4" height="635.4"/>
	</g>
</g>
<g>
	<circle class="st2" cx="350.4" cy="286" r="207.2"/>
	<path class="st3" d="M350.4,497.8c-116.8,0-211.8-95-211.8-211.8s95-211.8,211.8-211.8s211.8,95,211.8,211.8
		S467.2,497.8,350.4,497.8z M350.4,83.4c-111.7,0-202.6,90.9-202.6,202.6s90.9,202.6,202.6,202.6S553,397.7,553,286
		S462.1,83.4,350.4,83.4z"/>
</g>
<g id="_x34_HwqvF.tif">
	<g>
		<path class="st4" d="M347.1,449.1c0,0-0.1,0-0.1,0c-0.2-0.1-0.5-0.2-0.7-0.3c-11.1-3.2-22.2-6.3-33.3-9.4
			c-0.3-0.1-0.6-0.2-0.8-0.3c0-0.1,0-0.2,0-0.2c-0.1-4.4-0.7-8.7-1.4-13.1c-0.8-4.7-1.7-9.4-2.5-14.2c-0.6-3.7-1.2-7.4-1.3-11.2
			c0-0.4-0.2-0.7-0.4-0.9c-1.3-1.4-2.6-2.7-3.8-4.1c-5.3-6.1-9.2-13-11.3-20.9c-1.9-7.3-3.6-14.7-5-22.2c-1-5.3-1.9-10.6-2.9-15.8
			c0-0.2-0.2-0.4-0.3-0.6c0-1.6,0-3.2,0-4.8c0-0.4,0.1-0.8,0.1-1.1c0.1-3.1,0.3-6.1,0.4-9.2c0.3-5.7,0.8-11.3,1.6-17
			c0.8-5.7,1.8-11.4,3-17.1c1.8-8.6,4.1-17.1,6.8-25.5c0.2-0.5,0.4-0.8,0.9-1.1c5.2-2.7,10.3-5.5,15.4-8.2c0.2-0.1,0.4-0.2,0.5-0.3
			c0-0.2,0-0.3,0-0.5c-0.3-2-0.6-4-0.8-6c-0.2-2.1-0.3-4.1,0-6.2c1.1-6.3,4.7-10.5,10.6-12.8c2.7-1,5.6-1.4,8.5-1.6
			c2.5-0.1,5.1-0.1,7.6-0.1c0.5,0,0.9,0.2,1.2,0.5c1.8,1.9,3.4,4,4.7,6.3c1.8,3.2,3.5,6.4,5.3,9.6c0.1,0.2,0.2,0.4,0.4,0.7
			c0.1-0.1,0.1-0.2,0.2-0.3c0.1-0.2,0.2-0.4,0.2-0.7c1.2-3.5,1.7-7.1,2-10.8c0.3-3.8,0.5-7.6,0.6-11.4c0.1-3.9,0.5-7.7,0.9-11.6
			c0.3-3,0.6-6.1,1-9.1c0.3-2.6,0.5-5.3,0.8-7.9c0.1-0.6,0-1.2-0.2-1.8c-3-9.3-5.7-18.6-8.4-27.9c-0.3-0.9-0.3-1.8-0.2-2.8
			c0-0.2,0.1-0.4,0.1-0.6c0.3-2.7,1.2-5.1,2.9-7.2c1-1.3,2.2-2.5,3.6-3.4c0.5-0.3,0.8-0.7,0.8-1.3c0-0.6,0.1-1.2,0.2-1.9
			c0.5-3.7,1.1-7.3,1.9-11c0.7-3,2.3-5.3,4.8-7c2.1-1.4,4.5-2.1,7-2.6c0.5-0.1,1.1-0.2,1.6-0.3c0.7,0,1.4,0,2.2,0
			c0.3,0.1,0.5,0.1,0.8,0.1c5,0.5,8.6,3.1,11,7.5c0.1,0.2,0.2,0.5,0.3,0.7c1.2,3.9,1.9,7.9,2.4,11.9c0.4,2.9,0.7,5.8,0.9,8.7
			c0.3,3.8,0.6,7.7,0.7,11.5c0.1,4.9,0,9.8,0.1,14.7c0,0.4,0,0.7,0.2,1.1c3.2,5.4,5.8,11.2,8.2,17c4.4,10.7,7.9,21.7,11.1,32.8
			c3,10.6,6,21.2,9.1,31.7c1.9,6.4,3.9,12.7,6.2,18.9c0.1,0.2,0.1,0.5,0.1,0.8c0,2.1,0,4.2-0.1,6.4c-0.2,5.8-0.9,11.6-1.8,17.3
			c-1.2,7.6-3,15.1-5.4,22.4c-4.4,13.5-8.9,26.9-13.4,40.4c-0.1,0.3-0.2,0.5-0.4,0.8c-2.1,3.7-3.7,7.6-4.8,11.6
			c-1.2,4.5-1.9,9-2.4,13.6c-0.6,5-0.8,10.1-0.9,15.1c0,5.5,0,11,0,16.6c0,0.4-0.1,0.8-0.4,1.1c-1.6,2.1-3.2,4.1-5.1,6
			c-5.9,5.9-12.7,10.2-20.6,12.9c-5.8,2-11.6,3.4-17.6,4.6C349,448.7,348,448.9,347.1,449.1z M394.3,321.4c0.5-0.7,0.9-1.4,1.4-2.2
			c1.7-2.8,3.2-5.6,4-8.8c0.7-2.4,0.9-4.9,0.4-7.4c-0.1-0.5-0.3-0.9-0.6-1.3c-1-1.2-1.9-2.5-2.9-3.7c-7.9-10-15.8-20-23.7-30
			c-0.2-0.3-0.4-0.5-0.6-0.8c-0.2,0.3-0.4,0.4-0.5,0.6c-2.1,2.6-4.3,5.2-6.5,7.8c-0.2,0.2-0.4,0.5-0.7,0.6c-1.2,0.4-2.3,0.8-3.5,1.1
			c-0.9,0.2-1.8,0.3-2.7,0.1c-0.5-0.1-0.9-0.3-1.2-0.8c4-5.4,8-10.8,11.9-16.1c-0.1-0.1-0.2-0.3-0.3-0.4c-0.9-0.8-1.7-1.6-2.6-2.2
			c-1.8-1.3-3.7-2.4-5.7-3.4c-4.6-2.3-9.3-4.6-13.9-6.9c-0.1-0.1-0.3-0.1-0.4-0.2c-0.1,0.2-0.3,0.4-0.4,0.6c-0.6,1-1.1,2-1.7,3
			c-2.1,3.7-4.8,6.9-8.3,9.5c-1.9,1.4-3.9,1.8-6.1,1.3c-1.6-0.3-3.1-1-4.5-1.8c-1.1-0.6-2.1-1.2-3.2-1.8c-1.1-0.5-2.2-1-3.4-1.1
			c-0.6-0.1-1.1-0.1-1.7,0.3c0,0.8,0,1.7,0,2.6c0,0.4,0.1,0.7,0.3,1c1.2,1.5,2.4,3,3.6,4.5c2.9,3.5,6.1,6.8,9.6,9.8
			c4.1,3.4,8.6,6,13.7,7.5c3.2,1,6.5,1.4,9.9,1c0.5-0.1,1-0.1,1.5-0.2c0,0.8-0.3,1.3-0.8,1.7c-0.5,0.5-1.2,0.9-1.9,1.2
			c-0.3,0.1-0.5,0.3-0.6,0.6c-0.5,1.8-0.4,3.5,0.7,5c0.5,0.7,1.1,1.4,1.7,1.9c2,1.8,4.1,3.5,6.2,5.2c0.1,0.1,0.3,0.2,0.5,0.3
			c-0.9,1-1.8,1.5-3.1,1.6c0.1,0.6,0.2,1.2,0.3,1.8c0.7,2.7,2,5.1,3.8,7.2c1.9,2.4,3.8,4.7,5.8,7.1c0.2,0.2,0.3,0.4,0.5,0.7
			c-0.2,0.2-0.4,0.4-0.5,0.6c-0.1,0.2-0.3,0.3-0.5,0.4c-0.1,0-0.2,0-0.2-0.1c-0.2-0.1-0.5-0.2-0.7-0.3c-3.4-1.5-6-3.8-8.1-6.7
			c-2.1-2.9-4.1-5.9-5.8-9.1c-0.1-0.1-0.2-0.3-0.3-0.5c-0.1,0.2-0.3,0.3-0.4,0.4c-5.7,7.6-10,15.9-12.8,25
			c-2.2,7.1-3.3,14.4-3.6,21.7c-0.2,6.4,0.1,12.9,1.4,19.2c0.9,4.3,2.2,8.5,4,12.5c0.2,0.4,0.4,0.6,0.8,0.7c1.8,0.3,3.6,0.7,5.5,1.1
			c3.9,0.8,7.8,1.7,11.8,2.6c2.2,0.5,4.4,0.8,6.6,0.9c3.5,0.2,6.9-0.4,10.2-1.4c0.2-0.1,0.4-0.1,0.6-0.3c3.9-2.3,7.5-4.9,10.6-8.2
			c3.7-3.9,6.4-8.4,7.9-13.5c1-3.4,1.5-6.9,1.9-10.4c0.6-4.7,1-9.4,1.3-14.2c0.3-6.2,0.5-12.3,0.5-18.5c0-0.2,0-0.4-0.1-0.7
			C397.5,320.6,395.8,320.9,394.3,321.4z M314.2,318.5c-0.2-0.2-0.3-0.5-0.4-0.7c-1.4-2.2-2.8-4.4-4.1-6.7c-2.8-5-5.1-10.3-7.3-15.6
			c-0.4-1-0.8-1.8-1.8-2.3c-0.5-0.2-0.9-0.6-1.3-0.9c-0.7-0.6-1.4-1.1-2.1-1.7c-0.6-0.5-1.2-0.8-1.9-1c-1.5-0.4-2.9,0.6-3.2,2
			c-0.3,1.5-0.5,2.9-0.8,4.4c-1.3,6.9-2.7,13.7-3.6,20.6c-0.3,2.7-0.6,5.3-0.6,8c0,2,0,4,0,5.9c0,0.3,0,0.6,0.1,0.9
			c2.8,11.9,5.5,23.8,8.3,35.7c0.7,3.1,1.5,6.2,2.6,9.2c2.8,7.7,7.1,14.4,13.1,20c0.3,0.3,0.7,0.5,1.2,0.5c1.9,0,3.9,0,5.8,0
			c3.8,0,7.6-0.3,11.4-1.2c3.8-0.9,7.2-2.5,10.1-5.1c0.8-0.8,1.6-1.6,2.3-2.5c-0.1-0.3-0.2-0.5-0.3-0.7c-1.7-3.2-3.1-6.5-4.4-9.9
			c-3.1-8.1-4.9-16.5-5.5-25.2c-0.3-4-0.2-7.9,0.1-11.9c0.3-3.5,0.8-6.9,1.8-10.2c0-0.1,0-0.3,0.1-0.4c-0.2,0.1-0.2,0.2-0.3,0.3
			c-1.2,2.6-2.4,5.3-3.5,7.9c-1,2.5-1.3,5.2-0.9,7.9c0.3,1.7,0.3,3.4,0.4,5c0.1,0.9,0,1.8-0.4,2.6c-0.2,0.6-0.6,1.1-1.2,1.5
			c-2.1-2.5-3.3-5.3-3.5-8.5c-0.3-4.2,0.5-8.3,1.9-12.3c1.1-3.1,2.3-6.1,3.4-9.1c0.1-0.2,0.2-0.5,0.3-0.8c-0.3,0-0.4,0.1-0.6,0.1
			c-0.9,0.2-1.9,0.4-2.8,0.7c-0.5,0.2-0.9,0-1.3-0.3c-1.1-1-2.2-1.9-3.6-2.5c-1.3-0.6-2.6-0.8-3.9-0.4c-1,0.3-1.9,0.8-2.7,1.4
			c-1.3,1-2.3,2.3-3.3,3.6c-0.7,1-1.4,2-2.1,2.9c-1,1.2-2,2.4-3,3.6c-0.2,0.2-0.5,0.4-0.8,0.7c-0.4-0.6-0.7-1-1-1.5
			C307.9,327.8,311,323.1,314.2,318.5z M300.5,288.1c-0.2-0.2-0.3-0.4-0.4-0.5c-0.5-0.5-1-1.1-1.4-1.6c-1.1-1.4-2.2-2.7-3.2-4.2
			c-1.1-1.6-0.8-3.3-0.1-5.1c0.7,0.2,1.3,0.3,2.1,0.5c0-0.3,0-0.5,0-0.8c0-1.1,0-2.3,0-3.4c0-0.8,0.1-1.5,0.4-2.3
			c0.3-0.7,0.8-1.2,1.6-1.4c0.1,0.6,0.2,1.1,0.3,1.6c1.3,6.1,2.8,12,5.1,17.8c0.9,2.4,2,4.8,3.1,7.1c2.9,5.8,6,11.4,9.2,17
			c0.9,1.6,1.9,3,3.3,4.3c1.2,1.1,2.5,2,4.1,2.5c0.2,0.1,0.5,0.1,0.7,0.2c-0.7-0.8-1.2-1.7-1.4-2.7c-0.2-1-0.4-2-0.4-3.1
			c-0.1-1.9,0-3.8,0-5.7c0-1.3,0.4-2.5,1.1-3.6c0.7-1.2,1.8-1.8,3.1-2c1-0.1,2,0,2.9,0.2c0.2,0,0.4,0.1,0.7,0.1
			c-0.1-0.6-0.1-1.1-0.2-1.6c-0.4-3.6-0.8-7.3-1.1-10.9c-0.2-3.4-1-6.8-2.2-10c-0.1-0.3-0.3-0.6-0.6-0.8c-0.7-0.5-1.4-1.1-2-1.6
			c-2.9-2.5-5.3-5.4-7.5-8.5c-2.8-3.9-5.6-7.9-8.4-11.9c-0.2-0.2-0.3-0.5-0.5-0.7c-0.2,0.1-0.3,0.1-0.3,0.1
			c-3.4,1.5-6.7,3.3-9.8,5.3c-1.9,1.2-3.2,3-3.9,5.1c-0.4,1.3-0.6,2.6-0.6,4c0,0.3-0.1,0.7-0.3,1c-2.1,4.4-1.6,8.6,1.1,12.6
			c0.8,1.1,1.8,1.9,3.1,2.3C299,288,299.7,288.2,300.5,288.1z M385.2,185.3c-0.1-0.3-0.2-0.4-0.2-0.6c-2.6-6.3-5.3-12.6-7.9-18.8
			c-0.1-0.3-0.3-0.6-0.5-0.9c-2.7-3.8-5.5-7.6-8.2-11.4c-0.5-0.7-1-1.4-1.6-2c-2.5-2.7-5.5-4.3-9.2-4.5c-0.4,0-0.7,0.1-1,0.3
			c-1.3,1-2.5,2.1-3.6,3.3c-1.1,1.3-2,2.8-2.6,4.5c-0.9,2.5-0.8,5.1-0.1,7.7c0.9,3.4,2.3,6.6,3.7,9.8c1.3,3,2.6,6,3.9,9.1
			c0.6,1.4,1,2.8,1.2,4.3c0,0.2,0.1,0.3,0.1,0.5c0.4,1,0.9,2,1.6,2.8c0.7,0.8,1.5,1.4,2.5,1.8c1,0.4,1.9,0.4,3,0.1
			c4.5-1.5,8.9-2.9,13.4-4.3C381.5,186.4,383.3,185.9,385.2,185.3z M340.2,441.7c0.1-0.3,0.1-0.4,0.1-0.6c0.2-2.8,0.5-5.6,0.7-8.3
			c0.2-2.1,0.2-4.3,0.3-6.4c0.2-3.9,0.5-7.7,0.4-11.6c0-5.2,0-10.3,0-15.5c0-0.3,0-0.5,0-0.9c-0.4,0.2-0.7,0.3-1,0.4
			c-3.8,1.8-7.6,3.6-11.4,5.5c-3.2,1.6-6.7,2-10.2,1.8c-2.1-0.1-3.7-1.1-4.8-2.9c-0.1-0.1-0.1-0.2-0.3-0.4c0,0.4,0,0.6,0,0.8
			c0.1,1.9,0.1,3.8,0.2,5.6c0.2,2.7,0.4,5.4,0.6,8.1c0.3,2.9,0.6,5.8,0.9,8.8c0.3,2.9,0.7,5.8,1.1,8.7c0.1,0.7,0.2,1.5,0.3,2.2
			C324.9,438.6,332.5,440.2,340.2,441.7z M359,440.1c0.3,0,0.6-0.1,0.8-0.1c1.1-0.2,2.2-0.4,3.4-0.5c2.2-0.3,4.4-0.7,6.5-1.6
			c3.9-1.6,6.6-4.4,7.9-8.5c0.5-1.7,0.8-3.4,0.9-5.2c0.1-3.5-0.3-6.9-0.8-10.4c-0.5-3.6-1-7.1-1.5-10.7c-0.3-2.2-0.4-4.4-0.1-6.6
			c0.1-0.6,0.2-1.2,0.2-1.8c-6.3,0.7-12.5,1.4-18.7,2.1c0,0.3,0,0.4,0,0.6c-0.2,5.2-0.3,10.3-0.5,15.5c-0.2,7.2-0.1,14.4,0.9,21.6
			C358.3,436.3,358.6,438.2,359,440.1z M372.2,224.9c0,0.2,0,0.2,0,0.3c0.9,4,1.7,8.1,2.6,12.1c0.4,1.8,0.9,3.5,1.9,5.1
			c1.1,1.8,2.5,3.3,4,4.7c0.3,0.2,0.5,0.3,0.8,0.2c1.1-0.2,2.2-0.3,3.3-0.4c3.6-0.3,7.1,0.3,10.6,1.1c4,1,8.1,1.9,12.1,2.9
			c0.2,0,0.4,0.1,0.7,0.1c0-0.2,0-0.3-0.1-0.4c-0.3-1.5-0.7-3-1-4.5c-0.4-1.6-0.7-3.3-1.2-4.9c-2.2-7.1-4.5-14.1-6.7-21.1
			c-0.5-1.5-0.5-1.5-2.1-1.7c-3.9-0.4-7.7-0.1-11.5,0.8c-3.2,0.8-6.1,2.1-9.1,3.5C375.1,223.4,373.6,224.2,372.2,224.9z
			 M371.6,218.7c0.3-0.1,0.5-0.1,0.8-0.2c3.1-1,6.2-2.1,9.2-3.1c3.2-1.1,6.5-2.2,9.7-3.2c0.3-0.1,0.6-0.2,0.8-0.1
			c0.4,0.2,0.8,0.5,1.3,0.9c-3.2,1.3-6.3,2.6-9.3,3.9c0,0,0,0.1,0.1,0.1c4.5-0.8,9-1.7,13.5-2.5c-0.1-0.3-0.1-0.6-0.2-0.8
			c-0.6-2.7-1.2-5.5-1.8-8.2c-0.1-0.2-0.1-0.5-0.2-0.7c-2.7-5.1-5.3-10.3-8-15.4c-0.2-0.3-0.4-0.5-0.7-0.6
			c-3.7-0.8-7.3-0.5-10.8,1.2c-3.5,1.8-6.9,3.7-10.3,5.5c-0.2,0.1-0.4,0.3-0.5,0.5c-1.3,2.4-1.7,4.9-1.2,7.6
			c0.5,2.3,1.3,4.5,2.5,6.5c1.3,2.2,2.6,4.4,4,6.6C370.8,217.4,371.2,218,371.6,218.7z M415.4,273c0-0.3,0-0.5-0.1-0.7
			c-0.4-2.5-0.9-5.1-1.3-7.6c-0.1-0.3-0.2-0.7-0.4-0.9c-1-1.6-2.1-3.2-3.1-4.9c-0.2-0.3-0.5-0.5-0.8-0.6c-1.2-0.3-2.4-0.7-3.7-1.1
			c-4.2-1.2-8.4-2.5-12.8-3.3c-2.5-0.5-5.1-0.9-7.7-0.5c-2.9,0.4-5.3,1.5-7.4,3.6c-0.3,0.3-0.4,0.6-0.5,1c-0.3,1.5-0.1,3,0.4,4.4
			c0.5,1.5,1.3,2.9,2.3,4.2c1.9,2.6,3.7,5.2,5.3,8c0.9,1.7,2.4,2.7,4.2,3.2c2.1,0.6,4.2,0.6,6.4,0.2c2.4-0.4,4.6-1.1,6.9-1.9
			C407.1,274.8,411.1,273.2,415.4,273z M382.4,165.2c0,0,0.1,0,0.1-0.1c0-0.2,0-0.3,0-0.5c0-5.1,0-10.2,0-15.3c0-4-0.2-7.9-0.9-11.8
			c-0.3-1.8-0.6-3.5-1.3-5.2c-1.2-2.8-3.1-4.8-6-5.7c-2.9-0.9-5.9-1.3-9-1.1c-0.4,0-0.7,0.2-0.9,0.4c-1.9,1.9-3.4,4.1-4.4,6.6
			c-1.2,3.1-1.4,6.4-1.1,9.7c0,0.4,0.1,0.7,0.2,1.1c0.5,0,0.8,0,1.2,0.1c0.9,0.2,1.9,0.3,2.8,0.6c4.2,1.3,7.4,4.1,9.8,7.6
			c3,4.3,5.9,8.7,9,12.8C382.1,164.8,382.3,165,382.4,165.2z M361.1,208.2c-1.2,0-2.4,0-3.6,0c-0.4,0.9-0.7,1.9-0.8,2.9
			c-0.3,2.1-0.6,4.2-0.8,6.4c-0.2,2.5-0.4,4.9-0.5,7.4c-0.1,4.5,0,9,0,13.5c0,0.2,0,0.4,0.1,0.6c5.1-0.2,10.1-0.3,15.1-0.5
			c0-0.2,0-0.4,0-0.5c-0.2-1.2-0.3-2.3-0.5-3.5c-0.5-3.3-1.1-6.6-2.3-9.7c-2.1-5.4-4.2-10.8-6.3-16.2
			C361.3,208.5,361.2,208.4,361.1,208.2z M405.6,338.2c0,0,0.1,0,0.1,0c0.1-0.3,0.2-0.6,0.3-0.9c1.6-5.9,3.1-11.7,4.7-17.6
			c2.5-9.4,4.9-18.8,6.8-28.3c0.2-1.1,0.4-2.2,0.6-3.3c-2.4-0.7-4-0.2-5.6,1.5c0.7,0,1.3,0,1.9,0c0.4,0.8,0.2,1.6-0.3,2.2
			c-0.4,0.5-0.9,1-1.5,1.3c-0.8,0.5-1.7,0.9-2.6,1.3c-1.3,0.6-2.6,1.2-3.7,2c-0.7,0.5-1.3,1.2-1.6,2c-0.2,0.3-0.1,0.7,0,1
			c0.3,0.9,0.6,1.7,0.9,2.6c0.9,3.4,1.1,6.9,1,10.4c-0.1,4.5-0.3,9-0.5,13.4c-0.1,3-0.2,6-0.4,9C405.7,336,405.6,337.1,405.6,338.2z
			 M392.5,282.4c0.1,0.1,0.1,0.2,0.1,0.2c2,2.6,3.9,5.2,5.9,7.9c0.2,0.3,0.4,0.3,0.7,0.3c1-0.1,2.1-0.2,3.1-0.4
			c2.7-0.5,5.1-1.7,7.4-3.1c2.6-1.5,5.2-3,7.9-4.3c0.1,0,0.2-0.1,0.3-0.2c-0.9-1.9-1.7-3.8-2.6-5.7
			C407.4,277.2,399.9,279.2,392.5,282.4z M330.8,257.3c0-0.2,0-0.3,0-0.3c-0.4-1.5-0.1-2.9,0.7-4.2c0.4-0.7,0.9-1.3,1.5-1.9
			c1.7-1.8,3.5-3.6,5.2-5.4c0.2-0.2,0.3-0.4,0.5-0.6c-0.1-0.1-0.2-0.2-0.2-0.2c-2.2-1.7-4.4-3.5-6.7-5.2c-0.3-0.2-0.6-0.3-0.9-0.2
			c-2.1,0.7-4,1.8-5.6,3.4c-2.4,2.4-4.2,5.2-5.7,8.1c-0.1,0.2-0.2,0.4-0.2,0.6c-0.6,1.7-0.1,2.8,1.7,3.4c0.1,0,0.1,0,0.2,0.1
			c2,0.6,4.1,1.2,6.1,1.7C328.4,256.8,329.6,257,330.8,257.3z M354.4,441.2c0-0.4,0-0.7,0-1c0-14.2,0-28.4,0-42.6c0-0.2,0-0.3,0-0.5
			c-0.1-0.5-0.2-0.9-0.4-1.4c-0.3-0.7-0.8-0.8-1.5-0.5c-0.6,0.2-1.1,0.5-1.7,0.7c-0.5,0.2-0.6,0.5-0.6,0.9c0,2.1,0,4.1,0,6.2
			c0,12.5,0,25.1,0,37.6c0,0.3,0,0.6,0,1C351.6,441.6,352.9,441.4,354.4,441.2z M315.7,242.7c0.3-0.3,0.4-0.5,0.6-0.7
			c2.3-2.6,5-4.7,8.1-6.1c3.1-1.4,6.4-2,9.8-2c0.9,0,1.8,0.1,2.7,0.2c1.6,0.2,3,0.7,4.3,1.8c-0.1-0.8-0.3-1.4-0.6-2
			c-1.1-2.6-2.8-4.5-5.5-5.4c-1.2-0.5-2.5-0.7-3.8-0.8c-3-0.2-5.8,0.4-8.6,1.4c-0.2,0.1-0.4,0.2-0.6,0.3c-1.5,1.2-3,2.5-4.1,4
			c-1.9,2.5-2.7,5.3-2.5,8.5C315.6,242.1,315.7,242.3,315.7,242.7z M345.5,396.3c0,0.3,0,0.6,0,0.9c-0.1,2.6-0.1,5.2-0.2,7.8
			c-0.1,3-0.3,6-0.5,8.9c-0.1,2.4-0.3,4.8-0.5,7.2c-0.1,2-0.3,4-0.3,6c0,4.2,0.4,8.3,1,12.4c0.1,0.8,0.3,1.5,0.4,2.3
			c0.2-0.1,0.2-0.3,0.2-0.4c0.6-3.5,1.3-7,1.8-10.5c0.4-3.1,0.7-6.2,0.9-9.3c0.2-2.8,0.3-5.6,0.2-8.4c-0.2-5.2-0.6-10.4-0.9-15.7
			c0-0.4-0.1-0.8-0.1-1.2C346.9,396.3,346.2,396.3,345.5,396.3z M342.4,306.5c0.6-0.3,1.1-0.4,1.6-0.7c1.3-0.7,2.3-1.8,3-3
			c1.1-1.9,2-3.9,3.1-5.9c0.2-0.3,0.1-0.5-0.1-0.8c-0.5-0.7-1.1-1.2-1.9-1.3c-0.8-0.1-1.5-0.1-2.3-0.1c-1.1,0-2.3,0.2-3.4,0.2
			c-0.5,0-0.8,0.2-1.1,0.6c-0.5,0.9-0.7,1.9-0.7,2.9C340.6,301.2,341.4,303.8,342.4,306.5z M382.1,393.1c-0.1,0-0.1,0-0.2,0
			c-2.1,7.4-2.8,15-2.4,22.7c0.2,3.5,0.5,7,1.5,10.4c0.1-0.1,0.1-0.2,0.1-0.3c0.4-2.5,0.7-5.1,1-7.7c0.3-3,0.5-5.9,0.4-8.9
			c-0.2-4.5-0.3-9-0.4-13.6C382.1,394.9,382.1,394,382.1,393.1z M329.3,317.9c1.1-0.4,2-0.9,2.8-1.7c0.9-0.8,1.5-1.8,1.7-3
			c0.1-0.3,0.1-0.7,0-1c-0.3-1.1-0.7-2.1-1.1-3.1c-0.5-1.3-1.2-1.6-2.5-1.1c-0.6,0.2-1.2,0.5-1.8,0.8c-1.6,0.8-2.3,2.6-1.5,4.3
			c0.6,1.3,1.2,2.5,1.8,3.8C328.9,317.3,329.1,317.6,329.3,317.9z M336,300.3c0,0,0.1,0,0.1,0c0.3-1.8,0.5-3.5,0.8-5.3
			c0.6-3,1.3-5.9,3.3-8.4c-1.2-0.6-2.3-1.1-3.6-1.2c-2.2-0.2-3.4,1.2-3,3.4c0,0,0,0,0,0.1c0.6,2.9,1.1,5.7,1.7,8.6
			C335.5,298.4,335.7,299.3,336,300.3z M354.9,244.8c0.3,0.2,0.6,0.3,0.9,0.4c1.5,0.6,3,0.7,4.5,0.3c3-0.6,5.9-1.6,8.8-2.7
			c0.1,0,0.2-0.1,0.3-0.3c-2.3-0.5-4.5-1-6.7-1.4c-0.2-0.1-0.5,0-0.8,0c-1.7,0.5-3.4,1-5,1.6C356,243.1,355.3,243.7,354.9,244.8z
			 M378.9,251.6c-0.7-0.7-1.4-1.1-2.2-1.3c-1.2-0.4-2.4-0.4-3.6-0.3c-0.4,0-0.7,0.2-0.9,0.5c-0.7,1-1.1,2.1-1.3,3.3
			c-0.1,0.7,0,1.3,0.4,1.9c0.5,0.7,0.8,0.8,1.6,0.5c0.2-0.1,0.5-0.2,0.7-0.3C375.7,254.7,377.3,253.2,378.9,251.6z M362.3,248.6
			c0,0.1,0,0.1,0,0.2c0.1,0.8,0.6,1.3,1.3,1.8c1.2,0.7,2.5,1.1,3.9,1.3c0.2,0,0.5,0,0.7-0.1c0.5-0.1,0.9-0.5,1-1
			c0.2-0.8,0.1-1.5-0.1-2.2C368,248.4,362.8,248.4,362.3,248.6z M335.1,255.2c1.4-0.8,2.7-1.6,3.7-2.9c0.2-0.3,0.4-0.7,0.6-1.1
			c0.3-0.7,0.3-1.5-0.2-2.2c-0.1,0-0.2,0-0.2,0c-2,1-3.4,2.6-4.3,4.7c-0.1,0.2-0.1,0.4-0.1,0.6C334.7,254.7,334.8,255,335.1,255.2z
			 M379.5,389.5c1.3,0,2.5,0,3.7,0c0.1,0,0.2,0,0.4,0c0-0.9,0-1.7,0-2.6C381.3,386.1,379.5,387.2,379.5,389.5z M359,203.4
			c0.5-0.5,0.7-0.7,0.7-1.4c0.1-1.3-0.3-2.5-1-3.6c-0.1-0.2-0.3-0.5-0.7-0.5C358.4,199.8,358.7,201.6,359,203.4z M391.2,250.5
			c0,0,0-0.1,0-0.1c-0.2,0-0.4-0.1-0.6-0.1c-1.6-0.4-3.2-0.7-4.9-1.1c-0.2,0-0.5-0.2-0.7,0c-0.2,0.3-0.5,0.5-0.8,0.7
			c0,0.1,0,0.1,0.1,0.2C386.6,250.2,388.9,250.3,391.2,250.5z M364.4,271.8c0,0,0.1,0.1,0.1,0.1c0.2,0,0.4-0.1,0.5-0.1
			c0.6-0.1,1-0.5,1.3-1c0.6-1.2,1.3-2.5,2-3.7c0.1-0.2,0.2-0.4,0.3-0.6c0,0-0.1,0-0.1-0.1C367.1,268.2,365.8,270,364.4,271.8z"/>
		<path class="st4" d="M353.2,276.7c1.4-5.1,7.8-12.6,13.7-15.5c-0.1,0.1-0.2,0.2-0.3,0.2c-2.9,2.2-5.3,4.8-7.5,7.7
			c-1.8,2.3-3.6,4.6-5.3,6.9C353.5,276.3,353.3,276.5,353.2,276.7z"/>
		<path class="st4" d="M371.5,272.2c-0.2,0.4-0.3,0.7-0.6,1c-0.7,0.8-1.3,1.7-2.1,2.4c-1.3,1.1-2.7,2.2-4.1,3.2
			c-0.1,0.1-0.2,0.1-0.4,0.2c0.2-0.4,0.2-0.7,0.4-1c0.5-1.1,1.2-2,2-2.8c1.4-1.4,3-2.4,4.7-3.3C371.4,272.1,371.5,272.2,371.5,272.2
			z"/>
		<path class="st4" d="M328.9,357.1c2.3,6.7,4.7,13.4,7.1,20.2c-0.2-0.2-0.4-0.2-0.5-0.3c-0.5-0.7-1.1-1.4-1.5-2.2
			c-0.7-1.4-1.3-2.8-1.9-4.3c-1.1-3.1-2.1-6.1-3.2-9.2c-0.1-0.3-0.2-0.7-0.2-1.1c0-1,0-2.1,0-3.1
			C328.8,357.1,328.9,357.1,328.9,357.1z"/>
	</g>
</g>
</svg>
