<?xml version="1.0" encoding="utf-8"?>
<!-- Generator: Adobe Illustrator 20.1.0, SVG Export Plug-In . SVG Version: 6.00 Build 0)  -->
<svg version="1.1" id="Layer_1" xmlns="http://www.w3.org/2000/svg" xmlns:xlink="http://www.w3.org/1999/xlink" x="0px" y="0px"
	 viewBox="0 0 703 558" style="enable-background:new 0 0 703 558;" xml:space="preserve">
<style type="text/css">
	.st0{fill:#80CFF3;}
</style>
<g>
	<g>
		<defs>
			<polyline id="SVGID_1_" points="1511,-1213.3 -3532.4,-1213.3 -3532.4,7752.7 1511,7752.7 			"/>
		</defs>
		<clipPath id="SVGID_2_">
			<use xlink:href="#SVGID_1_"  style="overflow:visible;"/>
		</clipPath>
	</g>
</g>
<g>
	<g>
		<defs>
			<polyline id="SVGID_3_" points="1511,-1213.3 -3532.4,-1213.3 -3532.4,7752.7 1511,7752.7 			"/>
		</defs>
		<clipPath id="SVGID_4_">
			<use xlink:href="#SVGID_3_"  style="overflow:visible;"/>
		</clipPath>
	</g>
</g>
<g>
	<g>
		<defs>
			<polyline id="SVGID_5_" points="1511,-1213.3 -3532.4,-1213.3 -3532.4,7752.7 1511,7752.7 			"/>
		</defs>
		<clipPath id="SVGID_6_">
			<use xlink:href="#SVGID_5_"  style="overflow:visible;"/>
		</clipPath>
	</g>
</g>
<path class="st0" d="M492.2,301.3c0.7-5.8,1.3-11.6,1.3-17.7s-0.5-11.9-1.3-17.7l38.1-29.8c3.4-2.7,4.3-7.6,2.2-11.6l-36.1-62.5
	c-2.2-4-7-5.4-11-4l-45,18.1c-9.4-7.2-19.5-13.2-30.5-17.7l-6.9-47.9c-0.5-4.3-4.3-7.6-8.9-7.6h-72.3c-4.5,0-8.3,3.3-8.9,7.6
	l-6.9,47.9c-11,4.5-21.1,10.7-30.5,17.7l-45-18.1c-4.2-1.6-8.9,0-11,4l-36.1,62.5c-2.3,4-1.3,8.9,2.2,11.6l38.1,29.8
	c-0.7,5.8-1.3,11.7-1.3,17.7s0.5,11.9,1.3,17.7l-38.1,29.8c-3.4,2.7-4.3,7.6-2.2,11.6l36.1,62.5c2.2,4,7,5.4,11,4l45-18.1
	c9.4,7.2,19.5,13.2,30.5,17.7l6.9,47.9c0.5,4.3,4.3,7.6,8.9,7.6h72.3c4.5,0,8.3-3.3,8.9-7.6l6.9-47.9c11-4.5,21.1-10.7,30.5-17.7
	l45,18.1c4.2,1.6,8.9,0,11-4l36.1-62.5c2.2-4,1.3-8.9-2.2-11.6L492.2,301.3z M358,346.9c-34.9,0-63.2-28.4-63.2-63.2
	s28.4-63.2,63.2-63.2s63.2,28.4,63.2,63.2S392.9,346.9,358,346.9z"/>
</svg>
