<?xml version="1.0" encoding="utf-8"?>
<!-- Generator: Adobe Illustrator 20.1.0, SVG Export Plug-In . SVG Version: 6.00 Build 0)  -->
<svg version="1.1" id="Layer_1" xmlns="http://www.w3.org/2000/svg" xmlns:xlink="http://www.w3.org/1999/xlink" x="0px" y="0px"
	 viewBox="0 0 703 558" style="enable-background:new 0 0 703 558;" xml:space="preserve">
<style type="text/css">
	.st0{fill:#E6E7E8;}
	.st1{fill:#3B3B3C;}
	.st2{fill:#333132;}
</style>
<g>
	<circle class="st0" cx="350.4" cy="286" r="207.2"/>
	<path class="st1" d="M350.4,497.8c-116.8,0-211.8-95-211.8-211.8s95-211.8,211.8-211.8s211.8,95,211.8,211.8
		S467.2,497.8,350.4,497.8z M350.4,83.4c-111.7,0-202.6,90.9-202.6,202.6s90.9,202.6,202.6,202.6S553,397.7,553,286
		S462.1,83.4,350.4,83.4z"/>
</g>
<g>
	<path class="st2" d="M469.6,391.1l-2.2-0.7c-26.7-8.3-42.1-4.8-42.2-4.7c-19.4,3.9-35.6-3.6-36.3-3.9
		c-25.7-10.8-44.6-13.7-44.8-13.7c-19.1-4.2-48.8-11.1-49.1-11.2c-13.9-3.6-18.1-15.7-18.3-16.2c-1.9-5.3-9.2-9.1-9.3-9.1l-0.6-0.4
		l-7-6c-4.5-4.3-6.5-8.3-6-12.2c0.6-4.4,4.2-6.5,4.6-6.8c2.5-1.4,5.3-2.3,8.2-3c-0.9-0.7-1.6-1.5-2.1-2.4c-1.3-2.3-0.7-4.3-0.5-4.7
		l0.1-0.3c1.5-2.9,5.4-7.3,6.2-8.1c7.7-10,16.4-23.7,16.5-23.9c5.8-10.3,12.5-26,12.6-26.1l0.1-0.3c5.3-9.4,15.3-10.2,16.6-10.2
		c34.5-3.7,74.3-6,74.7-6c8-0.8,13.6,8.1,14.5,9.5c22.1,30,47.5,66.9,47.7,67.3c4.6,7.5,11.3,10.9,12.6,11.5
		c10.8,2.5,23.7,7.5,24.2,7.7c3.4,1.3,5.8,3.3,6.9,6.1c1.6,3.8,0.1,7.5-0.3,8.4c-8.3,23.3-25.6,57-25.7,57.3L469.6,391.1z
		 M434.8,379.3c7.3,0,18.1,1,32,5.1c3.9-7.7,17.4-35.1,24.5-54.7l0.1-0.3c0,0,1-2.2,0.2-4.1c-0.5-1.3-1.8-2.3-3.7-3
		c-0.2-0.1-13.2-5.2-23.7-7.6l-0.5-0.1c-0.4-0.2-9.3-3.9-15.2-13.7c-0.2-0.3-25.6-37.2-47.6-67.1l-0.2-0.3c-1.2-2-5-7.3-9.3-6.8
		c-0.5,0-40.2,2.4-74.6,6l-0.2,0c-0.3,0-8,0.4-12,7.3c-0.7,1.7-7.1,16.4-12.9,26.6c-0.2,0.3-9.1,14.3-17,24.5l-0.2,0.2
		c-1.1,1.2-4,4.5-5.1,6.5c0.2,0.5,1.7,2.1,7,3.1c4,1,14.9,2.2,18.5-3.2c0.3-0.4,7.2-11.1,13.3-17.6l0,0c0,0,8.2-9.8,10.7-14.7
		c2.1-3.8,7.6-7.9,14.3-4.5c1.2,0.4,10.1,3.3,20.2,1.2l0.5-0.1l0.5,0.1c0.5,0.1,13.5,2.4,17.5,13.4c0.1,0.3,2.8,7.6-0.1,13.4
		l-0.4,0.6c-0.1,0.1-9.9,10.9-13.3,22.2l-0.3,0.6c-0.3,0.5-7,11.6-19.6,11.6l-0.3,0c-0.2,0-15.8-1.8-26.2-1.8h-0.4l-5.7-1.7
		l-0.5-0.5c-0.1-0.1-6.9-7.2-11.8-11.4c-3.6-0.6-21.1-3.2-31.9,2.6c0,0-1.5,0.9-1.7,2.7c-0.2,1.9,1.3,4.5,4.2,7.3l6.6,5.7
		c1.7,0.9,9.3,5.3,11.7,12.1c0.2,0.4,3.5,9.8,14.4,12.7c0.2,0.1,29.9,7,48.7,11.1c0.6,0.1,19.5,2.9,46,14.1c0.3,0.1,15.4,7,32.8,3.6
		C424.2,380.2,428,379.3,434.8,379.3z M311.9,316.5c10.2,0,24.4,1.6,26.2,1.9c8.4-0.1,13.6-7.2,14.5-8.6
		c3.6-11.4,12.4-21.7,14.2-23.6c1.3-3,0.3-7.2-0.3-8.6c-2.6-7.1-10.7-9.3-12.8-9.8c-12.1,2.3-22.4-1.5-22.8-1.6l-0.3-0.1
		c-4.1-2.1-6.4,1.1-7,2.2c-2.7,5.3-11.1,15.3-11.4,15.8c-5.8,6.2-12.7,16.8-12.8,16.9c-0.8,1.3-1.9,2.3-3,3.2
		c4.4,3.7,10.2,9.7,12,11.5L311.9,316.5z M269.3,297.8L269.3,297.8z"/>
	<path class="st2" d="M310.6,234.1c0,0-0.1,0-0.1,0c-1.4-0.1-34.1-1.8-48.3-4.6c-3.9,0.4-30.8,2.3-43.8-13.1c-0.4-0.4-5-5.3-3.1-10
		c1.3-3.4,5.1-5.2,11.6-5.5l0.2,0l0.2,0c0.2,0,20.2,2.5,30.8,0.7c0.7-0.1,13.1-1.2,24.7-0.7c0.7,0,22.4-0.7,30,0.5
		c1,0.2,21.8,4.5,39.4,11.4c2.7,0.5,26,4.9,41.7,8.4c1.5,0.3,2.4,1.8,2.1,3.3c-0.3,1.5-1.8,2.4-3.3,2.1c-16.5-3.7-41.5-8.4-41.8-8.4
		l-0.5-0.1c-17.2-6.8-38.4-11.2-38.6-11.2c-7-1.1-28.9-0.4-29.1-0.4c-11.5-0.4-23.9,0.6-24,0.7c-10.7,1.8-29.4-0.3-31.9-0.6
		c-4.6,0.3-6.3,1.4-6.5,2c-0.4,0.9,1,3.2,2.1,4.3c12.1,14.2,39.3,11.3,39.5,11.3l0.4,0l0.4,0.1c13.6,2.7,47.6,4.6,48,4.6
		c1.5,0.1,2.7,1.4,2.6,2.9C313.3,233,312,234.1,310.6,234.1z"/>
	<path class="st2" d="M386.7,225.2c-0.4,0-0.7-0.1-1.1-0.2c-0.5-0.2-52.8-22.8-65.1-28.3c0,0-8.5-3.5-25.3-3.9l-0.3,0
		c-1.1-0.1-27.4-3.3-41-8c-3.2-0.9-8.8-1.4-10.7,0.3c-0.2,0.2-1,0.9-0.6,3.1l0,0.4c0,0.4,0.6,10.2,11.5,13.7c1.5,0.5,2.3,2,1.8,3.5
		c-0.5,1.5-2,2.3-3.5,1.8c-13.9-4.5-15.2-16.8-15.4-18.6c-0.7-4.3,0.9-6.7,2.4-8c4.9-4.4,14.9-1.8,16-1.5
		c12.7,4.4,37.9,7.6,39.9,7.8c17.9,0.5,26.9,4.2,27.3,4.4c12.3,5.5,64.5,28,65,28.3c1.4,0.6,2.1,2.2,1.4,3.6
		C388.8,224.6,387.7,225.2,386.7,225.2z"/>
	<path class="st2" d="M391,226.7c-0.8,0-1.6-0.3-2.1-1c-0.1-0.2-13.1-15.5-21.2-21.5c-1.8-0.8-11.7-5.2-23.3-9.8
		c-12.6-5.6-31.7-10.8-35.2-4.9c-0.8,1.3-2.5,1.7-3.8,1c-1.3-0.8-1.8-2.5-1-3.8c1.3-2.1,9.3-12.1,42.1,2.6c12.8,5,23.6,9.9,23.7,9.9
		l0.5,0.3c8.5,6.3,21.8,21.9,22.3,22.6c1,1.2,0.8,2.9-0.3,3.9C392.3,226.5,391.7,226.7,391,226.7z"/>
	<path class="st2" d="M360.3,365.2c0,0,31.9-5.2,25.6-45.5c0,0,13.7,28.8-14.2,49.5L360.3,365.2z"/>
	<path class="st2" d="M350.7,363.7c0,0,11.5,2.6,19.9-1.9l14.7-8.2c0,0-7.6,18,4,22.3h-4.9l-29.5-7L350.7,363.7z"/>
	<path class="st2" d="M308.7,321.1c0,0-6.5,6.8-6.3,16.5c0,0-4.2-12.1-0.3-21.6L308.7,321.1z"/>
	<path class="st2" d="M306,324.9c0,0,4.5-3.2,9.6-2.7L297.1,312c0,0,3.3,5.6,3.4,11L306,324.9z"/>
	<path class="st2" d="M272.4,328.3c0,0,5.9-5.2,4.9-10.6c0,0,0.1-2.4-3.1-4.1l-7.7-3.9l11,3.4c0,0,2.8,1,1.8,6.7c0,0-0.9,6.6-5,11.6
		L272.4,328.3z"/>
	<path class="st2" d="M476.1,365.2c0,0-19.3-4.1-37.2-9.7c0,0,7.5,5.7,16.2,8c0,0,10.3,4.6,4,3.7c0,0-24.2-4.6-37.9-8.6
		c0,0,34.9,11.5,45.1,16.6c0,0,5.2,4.8-2.2,2.7c0,0-15.5-6.2-26-8.6c0,0-5.8-0.9,3.5,2.3c0,0,21.4,6.7,25.6,14.2L476.1,365.2z"/>
	<path class="st2" d="M405.4,361.2c0,0,12.4-7.3,15.8-25.8C421.3,335.4,417.3,351.1,405.4,361.2z"/>
	<path class="st2" d="M373.6,281c0,0,7.8-1.3,12.8-7.3c0,0-7.3,4.8-13.7,4v2.8L373.6,281z"/>
	<path class="st2" d="M366.4,268.4c0,0,15.3-0.6,23.4-9.4c0,0-6.9,10.3-22.2,12.7L366.4,268.4z"/>
	<path class="st2" d="M351.7,262.4c0,0,12.6-4,18.5-14.4c0,0-1.7,9.6-11.9,17.4L351.7,262.4z"/>
	<path class="st2" d="M327.1,259c0,0-8.4-4.4-13-17.9c0,0-0.2,8.4,6.5,23L327.1,259z"/>
	<path class="st2" d="M258.8,223.9c0,0,3.7-3,3.4-13.5c0,0,3.9,6.5,3.4,15.5l-5.9-2L258.8,223.9z"/>
	<path class="st2" d="M260.5,222.4c0,0-2.9,2.4-10.7,2.3l13.8,3.7l9.1-2.1c0,0-6.2-0.5-7.6-5.7L260.5,222.4z"/>
	<path class="st2" d="M322.8,255.6c0,0,6.5,4.9,15.1,6.4l-6.5-0.4l-6.7-0.8L322.8,255.6z"/>
	<path class="st2" d="M364,259.8c0,0-1.5,4.5,0.9,6.9l-5.5-1.3l-1.5-2.2L364,259.8z"/>
	<path class="st2" d="M371.3,267.9c0,0-4.6,0.4-6.7-1.6l2.4,3.8l4.8,5.4c0,0-0.4-3.6,2.3-5.4l-2.4-2.3L371.3,267.9z"/>
	<path class="st2" d="M371.7,275.5c0,0,3.1,2.6,6.1,1.8l-0.5,2.6c0,0-3.8,3.1-5.2,7.9l-1.2-6.3L371.7,275.5z"/>
</g>
</svg>
